<?xml version="1.0" encoding="UTF-8" standalone="no"?>
<svg width="115px" height="40px" viewBox="0 0 115 40" version="1.1" xmlns="http://www.w3.org/2000/svg" xmlns:xlink="http://www.w3.org/1999/xlink">
    <!-- Generator: Sketch 3.8.1 (29687) - http://www.bohemiancoding.com/sketch -->
    <title>Group 2</title>
    <desc>Created with Sketch.</desc>
    <defs></defs>
    <g id="Page-1" stroke="none" stroke-width="1" fill="none" fill-rule="evenodd">
        <g id="iPhone-6" transform="translate(-24.000000, -429.000000)">
            <g id="Group-2" transform="translate(24.000000, 429.000000)">
                <g id="打分按钮">
                    <rect id="Rectangle-461" fill="#FFE820" x="4.93878614" y="2.6446281" width="106.677781" height="32.3966942" rx="3"></rect>
                    <path d="M54.3148455,3.25908883 L57.0646488,0.800828174 L56.955174,0.842670804 L82.6697881,0.842670804 L82.5825076,0.817528478 L86.7034957,3.40470703 L86.7458645,3.4313064 L86.7958109,3.42977204 L111.952896,2.6569432 L111.783235,2.49173126 L111.783235,13.0643555 L111.783235,13.1344131 L111.833376,13.1831327 L114.410176,15.6868539 L114.360035,15.5680767 L114.360035,27.6911082 L114.401367,27.5815796 L111.401521,30.9856905 L111.360188,31.0325931 L111.360188,31.0952191 L111.360188,34.6411396 L111.517692,34.4760052 L102.638442,34.8620803 L102.55488,34.8657137 L102.508529,34.9356172 L101.053546,37.1299354 L101.190582,37.0562438 L89.8277917,37.0562438 L89.9312927,37.0929966 L87.4261266,35.0594865 L87.3808493,35.0227337 L87.3226256,35.0227337 L78.9134342,35.0227337 L79.0026894,35.0491354 L74.1460566,31.9028603 L74.1053026,31.8764586 L74.0568014,31.8764586 L62.6940114,31.8764586 L62.6385997,31.8764586 L62.5944659,31.9100996 L54.5822595,38.0174152 L54.681805,37.9837741 L43.4251146,37.9837741 L43.3670741,37.9837741 L43.321867,38.0203216 L41.3478746,39.6161894 L41.4511221,39.5796419 L15.3380379,39.5796419 L15.4352307,39.6115226 L9.38933504,35.171319 L9.35461027,35.1458166 L9.31189821,35.1406328 L5.06859153,34.6256397 L2.29824488,34.6244444 L2.22784605,34.6244444 L2.17921392,34.6755504 C2.1933365,34.6615756 2.1933365,34.6615756 2.21696573,34.6462898 C2.26947536,34.6172289 2.33462419,34.6214496 2.38080623,34.6568246 C2.40012813,34.6716249 2.40550223,34.6800519 2.40575308,34.6806777 C2.38608979,34.6316273 2.36259505,34.5175057 2.3399029,34.32957 C2.2647876,33.7074675 2.21932789,32.4824354 2.2193279,30.4997682 C2.2193279,25.9847993 2.2193279,25.9847993 2.2193279,18.4093311 C2.2193279,14.4469302 2.2193279,14.4469302 2.2193279,10.9224939 C2.2193279,8.63230163 2.2193279,8.63230163 2.2193279,6.97523724 C2.2193279,5.71921226 2.2193279,5.71921226 2.2193279,5.43421707 L2.20719294,5.37193329 C2.20678892,5.37093615 2.2041474,5.36278522 2.20090118,5.3487587 C2.17421217,5.23343846 2.19346793,5.10416358 2.29726801,4.9767849 C2.54534684,4.67235401 3.18673648,4.47530801 4.3423996,4.47530811 C5.77365588,4.47530819 5.77365588,4.47530819 7.44822526,4.47530821 C9.28134106,4.4753082 9.28134106,4.4753082 10.7952841,4.47530816 C11.9449895,4.47530812 11.9449895,4.47530812 12.2308365,4.47530811 L12.1138433,4.42630586 L13.4911921,5.8232028 L13.5395086,5.87220505 L13.6081852,5.87220505 L26.5372607,5.87220505 L26.5954051,5.87220505 L26.6406521,5.83554108 L29.2117456,3.7521661 L29.0049627,3.49491552 L26.4338692,5.5782905 L26.5372607,5.54162653 L13.6081852,5.54162653 L13.7251783,5.59062878 L12.3478296,4.19373184 L12.2995131,4.14472959 L12.2308364,4.14472959 C11.9449894,4.14472961 11.9449894,4.14472961 10.7952841,4.14472964 C9.28134106,4.14472968 9.28134106,4.14472968 7.44822526,4.14472969 C5.77365589,4.14472968 5.77365589,4.14472968 4.34239963,4.14472959 C3.09777048,4.14472949 2.36692507,4.36925785 2.04243996,4.76745102 C1.86691483,4.98284735 1.83217283,5.21609025 1.88019311,5.42358051 C1.8875628,5.45542414 1.89553719,5.48003063 1.90221045,5.49650085 L1.89007549,5.43421707 C1.89007549,5.71921226 1.89007549,5.71921226 1.89007549,6.97523724 C1.89007549,8.63230163 1.89007549,8.63230163 1.89007549,10.9224939 C1.89007549,14.4469302 1.89007549,14.4469302 1.89007549,18.4093311 C1.89007549,25.9847993 1.89007549,25.9847993 1.89007549,30.4997682 C1.89007549,32.4947612 1.93594446,33.730822 2.01304363,34.3693549 C2.07280535,34.8642997 2.15130001,35.060106 2.37590854,34.9357988 C2.40252957,34.9185471 2.40252957,34.9185471 2.41727575,34.9039169 L2.29824478,34.9550229 L5.04883542,34.9550237 L9.27238609,35.4688223 L9.19494926,35.4381361 L15.240845,39.8783397 L15.2842546,39.9102204 L15.3380379,39.9102204 L41.4511221,39.9102204 L41.5091626,39.9102204 L41.5543696,39.8736729 L43.5283621,38.2778051 L43.4251146,38.3143526 L54.681805,38.3143526 L54.7372167,38.3143526 L54.7813505,38.2807115 L62.7935569,32.173396 L62.6940114,32.2070371 L74.0568014,32.2070371 L73.9675462,32.1806354 L78.8241791,35.3269105 L78.8649331,35.3533122 L78.9134342,35.3533122 L87.3226256,35.3533122 L87.2191246,35.3165593 L89.7242907,37.3500695 L89.769568,37.3868223 L89.8277917,37.3868223 L101.190582,37.3868223 L101.278755,37.3868223 L101.327618,37.3131306 L102.782601,35.1188124 L102.652688,35.1923493 L111.531937,34.8062741 L111.68944,34.7994258 L111.68944,34.6411396 L111.68944,31.0952191 L111.648108,31.2047477 L114.647955,27.8006368 L114.689287,27.7537342 L114.689287,27.6911082 L114.689287,15.5680767 L114.689287,15.498019 L114.639146,15.4492995 L112.062345,12.9455783 L112.112487,13.0643555 L112.112487,2.49173126 L112.112487,2.32130731 L111.942826,2.32651932 L86.7857415,3.09934816 L86.8780567,3.12441317 L82.7570687,0.537234618 L82.7170207,0.512092292 L82.6697881,0.512092292 L56.955174,0.512092292 L56.8925042,0.512092292 L56.8456992,0.553934922 L54.0958959,3.01219558 L54.3148455,3.25908883 L54.3148455,3.25908883 Z" id="Path-3380" fill="#000000" style="mix-blend-mode: overlay;"></path>
                    <path d="M5.21914903,11.1869342 L0.406272187,16.6312996 L0.406272187,28.0489874 L6.45606631,37.8302697 L15.0281497,37.663091 L16.5989642,35.1881382 L22.2558345,35.1881382 L23.3755794,37.9399531 L39.9690875,37.9399531 L42.6085858,34.8440508 L51.2555539,34.8440508 L59.6681771,39.5170942 L83.8752826,39.5170942 L90.2008282,35.1881382 L103.018428,35.1456801 L110.28274,35.1456801 L111.335066,35.1456801 L111.625197,34.6265533 L111.765829,18.9894927 L108.240086,13.7547641 L108.240086,8.52799639 C108.240086,8.52799639 109.359828,6.73237299 104.379565,6.73237303 C99.3993028,6.73237308 81.2596078,6.73237303 81.2596078,6.73237303 L71.2497402,1.22962777 L82.3872817,1.22962777 L87.300592,3.92217826 L112.243328,3.92217826 L111.335064,35.1456812 L6.35377308,34.8238955 L4.01390543,32.0930572 L4.01390552,15.8765028 L8.40849163,12.9403008 L8.36078399,7.71537022 C8.36078399,7.71537022 8.28291674,6.07026032 9.82217309,6.07026038 C11.3614294,6.07026043 14.8194109,6.07026038 14.8194109,6.07026038 L18.8394648,2.88519998 L44.1180182,2.88519998 L41.4693354,0.258970405 L15.2931971,0.258970405 L11.527584,2.78114183 L4.78819489,3.23536392" id="Path-3378" fill-opacity="0.5" fill="#25A3EB"></path>
                    <path d="M0.283148494,16.5215784 L0.241645983,28.0489874 L6.31621262,37.9174684 L15.0313469,37.8283491 L16.7377978,35.276965 L22.2558345,35.3534275 L23.2231812,38.0024662 L39.9690875,38.1052424 L42.7336492,34.9515377 L51.2555539,35.00934 L59.5884813,39.6617243 L83.8752826,39.6823835 L90.2935494,35.3247176 L103.018971,35.3109685 L110.28274,35.3109694 L111.335066,35.3109694 L110.703303,34.4414042 L110.867784,34.269171 L111.93031,18.9825488 L108.376458,13.6621724 L108.404712,8.52799639 C108.559523,8.16792378 108.542327,7.83656114 108.308098,7.52965136 C107.839936,6.91621803 106.605139,6.56708376 104.379565,6.56708378 C100.075606,6.5670838 100.075606,6.5670838 93.4454478,6.5670838 C89.5625807,6.56708379 89.5625807,6.56708379 86.1469459,6.56708379 C84.1001204,6.56708378 84.1001204,6.56708378 82.6263457,6.56708378 C81.511548,6.56708378 81.511548,6.56708378 81.2596078,6.56708378 L71.3288023,1.08464755 L71.2497402,1.39491702 L82.3872817,1.39491702 L87.2217204,4.06726308 L112.243328,4.08746751 L112.078772,3.91735283 L109.431378,34.2712906 L111.335567,34.9803927 L6.35427566,34.658607 L4.13870516,31.9852618 L4.17853173,15.8765028 L4.10510924,16.0141083 L8.49969534,13.0779063 L8.57311092,12.9387855 L8.52540328,7.71385499 C8.51992335,7.49527327 8.55518917,7.22044066 8.66592104,6.95710389 C8.85746656,6.50158025 9.21824427,6.23554961 9.82217309,6.23554963 C10.768292,6.23554966 10.768292,6.23554966 11.9587571,6.23554966 C12.9922623,6.23554966 12.9922623,6.23554966 13.8658877,6.23554965 C14.6273009,6.23554964 14.6273009,6.23554964 14.8194109,6.23554963 L18.9414459,3.01495532 L44.1180182,3.05048924 L44.5190099,3.05048924 L44.2336948,2.76759275 L41.585012,0.141363172 L15.2931971,0.0936811492 L11.4362244,2.64364058 L4.77716872,3.07044582 L4.79922106,3.40028203 L11.5386102,2.94605993 L15.3845567,0.396471649 L41.4693354,0.424259662 L44.0023416,3.00280721 L44.1180182,2.71991072 L18.8394648,2.71991072 L14.7174298,5.94050504 C14.6273008,5.90497112 14.6273008,5.90497112 13.8658877,5.90497113 C12.9922623,5.90497114 12.9922623,5.90497114 11.9587571,5.90497115 C10.768292,5.90497114 10.768292,5.90497114 9.8221731,5.90497112 C9.07925259,5.90497109 8.60339881,6.25585665 8.36259377,6.82852672 C8.23053488,7.14258231 8.1897118,7.46072358 8.19588015,7.70938884 C8.1961821,7.71967506 8.24387234,12.941816 8.24387234,12.941816 L8.31728792,12.8026952 L3.92270181,15.7388973 L3.84927932,15.8765028 L3.84927922,32.0930572 L6.22897334,34.9316909 L109.595431,34.4414045 L109.76049,34.2809414 L112.407884,3.92700368 L112.412833,3.756889 L87.300592,3.756889 L82.4661532,1.08454294 L71.2497402,1.06433851 L70.6062768,1.06433851 L71.1706781,1.37460799 L81.1805457,6.87735326 C81.511548,6.89766229 81.511548,6.89766229 82.6263457,6.89766229 C84.1001204,6.8976623 84.1001204,6.8976623 86.1469459,6.8976623 C89.5625807,6.89766231 89.5625807,6.89766231 93.4454478,6.89766231 C100.075606,6.89766231 100.075606,6.89766231 104.379565,6.89766229 C106.511721,6.89766227 107.658418,7.22188677 108.04675,7.73071806 C108.203666,7.93632538 108.214786,8.15060911 108.139585,8.35438956 C108.123582,8.39775366 108.07546,8.48052092 108.07546,8.48052092 L108.07546,13.7547641 L111.629457,19.0820843 L110.538822,34.2830588 L110.703303,34.1108257 L109.595935,34.1108257 L110.28274,34.9803909 L103.018428,34.9803909 L90.2002851,35.0228499 L83.7825614,39.3805148 L59.6681771,39.351805 L51.3352497,34.6994207 L42.6085858,34.6787615 L39.8440241,37.8324662 L23.3755794,37.7746639 L22.4082326,35.1256251 L16.5989642,35.022849 L14.8893161,37.5742642 L6.45286914,37.6650116 L0.546125874,27.9617887 L0.570898392,16.6312996 L5.34227273,11.2966554 L5.09602534,11.0772131 L0.283148494,16.5215784 Z" id="Path-3378" fill="#26EEDA"></path>
                    <path d="M3.29252409,4.97580812 C3.29252409,3.323186 4.63519189,1.98347107 6.30157689,1.98347107 L109.595271,1.98347107 C111.257125,1.98347107 112.604324,3.32610403 112.604324,4.97580812 L112.604324,32.7101423 C112.604324,34.3627644 111.261656,35.7024793 109.595271,35.7024793 L6.30157689,35.7024793 C4.63972292,35.7024793 3.29252409,34.3598464 3.29252409,32.7101423 L3.29252409,4.97580812 Z M5.59729096,7.12031003 C5.59729096,5.46408629 6.94441946,4.12145167 8.59939059,4.12145167 L107.62671,4.12145167 C109.284724,4.12145167 110.62881,5.4630665 110.62881,7.12031003 L110.62881,30.5656404 C110.62881,32.2218641 109.281681,33.5644987 107.62671,33.5644987 L8.59939059,33.5644987 C6.94137675,33.5644987 5.59729096,32.2228839 5.59729096,30.5656404 L5.59729096,7.12031003 Z" id="Combined-Shape" fill="#50D1E2"></path>
                </g>
            </g>
        </g>
    </g>
</svg>