<?xml version="1.0" encoding="UTF-8" standalone="no"?>
<svg width="68px" height="61px" viewBox="0 0 68 61" version="1.1" xmlns="http://www.w3.org/2000/svg" xmlns:xlink="http://www.w3.org/1999/xlink">
    <!-- Generator: Sketch 3.8.1 (29687) - http://www.bohemiancoding.com/sketch -->
    <title>iPhone 6 Copy</title>
    <desc>Created with Sketch.</desc>
    <defs>
        <path d="M0.0434413747,26.1342696 C-0.454527142,15.6484896 4.20612957,10.5654894 4.20612957,10.5654894 C4.20612957,10.5654894 2.49291402,4.83141021 4.94600674,4.83141021 C7.39909946,4.83141021 10.793636,6.84366594 10.793636,6.84366594 C10.793636,6.84366594 18.10884,4.34311463 19.9888584,4.3431145 C20.727007,-0.803439799 24.4095417,-0.370016914 26.2463555,2.0400716 C27.3023953,3.42570436 26.9062683,2.8190272 28.2332444,4.83141005 C35.5742631,10.0553509 35.931337,15.3281152 36.966232,19.2763638 C37.5003001,21.3138976 35.5742629,27.0365304 35.5742629,27.0365304 C35.5742629,27.0365304 37.1290205,30.085449 38.2858106,24.9487981 C38.9543521,13.7052049 36.4388191,13.0718585 35.9154195,12.2715904 C35.3920199,11.4713224 34.3493092,8.2968303 35.9154195,8.1633357 C34.9845255,6.08284333 36.7472365,3.87628947 38.2858106,4.24912364 C38.77511,3.48035697 39.3168979,2.19336501 42.3357226,4.24912363 C46.1706453,3.88078309 48.2924476,12.4651033 49.1373521,14.565489 C49.9822566,16.6658746 49.3178493,21.4500502 48.6970762,25.7910564 C47.7154183,32.6556941 43.6854893,36.7049425 43.6854881,36.7049425 C43.6854861,36.7049426 44.0185874,53.0544763 39.9895662,59.7363843 C38.7178679,61.8454254 33.4782795,54.6074855 27.3774372,55.1875966 C19.0500294,55.9794252 19.1602614,58.7185491 16.1180089,59.7363843 C9.73916477,61.8705306 7.68965316,59.3108533 6.10527239,48.7670444 C4.52089162,38.2232355 5.13753214,35.0466346 5.13753214,35.0466346 C5.13753214,35.0466346 0.545268414,31.4898264 0.0434413747,26.1342696 Z" id="path-1"></path>
        <path d="M9.18271924,2.73542999 C9.18271924,2.73542999 8.26303707,-1.53867935 4.53637354,0.598375295 C0.809710011,2.73542994 -1.10378618,6.24518328 0.667019906,7.07183627 C2.43782599,7.89848926 5.48281008,8.11842426 8.84494507,4.35839978" id="path-3"></path>
        <path d="M9.18271924,2.81075752 C9.18271924,2.81075752 8.26303707,-1.46335181 4.53637354,0.673702834 C0.809710011,2.81075748 -1.10378618,6.32051082 0.667019906,7.14716381 C2.43782599,7.9738168 5.48281008,8.1937518 8.84494507,4.43372732" id="path-5"></path>
        <path d="M1.23835209,3.57020721 C1.23835209,3.57020721 0.179938903,5.68929588 1.61375505,6.09291157 C3.04757121,6.49652725 4.30747681,6.26592006 5.68339264,5.85002213 C7.05930848,5.4341242 8.37405841,3.21677875 6.24260199,2.16644601 C4.11114556,1.11611328 3.23958885,0.11999129 2.42667195,0.738544102 C1.61375506,1.35709691 1.23835209,3.57020721 1.23835209,3.57020721 Z" id="path-7"></path>
        <rect id="path-9" x="14" y="33" width="38" height="17"></rect>
        <mask id="mask-10" maskContentUnits="userSpaceOnUse" maskUnits="objectBoundingBox" x="0" y="0" width="38" height="17" fill="white">
            <use xlink:href="#path-9"></use>
        </mask>
        <path d="M1.49212697,7.64708611 C1.49212697,11.6489315 5.53655,13.2916343 6.75311697,11.6250478 C7.96968394,9.9584613 8.64011772,1.19915285 5.99408511,1.19915254 C3.3480525,1.19915223 1.49212697,3.64524077 1.49212697,7.64708611 Z" id="path-11"></path>
        <path d="M3.75771692,14.1786898 C3.75771692,14.1786898 -1.49389599,3.99164278 0.534512849,2.39030989 C2.56292169,0.788976991 28.7366602,0.297106131 32.7452179,0.297106202 C36.7537756,0.297106274 38.8827679,-0.40307548 39.9139895,0.993617205 C40.9452111,2.39030989 37.4283886,13.9258719 37.4283886,13.9258719 L34.8836416,13.9258719 L34.9087524,4.87077002 L5.92887124,6.06328128 L6.1213999,14.2227379 L3.75771692,14.1786898 Z" id="path-13"></path>
    </defs>
    <g id="Page-1" stroke="none" stroke-width="1" fill="none" fill-rule="evenodd">
        <g id="iPhone-6" transform="translate(-109.000000, -194.000000)">
            <g id="底部标签" transform="translate(0.000000, 193.000000)">
                <g id="提问" transform="translate(110.372222, 0.000000)">
                    <g id="Group-62">
                        <g id="Group-61">
                            <g id="Path-2190" transform="translate(8.081218, 1.000000)">
                                <mask id="mask-2" fill="white">
                                    <use xlink:href="#path-1"></use>
                                </mask>
                                <use id="Mask" fill="#604E99" xlink:href="#path-1"></use>
                                <g id="Group-59" mask="url(#mask-2)" fill="#65626C">
                                    <g transform="translate(5.265131, 31.726721) scale(-1, 1) rotate(34.000000) translate(-5.265131, -31.726721) translate(-0.734869, 28.726721)">
                                        <path d="M0.351874056,1.80960912 C0.36108636,1.80737855 0.3795784,1.8029566 0.406981182,1.7964894 C0.452923815,1.7856467 0.507040282,1.77305073 0.568961488,1.75884761 C0.746196629,1.71819447 0.950229444,1.67286424 1.17810564,1.62402592 C1.82957679,1.48440294 2.54105614,1.34475112 3.28886628,1.21441996 C4.55122591,0.99441118 5.78550555,0.823978401 6.94226567,0.722427272 C8.48758365,0.586764931 9.81824445,0.581133659 10.8663969,0.729291929 C10.9966151,0.747698508 11.1170137,0.656448147 11.1353147,0.525478544 C11.1536156,0.394508942 11.0628888,0.273415621 10.9326706,0.255009042 C9.84300319,0.100982557 8.47898315,0.106755004 6.90085805,0.245297458 C5.72944316,0.34813512 4.48225224,0.520350723 3.20756086,0.74250873 C2.45341257,0.873944528 1.73601845,1.01475731 1.07886126,1.15559893 C0.848717527,1.20492322 0.642476771,1.25074399 0.463079713,1.29189302 C0.40017965,1.30632066 0.345095823,1.3191418 0.298196017,1.33021039 C0.269893336,1.33688997 0.250511522,1.34152469 0.24041846,1.34396853 C0.112573083,1.37492374 0.0338841126,1.5042551 0.0646617256,1.6328382 C0.0954393385,1.7614213 0.224028679,1.84056434 0.351874056,1.80960912 L0.351874056,1.80960912 Z" id="Path-2182" style="mix-blend-mode: soft-light;"></path>
                                        <path d="M0.518663833,4.35188942 L0.518665944,4.35188942 C0.540052695,4.35188862 0.580751993,4.35201782 0.63990481,4.35240971 C0.7382906,4.35306152 0.852360263,4.35423795 0.980802861,4.35607015 C1.3474775,4.36130065 1.75593995,4.3707275 2.19569332,4.38539804 C3.45072007,4.42726678 4.7053727,4.50265645 5.87526343,4.61983612 C8.0306871,4.83572965 9.64865329,5.16980899 10.4811568,5.6299051 C10.5964019,5.69359714 10.7411629,5.65126599 10.8044895,5.53535583 C10.8678161,5.41944568 10.8257279,5.27384934 10.7104827,5.2101573 C9.80314608,4.70870347 8.14066116,4.36543186 5.92245354,4.1432497 C4.74091715,4.02490357 3.47621259,3.94890989 2.21147979,3.90671735 C1.76859247,3.89194226 1.35713652,3.88244633 0.987556008,3.87717437 C0.857886525,3.87532468 0.742612782,3.87413583 0.643041458,3.87347617 C0.582816065,3.87307717 0.541538763,3.87294613 0.518632666,3.87294548 L0.518616309,3.87294548 C0.387108898,3.87296132 0.28052154,3.98018941 0.280537285,4.11244612 C0.280553031,4.24470284 0.387165918,4.35190525 0.518663833,4.35188942 L0.518663833,4.35188942 Z" id="Path-2183" style="mix-blend-mode: soft-light;"></path>
                                    </g>
                                </g>
                                <g id="Group-60" mask="url(#mask-2)" fill="#65626C">
                                    <g transform="translate(33.043691, 22.349476) rotate(-7.000000) translate(-33.043691, -22.349476) translate(28.043691, 19.349476)">
                                        <path d="M0.34914495,1.65060487 C0.358060905,1.64855704 0.376342027,1.64440253 0.403090726,1.63839019 C0.447886988,1.62832128 0.50052076,1.61662744 0.560593236,1.60344415 C0.732475891,1.5657234 0.92933539,1.52366872 1.14797957,1.47836401 C1.7729335,1.34886888 2.4468091,1.21935697 3.14401794,1.09849976 C4.00203781,0.949766877 4.83540732,0.82471711 5.62118638,0.731053558 C7.22974703,0.539315816 8.54085425,0.490471508 9.44032718,0.617613627 C9.57054536,0.636020202 9.69094393,0.544769839 9.7092449,0.413800236 C9.72754587,0.282830632 9.63681904,0.161737313 9.50660085,0.143330738 C8.55694452,0.00909510407 7.21121267,0.059229326 5.56514248,0.255438143 C4.77038345,0.350172093 3.92891086,0.476437753 3.0631381,0.626514559 C2.36051906,0.748309592 1.68164463,0.878782222 1.05189224,1.00927163 C0.831389207,1.05496151 0.632724614,1.09740181 0.45907703,1.13550988 C0.398213923,1.14886668 0.344799599,1.16073394 0.299231594,1.17097632 C0.271761733,1.17715075 0.253100807,1.18139158 0.243147567,1.18367682 C0.114948708,1.21311609 0.0347513213,1.34150674 0.0640216903,1.47044536 C0.0932920593,1.59938398 0.220946091,1.68004415 0.34914495,1.65060487 L0.34914495,1.65060487 Z" id="Path-2182" style="mix-blend-mode: soft-light;"></path>
                                        <path d="M0.521334124,4.19222605 C0.536713137,4.19205072 0.566900897,4.19178435 0.610918338,4.19151686 C1.00404956,4.18912792 1.51475729,4.19182969 2.09963397,4.20359738 C2.96739583,4.22105671 3.8227779,4.25551063 4.62210537,4.31087958 C6.45238415,4.43766194 7.77545847,4.66085274 8.31735631,4.97915761 C8.43090753,5.04585636 8.57671879,5.00734374 8.64303486,4.89313728 C8.70935094,4.77893082 8.67105929,4.63227817 8.55750806,4.56557942 C7.92679856,4.19510755 6.56499962,3.96538425 4.65482444,3.83306752 C3.84698024,3.77710862 2.98411772,3.74235339 2.10915814,3.72474925 C1.51984339,3.71289226 1.00507494,3.71016901 0.608041284,3.71258167 C0.563169796,3.71285434 0.532142711,3.71312812 0.515936523,3.71331289 C0.384447054,3.71481199 0.279062073,3.82323562 0.280552579,3.95548384 C0.282043086,4.08773206 0.389844655,4.19372516 0.521334124,4.19222605 L0.521334124,4.19222605 Z" id="Path-2183" style="mix-blend-mode: soft-light;"></path>
                                    </g>
                                </g>
                                <path d="M50.9321163,11.8579883 C50.9321163,11.8579883 48.9591442,13.2777432 48.9591443,15.8267021 C48.9591443,18.375661 49.3318233,19.5378679 48.1036233,20.4714057 C46.8754233,21.4049434 46.1640517,21.6336124 46.1640518,23.9927994 C46.1640518,26.3519863 45.5692889,28.6433967 45.5692889,29.7667063 C45.5692889,30.8900159 42.8960789,33.3269977 46.9140975,33.3269974 C50.9321162,33.3269972 59.0126877,12.5681606 59.0126877,12.5681606 L54.0559398,12.0035589" fill="#6B6565" style="mix-blend-mode: soft-light;" mask="url(#mask-2)"></path>
                                <path d="M37.8268119,14.6849152 C37.8268119,14.6849152 40.8292858,20.8527151 39.9132053,25.5626837 C38.9971248,30.2726523 35.6925207,30.7383753 33.6075175,32.5827954 C31.5225144,34.4272156 29.2866195,37.8435649 26.0725812,38.8923239 C22.8585428,39.941083 8.18563223,39.2436512 7.05177619,36.626843 C5.91792015,34.0100348 9.28842575,38.6760741 19.4159976,35.9996284 C29.5435694,33.3231827 35.0171239,29.4738511 36.0550461,26.3697548 C37.0929683,23.2656584 37.4710838,17.0212972 37.4710838,17.0212972" id="Path-2192" fill="#534545" style="mix-blend-mode: soft-light;" mask="url(#mask-2)"></path>
                                <path d="M20.1988919,30.1256239 C20.1988919,30.1256239 21.7430673,30.613149 22.5215467,29.7646085 C23.300026,28.9160681 22.5744679,31.4133483 21.3866799,31.4133483 C20.1988919,31.4133482 20.1065993,30.638348 19.7985312,30.2014783" id="Path-2192" fill="#5D5252" style="mix-blend-mode: soft-light;" mask="url(#mask-2)"></path>
                                <path d="M14.4493477,23.3855494 C14.4493477,23.3855494 8.25646125,22.9000966 5.50977364,24.6898151 C2.76308603,26.4795336 4.26006886,25.5382814 6.01241366,25.1140482 C7.76475847,24.689815 8.92387455,23.714605 13.8917834,23.714605" id="Path-2193" fill="#999696" style="mix-blend-mode: soft-light;" mask="url(#mask-2)"></path>
                                <path d="M33.946258,17.750985 C33.946258,17.750985 27.7533715,17.2655323 25.0066839,19.0552508 C22.2599963,20.8449693 23.7569791,19.9037171 25.5093239,19.4794839 C27.2616688,19.0552507 28.4207848,18.0800407 33.3886937,18.0800407" id="Path-2193-Copy" fill="#999696" style="mix-blend-mode: soft-light;" mask="url(#mask-2)" transform="translate(28.719299, 18.899641) scale(-1, 1) rotate(36.000000) translate(-28.719299, -18.899641) "></path>
                                <path d="M14.2656168,60.2208387 C14.2656168,60.2208387 17.4124883,57.9208114 17.4124885,55.4472978 C17.4124888,52.9737843 29.9077739,53.54937 31.8146607,53.5493701 C33.7215474,53.5493701 35.328672,56.5438742 36.5180883,58.3823565 C37.7075046,60.2208387 40.8057089,60.6723224 40.8057089,60.6723224 L15.6273956,62.1045159" id="Path-2207" fill="#594C4C" style="mix-blend-mode: soft-light;" mask="url(#mask-2)"></path>
                                <path d="M5.85357114,51.7072399 C5.85357114,51.7072399 34.5994006,48.5040071 39.0714481,49.0409419 C43.5434957,49.5778766 46.0191242,58.3084866 46.0191242,58.3084866 L40.6194501,64.9402368 L4.84601329,61.9045894 L4.84601329,52.6374122" id="Path-2208" fill="#5A4B4B" style="mix-blend-mode: soft-light;" mask="url(#mask-2)"></path>
                                <path d="M5.18039458,34.7155274 C5.18039458,34.7155274 -1.28687829,27.2768581 2.80279931,16.1962505 C6.89247691,5.11564297 24.5752746,5.33136395 26.0517504,5.33136368 C27.5282263,5.3313634 30.1701579,6.72642722 31.1395143,7.37418085 C32.1088707,8.02193449 30.3462022,3.9790583 20.4976135,3.97905828 C10.6490249,3.97905825 3.95817659,10.5685241 2.29451411,13.3918368 C0.630851622,16.2151496 -5.71446179,23.8603097 -2.67428258,28.6144378 C0.365896618,33.368566 3.5782997,35.1510061 3.5782997,35.1510061" id="Path-2211" fill="#AAA4A4" style="mix-blend-mode: soft-light;" mask="url(#mask-2)"></path>
                            </g>
                            <path d="M17.1340341,8.66232522 C18.0018268,8.66232524 13.9070812,7.16252985 13.2248592,7.5187087 C12.5426372,7.87488754 13.2248592,9.85092294 13.2248592,9.85092294 C13.2248592,9.85092294 16.2662414,8.6623252 17.1340341,8.66232522 Z" id="Path-2170" fill="#FF668E"></path>
                            <path d="M29.5781803,5.46329341 L32.8932527,5.46329341 C34.9748924,5.46329341 32.0990167,2.9293496 32.0990167,2.9293496 C32.0990167,2.9293496 30.1593787,2.20909498 29.5781803,5.46329336" id="Path-2171" fill="#FF668E"></path>
                            <g id="Group-57" transform="translate(24.439505, 23.589093) scale(-1, 1) rotate(35.000000) translate(-24.439505, -23.589093) translate(4.939505, 9.589093)">
                                <g id="Group-56" transform="translate(23.609481, 7.728470) rotate(18.000000) translate(-23.609481, -7.728470) translate(18.609481, 3.728470)">
                                    <g id="Path-2173" transform="translate(0.000000, -0.000000)">
                                        <mask id="mask-4" fill="white">
                                            <use xlink:href="#path-3"></use>
                                        </mask>
                                        <use id="Mask" fill="#FFFFFF" xlink:href="#path-3"></use>
                                        <path d="M3.7980565,7.67626217 C3.7980565,7.67626217 2.55661623,6.09319283 4.41978511,4.2000765 C6.282954,2.30696017 9.09174159,3.47690579 9.09174203,4.07952081 C9.09174247,4.68213584 7.0361213,6.64990548 4.81242043,7.62741915" fill="#0F161C" mask="url(#mask-4)" transform="translate(6.242309, 5.421132) rotate(1.000000) translate(-6.242309, -5.421132) "></path>
                                    </g>
                                    <ellipse id="Oval-336" fill="#FFFFFF" cx="5.96492951" cy="5.02152673" rx="0.566959721" ry="0.551019567"></ellipse>
                                    <path d="M7.20758436,4.7386788 C7.38291491,4.7386788 7.52504841,4.6005414 7.52504841,4.43014029 C7.52504841,4.25973918 7.38291491,4.12160179 7.20758436,4.12160179 C7.0322538,4.12160179 6.8901203,4.25973918 6.8901203,4.43014029 C6.8901203,4.6005414 7.0322538,4.7386788 7.20758436,4.7386788 Z" id="Oval-336-Copy-2" fill="#FFFFFF"></path>
                                </g>
                                <g id="Group-55" transform="translate(9.757837, 12.485557) scale(-1, 1) rotate(60.000000) translate(-9.757837, -12.485557) translate(4.757837, 8.485557)">
                                    <g id="Path-2173-Copy" transform="translate(-0.000000, 0.000000)">
                                        <mask id="mask-6" fill="white">
                                            <use xlink:href="#path-5"></use>
                                        </mask>
                                        <use id="Mask" fill="#FFFFFF" xlink:href="#path-5"></use>
                                        <path d="M3.92120517,7.64162941 C3.92120517,7.64162941 2.68174259,6.061082 4.54194333,4.17098152 C6.40214407,2.28088104 9.20645709,3.44896287 9.20645752,4.05061788 C9.20645796,4.6522729 7.15411153,6.61690777 4.93395316,7.5928642" fill="#0F161C" mask="url(#mask-6)"></path>
                                    </g>
                                    <ellipse id="Oval-336-Copy" fill="#FFFFFF" cx="5.30645332" cy="5.63315471" rx="0.566959721" ry="0.551019567"></ellipse>
                                    <ellipse id="Oval-336-Copy-3" fill="#FFFFFF" cx="4.61358474" cy="6.90450719" rx="0.317464053" ry="0.308538505"></ellipse>
                                </g>
                                <path d="M16.8391185,21.6329133 C16.8391185,21.6329133 17.6616986,22.578765 18.5119884,22.578765 C19.3622782,22.5787649 19.598591,20.9958217 19.598591,20.9958217" id="Path-2179" fill="#FFD066" transform="translate(18.218855, 21.787293) rotate(-1.000000) translate(-18.218855, -21.787293) "></path>
                                <path d="M16.6013811,21.8715334 C16.7178889,22.0008746 16.9139062,22.1868303 17.1675461,22.3732255 C17.6155023,22.7024201 18.0738436,22.9007759 18.5312181,22.8927463 C19.0637702,22.883397 19.4257034,22.4930213 19.6662309,21.8918646 C19.7434618,21.6988394 19.8031576,21.4948904 19.8481644,21.2913264 C19.8752226,21.1689431 19.8916377,21.0723538 19.8993668,21.013616 C19.9223706,20.838798 19.8001141,20.6783243 19.6262991,20.6551877 C19.4524842,20.6320512 19.2929311,20.7550132 19.2699273,20.9298311 C19.2687885,20.9384852 19.2658717,20.9579971 19.2609839,20.986758 C19.2525325,21.0364874 19.2417203,21.0923493 19.2283752,21.1527087 C19.1903742,21.3245856 19.1401786,21.4960775 19.0772071,21.6534639 C18.9216704,22.0422008 18.7284602,22.2505944 18.5201371,22.2542517 C18.2285591,22.2593706 17.8886849,22.1122836 17.5421294,21.8576065 C17.4171746,21.7657796 17.3007511,21.6668447 17.1966513,21.5680884 C17.1351128,21.5097087 17.0923986,21.4655136 17.0719185,21.4427775 C16.9542001,21.3120924 16.7534371,21.3021315 16.6235018,21.4205292 C16.4935665,21.5389269 16.4836627,21.7408484 16.6013811,21.8715334 L16.6013811,21.8715334 Z" id="Path-2179" fill="#28203A"></path>
                                <g id="Group-58" transform="translate(17.293008, 16.338836) rotate(-7.000000) translate(-17.293008, -16.338836) translate(14.293008, 14.838836)">
                                    <path d="M0.177311992,1.12224166 C0.177311992,1.12224166 1.22920936,2.60790633 2.72916654,2.60790643 C4.22912371,2.60790654 5.29990331,0.394246145 5.29990331,0.394246145" id="Path-2176" fill="#FF668E" transform="translate(2.738608, 1.501076) rotate(-2.000000) translate(-2.738608, -1.501076) "></path>
                                    <path d="M0.0588679581,1.23250482 C0.0978120398,1.28750814 0.167899412,1.37734679 0.267095796,1.4905457 C0.430399225,1.67690099 0.618454708,1.86292554 0.82964233,2.03705184 C1.44462261,2.54410921 2.12945853,2.85225216 2.86931858,2.85225221 C3.64126664,2.85225226 4.3384469,2.3874969 4.96178308,1.62965074 C5.1719495,1.37413242 5.35904093,1.10179816 5.52152169,0.829474769 C5.61948032,0.665292724 5.68821584,0.536118259 5.72552803,0.458981462 C5.80223159,0.300409489 5.73660165,0.109322176 5.57893946,0.0321760025 C5.42127726,-0.044970171 5.23128628,0.0210384816 5.15458272,0.179610455 C5.14795669,0.193308681 5.13338696,0.222085496 5.11121579,0.263751705 C5.07333396,0.334942917 5.02850677,0.414721077 4.97709678,0.500885988 C4.83002152,0.747389225 4.66068325,0.993881601 4.47255884,1.22260147 C3.95792113,1.84829307 3.40983311,2.21366033 2.86931862,2.21366029 C2.29671618,2.21366025 1.74336471,1.96467893 1.23217253,1.54319589 C1.04919976,1.39233302 0.885251039,1.23015488 0.743423924,1.06830749 C0.694134132,1.01205997 0.651327865,0.960143765 0.61534938,0.914026207 C0.594696125,0.887552672 0.581490528,0.869747825 0.576060147,0.862078137 C0.474356517,0.718435332 0.27613202,0.684912668 0.133313341,0.787203172 C-0.00950533839,0.889493676 -0.0428356716,1.08886201 0.0588679581,1.23250482 L0.0588679581,1.23250482 Z" id="Path-2176" fill="#28203A"></path>
                                </g>
                                <path d="M16.7686208,17.7305625 C16.7745682,17.7401287 16.7885297,17.7646491 16.8079011,17.8024889 C16.8419363,17.8689729 16.876357,17.945708 16.9086212,18.0309902 C17.0990498,18.534339 17.123148,19.0564324 16.883369,19.5362744 C16.6385636,20.0261751 16.1268247,20.4517001 15.2815709,20.7835382 C15.118242,20.8476595 15.0375201,21.0328083 15.1012735,21.1970796 C15.1650269,21.3613509 15.3491134,21.4425386 15.5124422,21.3784173 C16.4952021,20.9925958 17.1300283,20.4647203 17.4506775,19.8230419 C17.7823801,19.1592438 17.7500831,18.4595201 17.5020418,17.8038869 C17.4312534,17.616776 17.3591448,17.47592 17.3069663,17.3919929 C17.2140093,17.242475 17.01814,17.1970583 16.86948,17.2905517 C16.72082,17.3840452 16.6756638,17.5810447 16.7686208,17.7305625 L16.7686208,17.7305625 Z" id="Path-2177" fill="#FFFFFF"></path>
                                <path d="M17.2860631,19.4774012 C17.3739835,19.5979109 17.4860615,19.7168646 17.6248267,19.8268962 C18.0296598,20.1479018 18.1706496,20.4439577 19.4239201,20.3575567 C20.6771907,20.2711558 20.43502,19.8672772 21.3357247,19.4658737 C21.4960238,19.3944356 21.5683921,19.2058257 21.4973639,19.0446016 C21.4263357,18.8833775 21.2388078,18.8105916 21.0785088,18.8820297 C20.2036124,19.2719316 20.3332299,19.6055711 19.358088,19.740598 C18.3829461,19.875625 18.2941171,19.5444154 18.0179214,19.3254107 C17.9258371,19.252394 17.8531283,19.1752246 17.7979629,19.0996113 C17.7679235,19.0584372 17.7518952,19.0306919 17.7482259,19.0227803 C17.6741078,18.8629694 17.4852141,18.7938484 17.3263201,18.8683943 C17.1674261,18.9429401 17.0987017,19.1329238 17.1728199,19.2927347 C17.1934064,19.3371226 17.230251,19.4009014 17.2860631,19.4774012 Z" id="Path-2178" fill="#FFFFFF"></path>
                                <path d="M9.19456269,19.5687892 C9.17433629,19.5707504 9.13591744,19.5746778 9.08051574,19.5806528 C8.98866369,19.5905588 8.88225305,19.6026744 8.7624927,19.6170808 C8.42080734,19.6581835 8.04027161,19.7094245 7.63054342,19.7714612 C6.45941866,19.9487804 5.28805592,20.1771616 4.19319992,20.4621664 C2.46877918,20.9110548 1.09737434,21.4579103 0.202426756,22.1208957 C0.0965492744,22.1993308 0.0739379543,22.3492408 0.151922959,22.4557293 C0.229907963,22.5622177 0.378957957,22.5849595 0.484835439,22.5065245 C1.3199628,21.8878545 2.64196965,21.3606966 4.31251695,20.9258322 C5.38965215,20.6454404 6.54542284,20.4200991 7.70143151,20.2450686 C8.10620002,20.1837829 8.48198266,20.1331819 8.81904455,20.0926354 C8.93684573,20.0784646 9.04133157,20.0665682 9.13128682,20.0568667 C9.18496949,20.0510772 9.22169767,20.0473226 9.24025681,20.0455231 C9.37114794,20.0328322 9.46702718,19.9158237 9.4544091,19.7841773 C9.44179101,19.6525309 9.32545382,19.5560984 9.19456269,19.5687892 L9.19456269,19.5687892 Z" id="Path-2180" fill="#FFFFFF"></path>
                                <path d="M9.75603021,21.8975276 C9.73971252,21.9034776 9.70875839,21.9149309 9.66414112,21.9316954 C9.59019584,21.9594797 9.50453811,21.9921897 9.40814073,22.0296337 C9.13314692,22.1364505 8.82690125,22.2598914 8.49717718,22.3984295 C7.55486405,22.7943552 6.61240657,23.2322078 5.73166066,23.7000773 C3.80607603,24.7229856 2.44726305,25.7398811 1.88886052,26.7329504 C1.82412765,26.8480721 1.8644404,26.9941758 1.97890157,27.0592822 C2.09336273,27.1243886 2.23862819,27.0838432 2.30336106,26.9687215 C2.80284667,26.0804307 4.10547038,25.1055856 5.95405905,24.1235791 C6.8208293,23.6631338 7.75071056,23.2311239 8.68073618,22.8403609 C9.00633066,22.703558 9.30859508,22.5817218 9.57970007,22.4764155 C9.67443727,22.4396165 9.75846024,22.4075307 9.83079142,22.3803529 C9.87394004,22.3641402 9.90344684,22.3532224 9.91833479,22.3477937 C10.041959,22.3027159 10.1058431,22.1653776 10.0610239,22.0410401 C10.0162048,21.9167025 9.87965442,21.8524498 9.75603021,21.8975276 L9.75603021,21.8975276 Z" id="Path-2181" fill="#FFFFFF"></path>
                                <path d="M27.966592,13.956417 C27.9786864,13.9516166 28.0028151,13.9421323 28.0384288,13.9282766 C28.0980852,13.905067 28.1681295,13.8781103 28.2480121,13.8477191 C28.4765881,13.7607575 28.7379353,13.6638029 29.0276539,13.5593557 C29.8557124,13.2608303 30.7446099,12.9622747 31.6590515,12.6837002 C32.6650082,12.3772465 33.6407119,12.1139816 34.5627672,11.9070208 C35.9831962,11.5881971 37.2234772,11.4148305 38.2292998,11.4148305 C38.3607977,11.4148305 38.4673978,11.3076153 38.4673978,11.1753585 C38.4673978,11.0431018 38.3607977,10.9358866 38.2292998,10.9358866 C37.1831437,10.9358866 35.9106379,11.1137575 34.4590468,11.4395758 C33.5245261,11.6493345 32.537622,11.9156215 31.5210092,12.2253214 C30.5984269,12.506376 29.7021113,12.8074231 28.8669746,13.1085002 C28.5745749,13.213914 28.3106359,13.3118302 28.0795337,13.3997527 C27.9985289,13.4305709 27.9273788,13.4579532 27.8666307,13.4815876 C27.8300017,13.4958383 27.8048717,13.5057161 27.7917882,13.5109091 C27.6694704,13.5594584 27.6094434,13.6985457 27.6577142,13.8215693 C27.7059849,13.9445929 27.8442742,14.0049663 27.966592,13.956417 L27.966592,13.956417 Z" id="Path-2182" fill="#FFFFFF"></path>
                                <path d="M28.3903042,16.3816198 C28.4182043,16.3776726 28.4725448,16.3701957 28.5512672,16.3596931 C28.6828123,16.3421434 28.8346271,16.3225756 29.0046519,16.301494 C29.4907339,16.2412241 30.0249863,16.1809412 30.5909103,16.1246775 C31.7125649,16.0131637 32.8151546,15.9316061 33.8463614,15.8926743 C35.9555584,15.8130446 37.5611148,15.9198962 38.4326878,16.2526861 C38.5556247,16.2996267 38.6931194,16.2374444 38.7397907,16.1137981 C38.7864619,15.9901517 38.7246364,15.8518637 38.6016995,15.8049231 C37.6511292,15.4419699 36.0000016,15.3320854 33.828499,15.4140675 C32.7866307,15.4534017 31.6746907,15.535651 30.5440673,15.6480565 C29.974138,15.7047183 29.4361122,15.765427 28.9463875,15.8261486 C28.7748799,15.847414 28.6216165,15.8671685 28.4886497,15.8849079 C28.4086648,15.8955789 28.3530884,15.9032259 28.323974,15.9073449 C28.193758,15.9257671 28.1030456,16.0468714 28.1213622,16.1778388 C28.1396788,16.3088062 28.2600882,16.400042 28.3903042,16.3816198 L28.3903042,16.3816198 Z" id="Path-2183" fill="#FFFFFF"></path>
                                <path d="M10.0256666,5.62068903 C10.0256666,5.62068903 8.59236331,4.80407477 7.44451549,5.70199694 C6.29666768,6.59991912 6.20151586,7.73999745 6.20151586,7.73999745 L10.0256666,5.62068903 Z" id="Path-2184" fill="#D8D8D8" style="mix-blend-mode: soft-light;" transform="translate(8.113591, 6.510345) rotate(15.000000) translate(-8.113591, -6.510345) "></path>
                                <path d="M21.5675691,1.43148732 C21.5675691,1.43148732 20.1342658,0.614873061 18.9864179,1.51279523 C17.8385701,2.41071741 17.7434183,3.55079574 17.7434183,3.55079574 L21.5675691,1.43148732 Z" id="Path-2184-Copy" fill="#D8D8D8" style="mix-blend-mode: soft-light;" transform="translate(19.655494, 2.321143) scale(-1, 1) rotate(43.000000) translate(-19.655494, -2.321143) "></path>
                            </g>
                            <g id="Path-2212" transform="translate(46.000000, 9.000000)">
                                <mask id="mask-8" fill="white">
                                    <use xlink:href="#path-7"></use>
                                </mask>
                                <use id="Mask" fill="#8973C3" xlink:href="#path-7"></use>
                                <path d="M1.23222281,3.17600788 C1.23222281,3.17600788 2.06790604,0.866110493 3.0394419,1.05196244 C4.01097775,1.23781439 6.50445078,2.37195027 6.77891957,2.37195026 C7.05338837,2.37195025 5.21234867,-0.0652630175 3.22228574,0.0373376613 C1.23222281,0.13993834 0.824259088,1.23488769 0.639220149,2.07853833 C0.45418121,2.92218897 0.424018897,5.29940288 0.996940424,3.54291506" fill="#A99A9A" style="mix-blend-mode: soft-light;" mask="url(#mask-8)"></path>
                            </g>
                            <path d="M47.618458,16.8188594 C47.618458,16.8188594 47.9898128,15.8067888 48.7878441,15.8067887 C49.5858755,15.8067887 49.7500316,16.747488 50.1852393,16.747488 C50.6204469,16.747488 52.3108671,17.7647586 51.9419683,19.3663915 C51.5730695,20.9680243 50.5791361,21.0172955 50.1927362,21.0172952 C49.8063363,21.0172949 45.8972746,20.8376316 47.4651594,17.0227036" id="Path-2188" fill="#746666" style="mix-blend-mode: soft-light;"></path>
                            <path d="M47.3282437,17.5700736 C47.3282437,17.5700736 47.5852778,17.1895129 47.9852642,17.1895129 C48.3852505,17.1895129 49.4198609,17.818736 49.070529,18.6783192 C48.7211971,19.5379024 47.354577,19.4201706 47.354577,17.76031" id="Path-2189" fill="#8973C3"></path>
                            <ellipse id="Oval-338" fill="#D8D8D8" style="mix-blend-mode: soft-light;" transform="translate(45.145146, 11.343807) rotate(-23.000000) translate(-45.145146, -11.343807) " cx="45.1451457" cy="11.343807" rx="0.873026145" ry="1.11753585"></ellipse>
                            <ellipse id="Oval-338-Copy-3" fill="#D8D8D8" style="mix-blend-mode: soft-light;" transform="translate(51.415061, 7.592080) rotate(-23.000000) translate(-51.415061, -7.592080) " cx="51.4150608" cy="7.59207953" rx="0.793660131" ry="1.03771186"></ellipse>
                            <ellipse id="Oval-338-Copy" fill="#D8D8D8" style="mix-blend-mode: soft-light;" transform="translate(45.780074, 8.230671) rotate(-23.000000) translate(-45.780074, -8.230671) " cx="45.7800738" cy="8.23067145" rx="1.03175817" ry="1.35700782"></ellipse>
                            <ellipse id="Oval-338-Copy-2" fill="#D8D8D8" style="mix-blend-mode: soft-light;" transform="translate(48.795982, 6.953488) rotate(-23.000000) translate(-48.795982, -6.953488) " cx="48.7959823" cy="6.95348761" rx="1.03175817" ry="1.35700782"></ellipse>
                        </g>
                        <use id="Rectangle-186" stroke="#E6FCFA" mask="url(#mask-10)" stroke-width="2" fill="#CAF1ED" xlink:href="#path-9"></use>
                        <g id="Path-2209" transform="translate(7.000000, 36.000000)">
                            <mask id="mask-12" fill="white">
                                <use xlink:href="#path-11"></use>
                            </mask>
                            <use id="Mask" fill="#604E99" transform="translate(4.657197, 6.734869) rotate(-10.000000) translate(-4.657197, -6.734869) " xlink:href="#path-11"></use>
                            <path d="M6.3626993,2.06736178 C6.3626993,2.06736178 7.27702069,4.45655258 6.0658549,5.37250043 C4.85468912,6.28844828 6.21407377,6.07049154 6.63839861,6.80528292 C7.06272344,7.5400743 8.05959198,7.88713849 7.06272343,8.89559606 C6.06585489,9.90405364 7.4581771,9.9678957 6.762016,11.5163661 C6.06585489,13.0648364 6.84253005,15.2492862 9.33012662,13.5601194 C11.8177232,11.8709526 9.03307891,1.23131785 9.03307891,1.23131785" fill="#5C4E4E" style="mix-blend-mode: soft-light;" mask="url(#mask-12)"></path>
                            <path d="M6.32216,1.70347451 C6.32216,1.70347451 4.96120975,1.03767681 4.25910864,2.01815082 C3.55700753,2.99862484 2.1394751,3.38151197 2.32099186,7.35063091 C2.50250862,11.3197499 3.47489954,11.7420601 3.47489954,11.7420601 C3.47489954,11.7420601 -0.404028404,12.3993492 0.345011814,5.53376165 C1.09405203,-1.33182595 5.33232639,-1.49320576 5.33232645,-1.4932057 C5.33232651,-1.49320564 6.5199849,0.201281562 6.5199849,0.201281562" id="Path-2210" fill="#D8D8D8" style="mix-blend-mode: soft-light;" mask="url(#mask-12)"></path>
                        </g>
                        <g id="Path-2206" transform="translate(14.331056, 46.597458)">
                            <mask id="mask-14" fill="white">
                                <use xlink:href="#path-13"></use>
                            </mask>
                            <use id="Mask" fill="#F39797" xlink:href="#path-13"></use>
                            <path d="M1.94634602,1.83966717 C1.94634602,1.83966717 2.29935375,4.06243911 4.58846647,3.67331756 C6.8775792,3.28419601 36.6998344,1.46494951 36.6998344,1.46494951 C36.6998344,1.46494951 37.9487706,0.96190687 38.7323463,-0.271584194 C39.5159219,-1.50507526 41.1246318,2.18906889 40.65033,3.48715905 C40.1760282,4.78524922 39.3827887,8.05360762 39.3827887,8.05360762 C39.3827887,8.05360762 40.3149598,4.87821913 37.363566,4.18268914 C34.4121722,3.48715915 4.97143501,4.83478963 3.61956816,5.25075449 C2.26770132,5.66671935 1.09704987,7.05930786 1.37418862,9.60943881 C1.65132736,12.1595698 -3.34176084,5.56894805 -2.40234021,2.64868193 C-1.46291957,-0.271584201 1.21109476,-0.61727596 1.21109476,-0.61727596" fill="#C0AEAE" style="mix-blend-mode: soft-light;" mask="url(#mask-14)"></path>
                            <path d="M3.47760748,13.6850314 C3.47760748,13.6850314 5.04003282,13.9500893 5.04003279,12.9294536 C5.04003277,11.908818 3.59725847,5.54533411 4.89098479,5.54533431 C6.18471112,5.54533452 24.8977135,5.33966998 35.1729998,4.46507234 C37.2569855,4.46507234 36.1536313,6.60853724 35.8383181,9.14471804 C35.523005,11.6808988 35.0680839,13.3510982 36.2751961,13.3510979 C37.4823082,13.3510977 38.2366355,13.4731245 38.2366355,13.4731245 L37.9213236,14.7789595 L3.22861729,15.0517002" id="Path-2207" fill="#625454" style="mix-blend-mode: soft-light;" mask="url(#mask-14)"></path>
                            <path d="M3.33031616,1.59731026 C3.33031616,1.59731026 4.27175366,1.84437115 7.38308291,1.84437117 C10.4944122,1.84437118 34.382375,1.22525701 35.2547561,0.714567022 C36.1271372,0.203877038 36.6234821,-0.847715525 36.6234821,-0.847715525 L3.61085912,1.13949228" id="Path-2208" fill="#E3E2E2" style="mix-blend-mode: soft-light;" mask="url(#mask-14)"></path>
                        </g>
                        <text id="提问" font-family="STHeitiSC-Medium, Heiti SC" font-size="12.1904762" font-weight="bold" fill="#323226">
                            <tspan x="20" y="45">提问</tspan>
                        </text>
                    </g>
                </g>
            </g>
        </g>
    </g>
</svg>