<?xml version="1.0" encoding="UTF-8" standalone="no"?>
<svg width="62px" height="61px" viewBox="0 0 62 61" version="1.1" xmlns="http://www.w3.org/2000/svg" xmlns:xlink="http://www.w3.org/1999/xlink">
    <!-- Generator: Sketch 3.8.1 (29687) - http://www.bohemiancoding.com/sketch -->
    <title>Group 63</title>
    <desc>Created with Sketch.</desc>
    <defs>
        <path d="M9.06248677,0.0205407604 C10.9218925,0.0205407331 12.1804454,0.958218652 12.1804454,0.958218652 C12.1804454,0.958218652 10.1903502,0.879913607 10.1903502,2.67150667 C10.1903502,4.46309974 12.1804455,4.52773451 12.1804455,4.52773451 C12.1804455,4.52773451 11.6157174,5.95599344 10.1903499,5.95599326 C8.76498251,5.95599307 7.38424082,7.34838994 6.6787291,9.66444577 C5.97321738,11.9805016 5.35908698,15.0492414 8.40870553,18.5347557 C11.4583241,22.0202699 9.42606614,25.5469489 8.40870553,25.5469487 C7.39134492,25.5469485 -1.63372925,22.1437093 0.447395031,12.8747861 C2.52851931,3.60586288 6.67872941,3.48722033 6.67872941,3.48722033 C6.67872941,3.48722033 7.20308101,0.0205407878 9.06248677,0.0205407604 Z" id="path-1"></path>
        <path d="M0.0630148393,0.0571867224 L0.0630148393,5.78155 C0.0630148393,5.78155 5.58443698,6.45350537 12.0315029,6.45350533 C18.4785689,6.4535053 18.6241998,6.61263626 23.8966672,6.61263629 C24.8692778,2.57655306 24.6506751,0.247397946 24.6506751,0.247397946" id="path-3"></path>
        <path d="M13.0053538,3.22319878 L5.2481817,0.0313200804 L0.0103538277,9.01631702 L8.25842761,10.7302493 L8.25009154,16.4465036 L32.6293785,16.4465036 L32.6293785,12.129309 L34.6423279,13.1850995 L41.1768497,7.05670975 C41.1768497,7.05670975 36.669277,3.01469446 32.9625061,3.01469455 C29.2557352,3.01469465 31.5132719,2.58199121 31.5132719,2.58199121" id="path-5"></path>
        <path d="M5.01619583,0.0346820581 C5.01619583,0.0346820581 4.13100083,8.35268253 2.18068828,9.68569801 C0.230375721,11.0187135 0.0341532654,18.1428868 0.0341532654,18.1428868 C0.0341532654,18.1428868 7.7745938,19.6986058 15.5213031,19.6986042 C23.2680123,19.6986027 28.7315209,18.3651321 28.7315209,18.3651321 C28.7315209,18.3651321 27.1441886,10.8411909 26.3473875,10.2634447 C25.5505865,9.68569847 26.7097407,0.698223632 26.7097407,0.698223632 L15.7506597,3.96599927 L9.31220288,0.960221007" id="path-7"></path>
        <path d="M0.00980325475,1.42069958 L0.28928079,6.08294015 C0.28928079,6.08294015 1.48561966,6.49984463 2.32007126,6.01011672 C3.15452285,5.52038881 2.88120829,4.87848051 2.88120836,4.23223585 C2.88120843,3.58599118 3.32872083,4.75713228 3.32872083,4.75713228 C3.32872083,4.75713228 3.65329544,2.89332922 3.65329569,2.1570144 C3.65329594,1.42069958 3.18004352,0.0233660388 2.50579648,0.0233659871 C1.83154943,0.0233659354 0.331535974,0.0839218621 0.331535974,0.0839218621" id="path-9"></path>
        <polyline id="path-11" points="2.02537729 0.428145432 0.0312051574 3.13254455 9.22773795 2.53179172 20.2183773 4.54576334 20.3934347 0.037757227"></polyline>
        <path d="M0.0837652724,2.18704907 C0.0837652724,2.18704907 0.477856872,-0.222037559 5.53806748,0.0571737487 C10.5982781,0.336385057 10.8277206,1.08721633 10.8277207,1.63713273 C10.8277208,2.18704912 10.7571116,3.12669026 10.7571116,3.12669026 L0.30554022,3.20753498" id="path-13"></path>
        <path d="M0,2.18704907 C0,2.18704907 0.3940916,-0.222037559 5.45430221,0.0571737487 C10.5145128,0.336385057 10.7439553,1.08721633 10.7439555,1.63713273 C10.7439556,2.18704912 10.6733463,3.12669026 10.6733463,3.12669026 L0.221774947,3.20753498" id="path-15"></path>
        <path d="M13.9859527,2.44490437 L3.25739004,17.0181354 C3.25739004,17.0181354 -2.93623827,24.2996962 1.88598965,28.7630626 C6.70821757,33.2264289 20.8355993,37.0689764 33.1299905,32.9160192 C45.4243817,28.763062 37.2620498,20.6450292 35.1960195,13.5644178 C33.1299892,6.48380645 29.332257,0.19885242 25.9537831,0.198852562 C22.5753092,0.198852703 17.2550684,-0.638672443 14.3293419,2.44490441" id="path-17"></path>
        <path d="M5.97056885,9.02195118 L8.87983467,2.96516517 C8.87983467,2.96516517 14.9021647,1.41348633 16.3398009,1.41348632 C17.7774371,1.41348632 23.7236878,2.28843955 23.7236878,2.28843955 C23.7236878,2.28843955 25.1561298,3.9230677 25.9226943,5.47423716 C26.6892588,7.02540662 26.2511465,7.51358671 29.087592,7.5135865 C31.9240375,7.51358629 34.6214409,10.5828022 34.6214409,10.5828022 L28.7544173,11.5540665 L27.3209788,10.2296614 C27.3209788,10.2296614 22.248852,11.5250206 19.2245702,10.8773409 C16.2002883,10.2296611 11.4125406,11.2350684 9.10865034,11.2350678 C6.80476009,11.2350672 6.53139939,13.9175103 6.53139939,13.9175103 C6.53139939,13.9175103 -1.34044424,14.1213432 0.863755926,11.5494802 C3.06795609,8.97761722 5.47101174,9.02195082 5.47101174,9.02195082" id="path-19"></path>
        <path d="M12.9003534,0.13525967 C12.9003534,0.13525967 17.0428733,5.1526542 14.069323,8.65510166 C11.0957727,12.1575491 6.00260369,11.5657935 4.71687363,12.4445647 C3.43114357,13.323336 3.46566203,13.6569706 2.45338503,13.6569706 C1.44110804,13.6569706 0.015722121,13.0283253 0.0157222062,11.1006754 C0.0157222914,9.17302551 3.46566216,10.2442554 3.46566216,10.2442554 L2.7655678,8.65510141 C2.7655678,8.65510141 4.90628095,9.85085688 5.66930607,9.85085707 C6.43233119,9.85085727 9.537802,7.59772716 8.28244489,5.91038411 C10.1403566,3.64492739 12.9003534,0.13525967 12.9003534,0.13525967 Z" id="path-21"></path>
    </defs>
    <g id="Page-1" stroke="none" stroke-width="1" fill="none" fill-rule="evenodd">
        <g id="iPhone-6" transform="translate(-188.000000, -367.000000)">
            <g id="底部标签" transform="translate(0.000000, 193.000000)">
                <g id="寻宝－不可点击" transform="translate(188.000000, 173.000000)">
                    <g id="Group-63">
                        <g id="0">
                            <g id="熊">
                                <g id="Group-48">
                                    <g id="Path-5693" transform="translate(0.537897, 14.000000)">
                                        <mask id="mask-2" fill="white">
                                            <use xlink:href="#path-1"></use>
                                        </mask>
                                        <use id="Mask" fill="#D8D8D8" xlink:href="#path-1"></use>
                                        <path d="M13.8745654,0.461739893 C13.8745654,0.461739893 11.4006692,-0.239804812 10.9479541,0.736163861 C10.495239,1.71213253 10.1289038,3.1567895 10.7152396,4.93889724 C7.73980946,4.64640566 6.38515421,4.90251448 5.36255656,6.15954024 C4.33995891,7.41656599 -0.429686959,10.9829983 1.7771123,19.896221 C3.98391156,28.8094438 4.40423599,26.4896691 4.40423599,26.4896691 L-5.12260293,18.448771 L-0.66123142,-3.55777072 L10.5665536,-4.76143545 L15.297996,-3.68749501" fill-opacity="0.529999971" fill="#D8D8D8" style="mix-blend-mode: soft-light;" mask="url(#mask-2)"></path>
                                        <path d="M9.9495004,5.70778826 C9.9495004,5.70778826 5.75672407,5.20124617 3.49042806,8.64550789 C1.22413205,12.0897696 1.00252238,19.656812 2.58339478,25.131044 C4.16426718,30.605276 9.42004011,13.7961337 9.42004011,13.7961337" id="Path-5694" fill="#7D7D7D" style="mix-blend-mode: soft-light;" mask="url(#mask-2)"></path>
                                    </g>
                                    <polyline id="Path-5669" fill="#6C6C6C" points="16 57.865586 16 59.8410477 23.4265083 59.8410477 23.4265083 58.260927 28.7310352 58.4200579 28.8779087 60.0057731 34.7981091 60.2413615 35.7211924 57.1171732"></polyline>
                                    <g id="Path-5705-+-Path-5706-+-Path-5707-+-Path-5708-+-Path-5709-+-Path-5710-+-Path-5711-Mask" transform="translate(13.000000, 52.243291)">
                                        <mask id="mask-4" fill="white">
                                            <use xlink:href="#path-3"></use>
                                        </mask>
                                        <use id="Mask" fill="#B4B4B4" xlink:href="#path-3"></use>
                                        <path d="M2.50973155,0.58935394 L2.44479188,6.30308638 C2.4421743,6.53339557 2.6965306,6.72164274 3.0129126,6.72354821 C3.32929459,6.72545367 3.58789485,6.54029587 3.59051243,6.30998668 L3.6554521,0.596254239 C3.65806969,0.365945048 3.40371338,0.177697875 3.08733139,0.175792411 C2.77094939,0.173886946 2.51234914,0.35904475 2.50973155,0.58935394 L2.50973155,0.58935394 Z" id="Path-5705" fill="#EEEEEE" mask="url(#mask-4)"></path>
                                        <path d="M5.78274225,1.04209094 L5.36561657,6.26809013 C5.34726422,6.49801942 5.5884419,6.69524398 5.90430201,6.70860351 C6.22016212,6.72196305 6.49109485,6.54639858 6.50944721,6.31646929 L6.92657289,1.0904701 C6.94492525,0.860540811 6.70374756,0.663316251 6.38788745,0.649956715 C6.07202734,0.636597179 5.80109461,0.81216165 5.78274225,1.04209094 L5.78274225,1.04209094 Z" id="Path-5706" fill="#EEEEEE" mask="url(#mask-4)"></path>
                                        <path d="M8.27339316,1.42539293 L7.81400516,6.51857861 C7.79327598,6.74840084 8.03240763,6.94694121 8.34812067,6.96203094 C8.6638337,6.97712068 8.936574,6.80304561 8.95730318,6.57322339 L9.41669118,1.4800377 C9.43742036,1.25021548 9.1982887,1.05167511 8.88257567,1.03658537 C8.56686264,1.02149564 8.29412234,1.19557071 8.27339316,1.42539293 L8.27339316,1.42539293 Z" id="Path-5707" fill="#EEEEEE" mask="url(#mask-4)"></path>
                                        <path d="M11.7440376,1.35842022 L11.7440376,6.84504406 C11.7440376,7.07536113 12.0005246,7.26207001 12.3169174,7.26207001 C12.6333103,7.26207001 12.8897973,7.07536113 12.8897973,6.84504406 L12.8897973,1.35842022 C12.8897973,1.12810315 12.6333103,0.941394274 12.3169174,0.941394274 C12.0005246,0.941394274 11.7440376,1.12810315 11.7440376,1.35842022 L11.7440376,1.35842022 Z" id="Path-5708" fill="#EEEEEE" mask="url(#mask-4)"></path>
                                        <path d="M15.1813168,1.59328254 L15.1813168,6.79977241 C15.1813168,7.03008948 15.4378039,7.21679836 15.7541967,7.21679836 C16.0705895,7.21679836 16.3270766,7.03008948 16.3270766,6.79977241 L16.3270766,1.59328254 C16.3270766,1.36296547 16.0705895,1.17625659 15.7541967,1.17625659 C15.4378039,1.17625659 15.1813168,1.36296547 15.1813168,1.59328254 L15.1813168,1.59328254 Z" id="Path-5709" fill="#EEEEEE" mask="url(#mask-4)"></path>
                                        <path d="M18.0376389,1.32597204 L17.884395,6.53021083 C17.8776146,6.76047501 18.1285462,6.95114222 18.4448664,6.95607795 C18.7611866,6.96101368 19.0231113,6.77834889 19.0298916,6.54808471 L19.1831355,1.34384592 C19.1899159,1.11358174 18.9389843,0.922914536 18.6226641,0.917978801 C18.3063439,0.913043067 18.0444192,1.09570786 18.0376389,1.32597204 L18.0376389,1.32597204 Z" id="Path-5710" fill="#EEEEEE" mask="url(#mask-4)"></path>
                                        <path d="M20.8406274,1.20960359 L20.4008244,6.38307767 C20.3812822,6.61295499 20.6214375,6.81083954 20.9372263,6.82506517 C21.253015,6.8392908 21.5248544,6.66447056 21.5443965,6.43459324 L21.9841995,1.26111916 C22.0037417,1.03124183 21.7635864,0.833357287 21.4477976,0.819131655 C21.1320089,0.804906022 20.8601695,0.979726262 20.8406274,1.20960359 L20.8406274,1.20960359 Z" id="Path-5711" fill="#EEEEEE" mask="url(#mask-4)"></path>
                                        <path d="M-0.0868232594,2.36501172 C-0.0868232594,2.36501172 10.2481802,3.01148816 11.0387048,3.94171377 C11.8292293,4.87193938 11.2066967,6.14212241 10.0097542,6.39434371 C8.8128117,6.64656501 14.7997116,6.73732656 14.7997116,6.73732656 C14.7997116,6.73732656 13.8285085,5.61650195 14.3141099,4.60475026 C14.7997114,3.59299858 21.4983896,3.08839663 22.8178264,2.89668291 C24.1372633,2.70496919 25.3862655,1.93763662 25.3862655,1.93763662 L3.98719978,0.547075214" id="Path-5712" fill="#535151" style="mix-blend-mode: soft-light;" mask="url(#mask-4)"></path>
                                    </g>
                                    <g id="Path-5689" transform="translate(5.000000, 33.560077)">
                                        <mask id="mask-6" fill="white">
                                            <use xlink:href="#path-5"></use>
                                        </mask>
                                        <use id="Mask" fill="#D1D1D1" xlink:href="#path-5"></use>
                                        <path d="M37.1222178,4.13953667 C37.1222178,4.13953667 39.5091024,4.99379066 38.3156601,6.74149264 C37.1222178,8.48919462 34.7127255,13.1329151 34.7127255,13.1329151 L44.1502009,6.94893886 L41.438481,3.87405747 L38.0532932,3.87405747" fill-opacity="0.319999993" fill="#D8D8D8" style="mix-blend-mode: soft-light;" mask="url(#mask-6)"></path>
                                        <path d="M5.49391382,0.10451274 C5.49391382,0.10451274 2.84495974,5.35974474 2.8449597,6.23868457 C2.84495967,7.1176244 2.65576994,7.47296781 2.65576994,8.68667993 C2.65576994,9.90039205 3.99586408,10.4096962 3.99586408,10.4096962 L-2.35805619,8.48724572 L4.19249055,-0.459576416" id="Path-5690" fill-opacity="0.49000001" fill="#D8D8D8" style="mix-blend-mode: soft-light;" mask="url(#mask-6)"></path>
                                        <path d="M3.86468061,9.91771519 C3.86468061,9.91771519 6.70520396,8.8313293 8.50250697,8.83132928 C10.29981,8.83132925 11.7779296,9.27480518 11.7779291,10.1271103 C11.7779285,10.9794154 9.27562682,14.127271 9.27562676,14.1272711 C9.27562671,14.1272712 29.6173931,11.2500916 29.6173931,11.2500916 L32.6955938,2.95917199 C32.6955938,2.95917199 33.6772388,2.32643936 34.8876368,2.64280567 C36.0980348,2.95917199 37.0796798,4.24066129 37.0796798,4.24066129 C37.0796798,4.24066129 37.1781427,4.87296079 35.6069149,5.47689353 C34.0356871,6.08082628 33.3583532,7.01281826 33.3583529,8.56996436 C33.3583527,10.1271105 33.4514616,10.561925 34.5291877,12.9423591 C35.6069138,15.3227931 2.44248526,16.3699857 2.44248526,16.3699857 L0.944732986,11.8994979" id="Path-5691" fill="#756F6F" style="mix-blend-mode: soft-light;" mask="url(#mask-6)"></path>
                                        <path d="M5.56709099,0.123135261 C5.56709099,0.123135261 6.42532863,5.98282598 14.3787783,6.67905667 C22.332228,7.37528735 29.6082992,4.42375305 29.6082991,3.93888571 C29.608299,3.45401837 27.256884,0.365341461 27.256884,0.365341461 L6.00349098,-0.213544659" id="Path-5692" fill="#6B5F5F" style="mix-blend-mode: soft-light;" mask="url(#mask-6)"></path>
                                    </g>
                                    <g id="Path-5697" transform="translate(12.000000, 35.997018)">
                                        <mask id="mask-8" fill="white">
                                            <use xlink:href="#path-7"></use>
                                        </mask>
                                        <use id="Mask" fill="#C4C4C4" xlink:href="#path-7"></use>
                                        <path d="M4.48677748,3.2609642 C4.48677748,3.2609642 6.43194792,4.02282302 9.15708922,4.56012595 C11.8822305,5.09742889 21.7596779,6.10600684 25.8221248,4.53842452 C29.8845717,2.97084219 29.1185542,-0.595119024 29.1185542,-0.595119024 L8.15976655,-1.01406444 L4.66268854,-0.446287201 L3.66811448,1.64690079" fill="#6A6161" style="mix-blend-mode: soft-light;" mask="url(#mask-8)"></path>
                                        <path d="M15.5637046,3.32648282 L13.9950483,19.6090772 C13.9876702,19.6856615 14.0669753,19.7520993 14.1721811,19.7574701 C14.277387,19.762841 14.3686544,19.7051111 14.3760324,19.6285268 L15.9446888,3.3459324 C15.9520669,3.26934814 15.8727618,3.20291039 15.7675559,3.19753954 C15.66235,3.19216869 15.5710827,3.24989856 15.5637046,3.32648282 L15.5637046,3.32648282 Z" id="Path-5698" fill="#292323" style="mix-blend-mode: soft-light;" mask="url(#mask-8)"></path>
                                        <path d="M25.9111615,10.1869073 C25.9111615,10.1869073 22.8111426,14.8826255 20.632828,15.8003829 C18.4545134,16.7181403 22.4012379,17.3860794 23.399492,16.300396 C24.397746,15.2147126 26.0583134,12.9222954 26.0583134,10.6404207" id="Path-5699" fill="#484343" style="mix-blend-mode: soft-light;" mask="url(#mask-8)"></path>
                                    </g>
                                    <g id="包" transform="translate(17.000000, 35.997018)">
                                        <path d="M0.0230887735,0.0735923366 C0.0230887735,0.0735923366 4.90876962,10.8618631 9.88562009,14.336966 C14.8624706,17.8120689 19.7147097,19.5737025 19.7147097,19.5737025 L21.2060527,20.0599626 L21.356074,18.9236086 C21.356074,18.9236086 8.35804845,16.3259311 1.648597,0.52825712" id="Path-5680" fill="#D8D8D8"></path>
                                        <g id="Path-5700" transform="translate(21.129366, 18.396133)">
                                            <mask id="mask-10" fill="white">
                                                <use xlink:href="#path-9"></use>
                                            </mask>
                                            <use id="Mask" fill="#D8D8D8" xlink:href="#path-9"></use>
                                            <path d="M3.04798944,4.14314329 L3.04798944,2.05030425 C3.04798944,1.23089288 2.50687144,0.749266 2.50687144,0.749266 C2.50687144,0.749266 2.49073654,1.40461977 2.63394708,2.07103465 C2.77715762,2.73744953 2.81555039,3.75838604 2.81555039,3.75838604" fill="#BBBBBB" mask="url(#mask-10)"></path>
                                            <path d="M2.41369565,0.237418277 C2.41369565,0.237418277 2.17164236,1.20705282 1.6793144,1.71250258 C1.18698645,2.21795234 0.846945516,2.2233187 0.846945543,3.0218793 C0.846945571,3.8204399 1.10802274,5.19014103 1.39366858,5.19014127 C1.67931443,5.19014152 2.70479056,5.0252663 2.70479054,4.56802079 C2.70479052,4.11077528 2.99665024,4.22920394 2.99665021,4.49862901 C2.99665017,4.76805407 3.00936472,6.26932259 2.85707762,6.26932231 C2.70479052,6.26932203 0.681083597,7.02920862 0.681083597,7.02920862 L-0.539316178,6.0191418 L-0.539316178,2.01134987 L0.288463992,-0.589454232 L1.81171717,-0.829919897" id="Path-5701" fill-opacity="0.75" fill="#433C3C" style="mix-blend-mode: soft-light;" mask="url(#mask-10)"></path>
                                        </g>
                                        <path d="M17.8402786,16.8792344 C17.8402786,16.8792344 17.595453,18.3140715 18.3561236,19.0265864 C19.1167942,19.7391012 20.8087773,19.9040686 20.9357309,19.9040686 C21.0626846,19.9040686 21.335616,19.8223713 21.335616,19.8223713 L21.8097804,18.1648329 L18.1761132,16.6161008" id="Path-5702" fill="#CCCACA"></path>
                                    </g>
                                    <g id="Path-5688" transform="translate(17.000000, 35.184705)">
                                        <mask id="mask-12" fill="white">
                                            <use xlink:href="#path-11"></use>
                                        </mask>
                                        <use id="Mask" fill="#E8E8E8" xlink:href="#path-11"></use>
                                        <polyline fill="#D8D8D8" style="mix-blend-mode: soft-light;" mask="url(#mask-12)" points="1.66951466 0.836598981 0.890044352 2.60433903 8.80176057 2.42656767 19.4605079 4.0014413 20.459563 0.874471423 22.5752416 7.6935327 -2.13600381 4.19484683 -0.371179342 0.348300552"></polyline>
                                    </g>
                                    <g id="鞋" transform="translate(13.000000, 58.741801)">
                                        <g id="Path-5713">
                                            <mask id="mask-14" fill="white">
                                                <use xlink:href="#path-13"></use>
                                            </mask>
                                            <use id="Mask" fill="#575757" xlink:href="#path-13"></use>
                                            <path d="M-0.316040008,1.92068726 C-0.316040008,1.92068726 2.39003391,2.45309725 4.00258159,2.18689225 C5.61512927,1.92068726 9.9386706,2.37550387 9.9386706,2.37550387 L11.294304,2.37550387 L11.1027114,3.09632652 L-1.96357187,3.47553932 L-0.711524183,2.30009901" fill="#2E2A2A" style="mix-blend-mode: soft-light;" mask="url(#mask-14)"></path>
                                        </g>
                                        <g id="Path-5713" transform="translate(14.321997, 0.000000)">
                                            <mask id="mask-16" fill="white">
                                                <use xlink:href="#path-15"></use>
                                            </mask>
                                            <use id="Mask" fill="#575757" xlink:href="#path-15"></use>
                                            <path d="M-0.793439908,1.92068726 C-0.793439908,1.92068726 1.91263401,2.45309725 3.52518169,2.18689225 C5.13772937,1.92068726 9.4612707,2.37550387 9.4612707,2.37550387 L10.8169041,2.37550387 L10.6253115,3.09632652 L-2.44097177,3.47553932 L-1.18892408,2.30009901" fill="#2E2A2A" style="mix-blend-mode: soft-light;" mask="url(#mask-16)"></path>
                                        </g>
                                    </g>
                                    <g id="脸" transform="translate(7.862118, 0.060121)">
                                        <path d="M33.417993,9.18061334 C33.417993,9.18061334 33.7269765,4.43983457 37.8131246,5.92647958 C41.8992726,7.41312459 41.7769007,12.1505639 40.4478015,12.1505642 C39.1187022,12.1505644 34.4053307,13.6121625 34.4053307,13.6121625" id="Path-5658" fill="#F6F6F6"></path>
                                        <path d="M11.0287865,8.96724335 C11.0287865,8.96724335 9.70788,5.63788262 6.74653736,5.63788268 C3.78519472,5.63788274 -0.299345864,9.45191634 2.74103225,10.9140246 C5.78141037,12.3761329 5.90174006,16.124058 8.46526319,16.124058" id="Path-5659" fill="#F2F2F2"></path>
                                        <g id="Path-5686" transform="translate(0.000000, 2.190065)">
                                            <mask id="mask-18" fill="white">
                                                <use xlink:href="#path-17"></use>
                                            </mask>
                                            <use id="Mask" fill="#F3F3F3" xlink:href="#path-17"></use>
                                            <path d="M18.0079772,18.7391557 C18.0079772,18.7391557 21.9901381,17.6245633 23.5559061,18.8651073 C21.8144317,15.7579702 21.1582218,14.7867314 20.8298829,14.4971713 C20.5015439,14.2076111 18.1860223,18.3447549 18.1860223,18.3447549" id="Path-5685" fill="#626161" style="mix-blend-mode: soft-light;" mask="url(#mask-18)"></path>
                                            <path d="M9.37083765,23.2212853 C7.59305094,23.2212853 5.83090748,22.2711813 4.85188534,22.2711813 C3.8728632,22.2711814 -0.191474365,23.311782 2.57062907,27.0835737 C5.33273251,30.8553654 13.300403,34.0044706 18.5273897,34.0044703 C23.7543765,34.00447 33.5197012,33.2467125 36.294187,30.5382487 C39.0686728,27.829785 37.3931235,22.751357 32.4374163,22.751357 C27.4817091,22.751357 26.7074056,20.9700657 26.7074056,20.9700657 C26.7074056,20.9700657 32.5551541,23.3936284 35.8119135,21.1991148 C39.0686728,19.0046012 41.7358525,22.877425 41.7358543,23.9845388 C41.735856,25.0916525 40.5688728,32.6982616 36.6752426,34.742584 C32.7816125,36.7869064 6.03088463,36.3290669 6.03088463,36.3290669 L-2.16011036,28.4710999 C-2.16011036,28.4710999 -1.1405598,18.7835934 0.193134996,17.9125324 C1.52682979,17.0414713 2.2875234,17.6196711 3.07827051,18.9210748 C3.86901763,20.2224785 6.87007036,23.7144669 13.0207515,21.6551002 C19.1714327,19.5957334 11.1486244,23.2212853 9.37083765,23.2212853 Z" fill="#686161" style="mix-blend-mode: soft-light;" mask="url(#mask-18)"></path>
                                            <path d="M18.9471528,30.0013888 C18.9471528,30.0013888 21.1397049,28.0694754 22.5604699,29.9885643" id="Path-5687" fill="#494747" style="mix-blend-mode: soft-light;" mask="url(#mask-18)"></path>
                                        </g>
                                        <path d="M20.4782956,22.3306461 C20.4816735,22.3458123 20.4881455,22.3758359 20.49727,22.4197189 C20.5125612,22.49326 20.5296228,22.5786694 20.5480132,22.6749485 C20.6006321,22.9504238 20.6532782,23.2574337 20.7024219,23.5879741 C20.8414087,24.5228008 20.9253433,25.4568427 20.9268711,26.3269512 C20.9300137,28.1168347 20.582254,29.392202 19.8213571,29.918283 C19.0614119,30.4437059 18.3286946,30.7579521 17.6384226,30.9014057 C17.1572445,31.001405 16.7499745,31.0091938 16.4323254,30.9635046 C16.3678718,30.9542339 16.3258468,30.9454339 16.3077291,30.9405201 C16.2112102,30.9143429 16.1097717,30.9647084 16.0811599,31.0530146 C16.0525482,31.1413208 16.1075978,31.234128 16.2041167,31.2603052 C16.2373209,31.2693106 16.2950036,31.2813894 16.3757074,31.2929975 C17.3471878,31.4327307 18.6174183,31.168749 20.0411522,30.1843854 C20.9242489,29.573816 21.2947466,28.2150598 21.2914305,26.3264154 C21.2898736,25.439673 21.2046644,24.4914474 21.0636551,23.543018 C21.0138654,23.2081321 20.9605116,22.896995 20.9071305,22.6175298 C20.888421,22.5195798 20.8710325,22.4325344 20.8554071,22.3573858 C20.8459816,22.3120551 20.8392036,22.2806119 20.8355148,22.2640493 C20.8154142,22.1737995 20.7191533,22.1155457 20.62051,22.1339359 C20.5218667,22.1523261 20.4581951,22.2403962 20.4782956,22.3306461 L20.4782956,22.3306461 Z" id="Path-5661" fill="#2D2926"></path>
                                        <path d="M20.9191433,28.7626031 C20.9325586,28.849432 20.9692856,28.9937951 21.0402248,29.1768098 C21.1574521,29.4792427 21.3309206,29.7813976 21.5719716,30.063712 C22.2586061,30.8678854 23.3436767,31.3496013 24.8949216,31.3496013 C24.9955921,31.3496013 25.0772016,31.2749359 25.0772016,31.1828314 C25.0772016,31.0907269 24.9955921,31.0160615 24.8949217,31.0160615 C23.4556307,31.0160614 22.4766375,30.5814385 21.8592626,29.8583806 C21.6439103,29.6061641 21.4885825,29.3356073 21.3838185,29.0653283 C21.3473204,28.9711675 21.3198083,28.8840731 21.3000608,28.8064516 C21.2885654,28.7612665 21.2823341,28.7302842 21.2801147,28.7159194 C21.2660244,28.6247215 21.1737958,28.5612416 21.0741163,28.5741329 C20.9744368,28.5870243 20.905053,28.6714053 20.9191433,28.7626031 L20.9191433,28.7626031 Z" id="Path-5662" fill="#2D2926"></path>
                                        <path d="M17.2298464,21.9433332 C17.2298464,21.9433332 21.2232569,21.2755589 24.0051219,21.2755589 C24.638195,23.2376392 22.8198587,25.844875 21.2261557,25.8448753 C19.6324528,25.8448756 17.0765945,24.9390845 17.2298464,21.9433332" id="Path-5660" fill="#2B2120" transform="translate(20.678736, 23.560217) rotate(7.000000) translate(-20.678736, -23.560217) "></path>
                                        <g id="Path-5681" transform="translate(5.193146, 0.000000)">
                                            <mask id="mask-20" fill="white">
                                                <use xlink:href="#path-19"></use>
                                            </mask>
                                            <use id="Mask" fill="#696969" transform="translate(17.547884, 7.667406) rotate(4.000000) translate(-17.547884, -7.667406) " xlink:href="#path-19"></use>
                                            <path d="M6.27802253,8.29174975 C6.27802253,8.29174975 12.257726,7.62725928 13.8980788,7.62725925 C15.5384316,7.62725921 20.0759681,7.80826742 20.6387776,7.80826742 C21.2015872,7.80826741 27.0233602,7.98879924 27.0233602,7.98879924 L27.1566435,5.9962804 C27.1566435,5.9962804 20.8017372,6.29923089 19.3449925,6.29923091 C17.8882478,6.29923093 16.7079615,6.29923089 12.5355694,6.29923091 C8.36317733,6.29923093 7.92175584,5.92148136 5.78549908,6.60170509" fill="#080200" style="mix-blend-mode: soft-light;" mask="url(#mask-20)"></path>
                                            <path d="M14.1172878,5.07710139 C14.1172878,5.07710139 14.6363045,2.95116711 13.4477095,2.95116707 C12.2591145,2.95116702 11.6472826,3.06068295 11.6472826,3.06068295 C11.6472826,3.06068295 12.9160681,2.97191515 13.5166779,4.02450829" id="Path-5682" fill="#262525" style="mix-blend-mode: soft-light;" mask="url(#mask-20)"></path>
                                            <path d="M21.2313234,3.60013424 C21.2313234,3.60013424 20.0041841,3.69360776 19.4543069,3.69360776 C18.9044298,3.69360776 19.2113666,6.10787687 19.2113666,6.10787687 C19.2113666,6.10787687 19.2824392,3.69360775 21.2313235,3.69360776" id="Path-5683" fill="#2C2A2A" style="mix-blend-mode: soft-light;" mask="url(#mask-20)"></path>
                                            <path d="M3.71436697,11.8484544 C3.71436697,11.8484544 2.61833525,9.89810143 6.85443275,9.89810139 C11.0905303,9.89810135 12.2320268,10.6587346 15.0774236,10.6587346 C17.9228204,10.6587346 18.5505057,11.6741676 20.8894683,11.6741676 C23.2284309,11.6741676 23.850156,11.6741676 24.6620316,11.6741676 C25.4739072,11.6741676 26.8953501,10.2599022 27.9759604,10.2599022 C29.0565707,10.2599022 30.9277975,11.1108476 29.7933263,11.6741675 C28.658855,12.2374875 28.0485303,12.2867651 28.0485303,12.2867651 L4.19542606,13.316925" id="Path-5684" fill="#6A5E5E" style="mix-blend-mode: soft-light;" mask="url(#mask-20)"></path>
                                        </g>
                                    </g>
                                </g>
                                <g id="望远镜" transform="translate(10.535557, 10.589921)">
                                    <path d="M1.87875999,1.26737385 C1.87875999,1.26737385 5.59535876,0.0465510219 7.27358056,0.0465510524 C8.95180236,0.046551083 11.6950623,1.45487626 12.5807728,1.45487624 C13.4664833,1.45487623 14.177794,1.34358956 15.3726674,0.695070304 C16.5675408,0.0465510524 18.8090274,0.109639647 19.9284841,0.782257938 C21.0479409,1.45487623 22.9273446,1.55538693 24.0165926,1.16882243 C25.1058405,0.782257935 27.7185951,-1.23579288 33.2034278,1.29323625 C35.9050308,5.83501057 35.9798962,6.9634407 32.9855288,11.4651287 C27.640683,13.7093014 23.5048729,13.0410806 21.0298276,7.42539871 C18.5547823,1.80971686 14.7789468,5.79432649 14.143669,7.29437926 C13.5083913,8.79443202 10.7936329,15.4195539 2.44102641,11.5655259 C-0.315589628,8.46480477 -0.970958625,6.34487099 1.76700089,1.76028385" id="Path-5679" fill="#373737"></path>
                                    <ellipse id="Oval-1015" fill="#585858" cx="17.3650283" cy="2.56881523" rx="1.78757644" ry="1.6347006"></ellipse>
                                    <g id="Group-49" transform="translate(0.510736, 0.291911)">
                                        <ellipse id="Oval-1007" fill="#454545" cx="6.60764862" cy="6.04255401" rx="6.60764862" ry="6.04255401"></ellipse>
                                        <ellipse id="Oval-1008" fill="#0F0F0F" cx="6.67149064" cy="6.04255401" rx="5.90538645" ry="5.4003502"></ellipse>
                                        <ellipse id="Oval-1009" fill="#2A2A2A" cx="6.67149064" cy="6.04255401" rx="5.65001839" ry="5.16682154"></ellipse>
                                        <path d="M6.73533266,10.6839361 C9.50316193,10.6839361 11.7469309,8.63205713 11.7469309,6.10093617 C11.7469309,3.56981522 9.50316193,1.51793627 6.73533266,1.51793627 C3.96750338,1.51793627 1.72373442,3.56981522 1.72373442,6.10093617 C1.72373442,8.63205713 3.96750338,10.6839361 6.73533266,10.6839361 Z" id="Oval-1010" fill-opacity="0.839999974" fill="#BDBDBD"></path>
                                        <path d="M2.85764345,6.13589835 C2.85764345,6.13589835 2.74614102,4.22057205 4.40807937,3.16545647 C6.07001773,2.1103409 5.57159595,2.94519262 5.57159595,2.94519262 C5.57159595,2.94519262 3.34869126,3.66633522 3.24060187,5.86363184 C3.24060187,6.38543535 3.08206237,6.22138289 2.96985291,6.22138292" id="Path-5675" fill="#FFFFFF"></path>
                                        <path d="M2.86856523,7.08826008 C2.86856523,7.08826008 2.9382561,6.47157357 3.40620291,6.66465752 C3.87414973,6.85774147 3.31709255,7.26889584 3.31709256,7.26889587 C3.31709257,7.2688959 3.0563462,7.3375186 2.98657932,7.21288934" id="Path-5676" fill="#FFFFFF"></path>
                                    </g>
                                    <g id="Group-49-Copy" transform="translate(21.514759, 0.291911)">
                                        <ellipse id="Oval-1007" fill="#454545" cx="6.60764862" cy="6.04255401" rx="6.60764862" ry="6.04255401"></ellipse>
                                        <ellipse id="Oval-1008" fill="#0F0F0F" cx="6.67149064" cy="6.04255401" rx="5.90538645" ry="5.4003502"></ellipse>
                                        <ellipse id="Oval-1009" fill="#2A2A2A" cx="6.67149064" cy="6.04255401" rx="5.65001839" ry="5.16682154"></ellipse>
                                        <ellipse id="Oval-1010" fill="#A6A6A6" cx="6.73533266" cy="6.10093617" rx="5.01159823" ry="4.5829999"></ellipse>
                                        <path d="M2.85764345,6.13589835 C2.85764345,6.13589835 2.74614102,4.22057205 4.40807937,3.16545647 C6.07001773,2.1103409 5.57159595,2.94519262 5.57159595,2.94519262 C5.57159595,2.94519262 3.34869126,3.66633522 3.24060187,5.86363184 C3.24060187,6.38543535 3.08206237,6.22138289 2.96985291,6.22138292" id="Path-5675" fill="#FFFFFF"></path>
                                        <path d="M2.86856523,7.08826008 C2.86856523,7.08826008 2.9382561,6.47157357 3.40620291,6.66465752 C3.87414973,6.85774147 3.31709255,7.26889584 3.31709256,7.26889587 C3.31709257,7.2688959 3.0563462,7.3375186 2.98657932,7.21288934" id="Path-5676" fill="#FFFFFF"></path>
                                    </g>
                                </g>
                            </g>
                            <g id="小旗" transform="translate(55.000000, 51.000000) scale(-1, 1) translate(-55.000000, -51.000000) translate(47.000000, 43.000000)">
                                <polyline id="Path-5773" fill="#ECECEC" points="11.1155897 0.396234261 0.938415149 5.39101543 11.1155897 8.84740566"></polyline>
                                <ellipse id="Oval-1025" fill="#585050" cx="11.5" cy="14.5" rx="3.5" ry="1.5"></ellipse>
                                <path d="M11.1841682,0.333006115 L11.1841682,14.3740319" id="Path-5774" stroke="#585050" stroke-linecap="round"></path>
                            </g>
                        </g>
                        <g id="地图" transform="translate(2.000000, 30.000000)">
                            <path d="M30.7282012,11.4654917 C30.7282012,11.4654917 29.6120095,7.90768615 29.6120095,5.53519368 C29.6120096,3.16270121 28.427153,0 28.427153,0 C28.427153,0 27.2521057,2.96234908 26.3656574,2.96234905 C25.4792092,2.96234902 23.7119918,3.6704258 22.7914692,3.67042576 C21.8709466,3.67042572 22.3650241,6.00185232 22.3650241,6.00185232 L21.0578098,4.57947679 C21.0578098,4.57947679 20.7341038,7.11063328 18.4330556,7.11063325 C17.603387,7.11063324 11.4573438,6.1765267 10.8448301,6.25042941 C10.2323165,6.32433212 10.3363574,8.08753872 10.3363574,8.08753872 L10.0387955,6.26116679 L9.21382008,6.26991956 L8.73980562,7.86844148 C8.73980562,7.86844148 8.15426265,6.19211125 7.83958316,6.19502638 C6.91159285,6.20362308 6.00401605,6.21214573 5.15471449,6.22019175 C4.97694557,6.22187588 4.61318813,7.08753872 4.61318813,7.08753872 C4.61318813,7.08753872 4.36756614,6.22766967 4.23934143,6.22889239 C1.7788159,6.25235551 0.116234937,4.57947683 0.116234937,4.57947683 C0.116234937,4.57947683 4.75439842,13.6376326 4.75439831,18.0335565 C4.75439821,22.4294804 4.75439831,21.489001 4.75439831,21.489001 C4.75439831,21.489001 10.3166721,22.5332621 11.3110276,22.391787 C12.3053832,22.2503119 11.8533579,20.4789739 11.8533579,20.4789739 C11.8533579,20.4789739 12.0167565,22.410354 12.2699335,22.391787 C12.8350417,22.3503441 13.4766346,22.50168 13.9844587,22.228498 C14.4922828,21.9553161 14.4899494,21.1975381 14.4899494,21.1975381 C14.4899494,21.1975381 14.9029003,22.1152157 15.0648495,22.093402 C18.4407937,21.6386791 21.5417818,21.9346101 22.0759087,21.9346105 C23.3929319,21.9346117 24.7347372,21.8364072 24.7347372,21.8364072 L24.5390681,19.705955 L25.8509289,21.7237869 L28.7105892,22.0157102 L29.0724997,21.5522687 L30.1112498,21.656072 C30.1112498,21.656072 31.7901837,21.3785652 33.2006535,21.3785656 C34.6111234,21.3785661 32.4763164,17.3833455 32.4763164,17.3833455" id="Path-5672" fill="#B8B8B8"></path>
                            <polyline id="Path-5703" fill-opacity="0.870000005" fill="#4B4545" style="mix-blend-mode: soft-light;" points="5 18.8063504 7.31472152 20.4229545 8.78343428 19.9892482 10.8521901 21.0841676 8.57287629 19.0111752 7.12729659 19.7088169"></polyline>
                            <path d="M20,18.1258399 C20,18.1258399 20.4918835,16.4888281 21.3166579,16.4888281 C22.1414322,16.4888281 23.0890395,15.9782541 23.0890395,15.9782541 L24.7907577,15.5570958 L23.3534752,16.220179 L21.3873213,16.8720098 L20,18.1258399 Z" id="Path-5704" fill="#504747" style="mix-blend-mode: soft-light;"></path>
                        </g>
                        <text id="寻宝" font-family="STHeitiSC-Medium, Heiti SC" font-size="12.1904762" font-weight="bold" fill="#FFFFFF">
                            <tspan x="7" y="47">寻宝</tspan>
                        </text>
                        <g id="Path-5695" transform="translate(39.972530, 47.068023) rotate(8.000000) translate(-39.972530, -47.068023) translate(31.972530, 40.068023)">
                            <mask id="mask-22" fill="white">
                                <use xlink:href="#path-21"></use>
                            </mask>
                            <use id="Mask" fill="#B1B1B1" xlink:href="#path-21"></use>
                            <path d="M14.2047604,2.48179507 C14.2047604,2.48179507 11.8577635,1.74843687 10.8676181,2.79605936 C9.87747279,3.84368184 10.085624,5.46871007 9.28916975,7.13104138 C8.49271545,8.79337269 6.84818128,10.4983996 5.48638267,10.4983995 C4.12458406,10.4983994 3.6061721,10.3269417 3.16348608,10.1627873 C2.72080005,9.99863283 2.26961548,7.32103813 2.26961548,7.32103813 L7.80699606,7.01520067 L7.90441236,4.85197924 L12.6179403,-0.939607077 L14.7964883,1.01788753" fill-opacity="0.75999999" fill="#676262" style="mix-blend-mode: soft-light;" mask="url(#mask-22)"></path>
                            <path d="M13.9901752,4.05874072 C13.9901752,4.05874072 13.3544376,3.86695751 13.3544377,4.40293853 C13.3544377,4.93891955 13.4615782,6.91487912 12.7440572,7.84183128 C12.0265361,8.76878345 10.8240266,10.1406385 9.26359255,10.6590947 C7.70315846,11.1775508 9.25425798,11.028839 10.6338487,10.5044586 C12.0134395,9.98007826 14.4372669,8.14098351 14.4372674,5.74850636 C14.4372679,3.35602922 13.9901752,4.05874072 13.9901752,4.05874072 Z" id="Path-5696" fill-opacity="0.230000004" fill="#D8D8D8" style="mix-blend-mode: soft-light;" mask="url(#mask-22)"></path>
                        </g>
                    </g>
                </g>
            </g>
        </g>
    </g>
</svg>