<?xml version="1.0" encoding="UTF-8" standalone="no"?>
<svg width="57px" height="61px" viewBox="0 0 57 61" version="1.1" xmlns="http://www.w3.org/2000/svg" xmlns:xlink="http://www.w3.org/1999/xlink">
    <!-- Generator: Sketch 3.8.1 (29687) - http://www.bohemiancoding.com/sketch -->
    <title>我的－不可点击</title>
    <desc>Created with Sketch.</desc>
    <defs>
        <path d="M3.66892967,0.219350463 C3.66892967,0.219350463 -1.02456178,8.49144481 0.443421697,15.0067254 C1.91140518,21.5220061 2.84833115,25.5940557 6.07444452,23.1770195 C9.30055789,20.7599833 9.1165897,20.2295474 14.7185638,20.229546 C20.3205379,20.2295447 23.3602629,19.8812774 24.6286809,21.5470088 C25.8970989,23.2127402 25.498901,24.3849412 27.0366153,24.3849419 C28.5743297,24.3849426 31.111163,16.7796223 31.1111642,12.7653121 C31.1111653,8.75100181 29.9359406,3.7782268 26.4859189,0.903978718" id="path-1"></path>
        <path d="M0.38985349,25.858487 C0.38985349,25.858487 7.44382872,32.7806281 18.4467013,33.4105873 C29.449574,34.0405465 38.4251192,32.5925732 41.5205532,31.1457532 C44.6159872,29.6989333 50.1150151,25.7517096 50.1150151,25.7517096 C50.1150151,25.7517096 44.3545606,20.4199756 43.2385382,15.4865298 C42.1225159,10.5530839 39.535471,-0.306096813 26.3470508,0.373271056 C13.1586305,1.05263892 10.3518417,4.55296212 7.39902829,10.2750234 C4.44621487,15.9970847 4.20945684,20.8888089 2.85951015,22.7056712" id="path-3"></path>
        <rect id="path-5" x="0" y="2.27373675e-13" width="43.481783" height="17.8957826"></rect>
        <path d="M1.11440329,1.28038618 C1.11440329,1.28038618 3.83295759,-0.925015 5.26149717,0.658764679 C6.69003675,2.24254436 7.19132451,3.57758785 6.4974004,6.10647718 C5.8034763,8.6353665 4.1541625,10.0530307 2.63428289,9.07906946 C1.11440329,8.10510821 0.462469754,7.01530354 0.46246974,4.37406788 C0.462469727,1.73283223 1.11440329,1.28038618 1.11440329,1.28038618 Z" id="path-7"></path>
        <path d="M1.11440329,1.28038618 C1.11440329,1.28038618 3.83295759,-0.925015 5.26149717,0.658764679 C6.69003675,2.24254436 7.19132451,3.57758785 6.4974004,6.10647718 C5.8034763,8.6353665 4.1541625,10.0530307 2.63428289,9.07906946 C1.11440329,8.10510821 0.462469754,7.01530354 0.46246974,4.37406788 C0.462469727,1.73283223 1.11440329,1.28038618 1.11440329,1.28038618 Z" id="path-9"></path>
    </defs>
    <g id="Page-1" stroke="none" stroke-width="1" fill="none" fill-rule="evenodd">
        <g id="iPhone-6" transform="translate(-288.000000, -367.000000)">
            <g id="底部标签" transform="translate(0.000000, 193.000000)">
                <g id="我的－不可点击" transform="translate(287.000000, 174.000000)">
                    <g id="身子" transform="translate(16.121917, 36.479832)">
                        <mask id="mask-2" fill="white">
                            <use xlink:href="#path-1"></use>
                        </mask>
                        <use id="Mask" fill="#CAC5CB" xlink:href="#path-1"></use>
                        <path d="M5.26473914,24.1265691 C5.26473914,24.1265691 8.05205811,21.0508763 8.05205823,19.7267412 C8.05205834,18.4026061 9.55224069,19.6364675 15.298856,19.6364676 C21.0454712,19.6364676 23.6167345,19.4858897 24.3003249,18.8134059 C24.9839152,18.1409221 25.7592691,23.7148621 26.5379685,24.5050308 C27.3166678,25.2951995 18.0960025,27.1606108 18.0960025,27.1606108 L7.19868519,26.5743803" id="Path-466" fill="#9A9DA2" mask="url(#mask-2)"></path>
                    </g>
                    <g id="头" transform="translate(31.629696, 18.622261) rotate(-2.000000) translate(-31.629696, -18.622261) translate(6.129696, 1.622261)">
                        <g id="Group" transform="translate(0.000000, 0.000000)">
                            <path d="M10.3391593,10.5317615 C10.3391593,10.5317615 5.65179325,5.04173784 7.11940304,2.02924791 C8.58701283,-0.98324201 17.0418683,2.18409376 17.0418683,2.18409376 L10.3391593,10.5317615 Z" id="Path-227" stroke="#433D41" stroke-width="4" fill="#F7F8FA"></path>
                            <path d="M37.2430037,11.4974581 C37.2430037,11.4974581 32.5556376,6.00743441 34.0232474,2.99494449 C35.4908572,-0.0175454341 43.9457126,3.14979034 43.9457126,3.14979034 L37.2430037,11.4974581 Z" id="Path-227-Copy" stroke="#433D41" stroke-width="4" fill="#F7F8FA" transform="translate(38.842212, 6.596259) scale(-1, 1) translate(-38.842212, -6.596259) "></path>
                            <g id="Oval-68">
                                <mask id="mask-4" fill="white">
                                    <use xlink:href="#path-3"></use>
                                </mask>
                                <use id="Mask" fill="#CCCCCC" xlink:href="#path-3"></use>
                                <path d="M-0.577117395,27.5532228 C-0.577117395,27.5532228 4.16284686,23.638862 7.50586988,14.3831085 C10.8488929,5.12735496 13.3301754,1.78997813 27.6042881,0.460671529 C41.8784009,-0.868635073 41.183084,-1.26916005 41.183084,-1.26916005 L3.76416276,-12.0456466 L-7.90774341,1.85740857 L0.987251816,19.5437967" id="Path-2022" fill-opacity="0.449999988" fill="#FFFFFF" style="mix-blend-mode: soft-light;" mask="url(#mask-4)"></path>
                                <ellipse fill="#F6F6F6" mask="url(#mask-4)" cx="25.3887563" cy="34.6211228" rx="12.8308769" ry="15.0641527"></ellipse>
                                <path d="M23.3597509,19.0711745 C23.3597509,19.0711745 25.7402313,18.3938959 26.4413466,19.0711745 C26.4413466,16.8223762 25.5748204,14.8632387 25.5748203,14.8632387 C25.5748202,14.8632387 25.1906452,14.7664152 24.6798613,14.9416042 C24.1690774,15.1167932 23.3395135,18.7928475 23.3395135,18.7928475" id="Path-231" fill="#B7B2B8" mask="url(#mask-4)"></path>
                                <path d="M0.429179064,26.0370857 C0.429179064,26.0370857 9.4847821,26.9206974 12.0642308,27.9058136 C14.6436795,28.8909299 28.1563015,33.8810607 33.4364628,29.9590732 C38.7166241,26.0370857 48.6136975,24.9307815 51.898708,26.4182975 C55.1837186,27.9058136 15.2900271,52.6843527 15.2900271,52.6843527 L-6.9113106,28.4399534" id="Path-2021" fill-opacity="0.720000029" fill="#000000" style="mix-blend-mode: soft-light;" mask="url(#mask-4)"></path>
                                <path d="M42.5332697,13.0969735 C42.5332697,13.0969735 42.6570164,25.9265808 49.7981427,25.9265802 C56.9392689,25.9265795 44.1290086,11.7708008 44.1290086,11.7708008" id="Path-2023" fill="#DFDEDE" mask="url(#mask-4)"></path>
                            </g>
                            <polygon id="Path-225" fill="#413D3A" points="24.4441959 20.4835933 25.0574987 23.1047181 25.4175979 19.9653523"></polygon>
                            <path d="M22.730464,20.6903504 C22.730464,20.6903504 22.7389701,19.4739425 25.102582,19.8547965 C27.4661938,20.2356506 27.2322709,20.794383 26.5840924,21.4921417 C25.935914,22.1899005 24.6372884,22.3644776 24.6372885,22.3644775 C24.6372885,22.3644774 23.0182598,21.9453281 23.0182598,21.3178393" id="Path-224" fill="#403C39"></path>
                            <path d="M22.7114666,24.7061693 C22.7114666,24.7061693 24.6370048,27.0750359 25.9520758,25.8906026 C27.2671469,24.7061693 27.113202,24.4834321 27.113202,24.4834321 L26.9147934,23.8886412 C26.9147934,23.8886412 27.4380266,24.5732471 27.954296,24.5732471" id="Path-226" stroke="#464343" stroke-linecap="round" stroke-linejoin="round"></path>
                            <path d="M8.37711423,13.4670179 C8.37711423,13.4670179 8.31141293,7.26788364 13.6969666,6.23393739 C19.0825203,5.19999113 22.4063037,6.19721351 22.4063038,9.83211573 C22.4063038,13.467018 22.4508865,18.2445231 20.2956485,19.3469956 C18.1404105,20.4494681 13.9711133,20.9590582 11.1741137,18.6537859 C8.37711423,16.3485137 8.76702035,15.6015435 8.76702034,15.0953602 C8.76702034,14.5891769 8.37711423,13.4670179 8.37711423,13.4670179 Z" id="Path-229" fill="#A5A5A5"></path>
                            <path d="M28.3917648,12.9040183 C28.3917648,12.9040183 28.3260635,6.704884 33.7116172,5.67093775 C39.0971709,4.63699149 42.4209542,5.63421387 42.4209543,9.26911609 C42.4209544,12.9040183 42.4655371,17.6815235 40.3102991,18.783996 C38.155061,19.8864684 33.9857638,20.3960585 31.1887643,18.0907863 C28.3917648,15.7855141 28.7816709,15.0385439 28.7816709,14.5323606 C28.7816709,14.0261772 28.3917648,12.9040183 28.3917648,12.9040183 Z" id="Path-229-Copy" fill="#ABABAB" transform="translate(35.406376, 12.500948) scale(-1, 1) translate(-35.406376, -12.500948) "></path>
                            <ellipse id="Oval-69" fill="#FFFFFF" cx="18.5638218" cy="14.2713025" rx="3.27596856" ry="3.17140056"></ellipse>
                            <ellipse id="Oval-71" fill="#3A3A3A" cx="18.5638218" cy="14.2713025" rx="2.18397904" ry="2.11426704"></ellipse>
                            <ellipse id="Oval-69-Copy" fill="#FFFFFF" cx="32.2136908" cy="14.2713025" rx="3.27596856" ry="3.17140056"></ellipse>
                            <ellipse id="Oval-73" fill="#FFFFFF" cx="18.0178271" cy="13.7427358" rx="0.54599476" ry="0.52856676"></ellipse>
                            <ellipse id="Oval-71-Copy" fill="#3A3A3A" cx="32.2136908" cy="14.2713025" rx="2.18397904" ry="2.11426704"></ellipse>
                            <ellipse id="Oval-74" fill="#FFFFFF" cx="18.8801222" cy="12.998827" rx="0.316300413" ry="0.313224747"></ellipse>
                            <ellipse id="Oval-74-Copy" fill="#FFFFFF" cx="31.9839965" cy="12.998827" rx="0.316300413" ry="0.313224747"></ellipse>
                            <ellipse id="Oval-73-Copy" fill="#FFFFFF" cx="31.1217013" cy="13.7427358" rx="0.54599476" ry="0.52856676"></ellipse>
                        </g>
                    </g>
                    <g id="标签－未" transform="translate(9.561966, 32.291596)">
                        <g id="Path-475" transform="translate(0.086838, 0.455096)">
                            <mask id="mask-6" fill="white">
                                <use xlink:href="#path-5"></use>
                            </mask>
                            <use id="Mask" fill="#FBFBFB" xlink:href="#path-5"></use>
                            <polygon fill="#F3F3F3" mask="url(#mask-6)" points="0.820880783 18.3985088 41.842641 16.0930712 43.4512578 -2.62653479 49.0479039 8.50541239 48.0171298 27.7055862 3.81063327 23.3925504 -2.40041504 19.8047936"></polygon>
                        </g>
                        <text id="我的" font-family="STHeitiSC-Medium, Heiti SC" font-size="12.1904762" font-weight="bold" fill="#646464">
                            <tspan x="9.72350427" y="13.2294486">我的</tspan>
                        </text>
                    </g>
                    <g id="手" transform="translate(6.622967, 36.471507)">
                        <g id="Path-468-+-Path-469-+-Path-470-Mask">
                            <mask id="mask-8" fill="white">
                                <use xlink:href="#path-7"></use>
                            </mask>
                            <use id="Mask" fill="#CCCCCC" xlink:href="#path-7"></use>
                            <path d="M4.0455069,2.41084554 L6.46753094,2.41084554" id="Path-468" stroke="#979797" mask="url(#mask-8)"></path>
                            <path d="M4.18100173,4.93580039 L6.63202944,4.93580039" id="Path-469" stroke="#979797" mask="url(#mask-8)"></path>
                            <path d="M4.48445818,6.99213482 L6.76752426,6.99213482" id="Path-470" stroke="#979797" mask="url(#mask-8)"></path>
                        </g>
                        <g id="Path-468-+-Path-469-+-Path-470-Mask" transform="translate(47.520017, 5.000000) scale(-1, 1) translate(-47.520017, -5.000000) translate(44.020017, 0.000000)">
                            <mask id="mask-10" fill="white">
                                <use xlink:href="#path-9"></use>
                            </mask>
                            <use id="Mask" fill="#CCCCCC" xlink:href="#path-9"></use>
                            <path d="M4.0455069,2.41084554 L6.46753094,2.41084554" id="Path-468" stroke="#979797" mask="url(#mask-10)"></path>
                            <path d="M4.18100173,4.93580039 L6.63202944,4.93580039" id="Path-469" stroke="#979797" mask="url(#mask-10)"></path>
                            <path d="M4.48445818,6.99213482 L6.76752426,6.99213482" id="Path-470" stroke="#979797" mask="url(#mask-10)"></path>
                        </g>
                        <path d="M49.9725362,6.4145342 C49.9725362,6.4145342 50.1066641,-0.966484747 48.5840807,1.34449793" id="Path-2024" stroke="#FFFFFF" stroke-linecap="round" opacity="0.518773321" style="mix-blend-mode: soft-light;"></path>
                    </g>
                    <g id="标尺" transform="translate(0.883333, 18.984127)">
                        <polygon id="Path-1923" fill="#A1A1A1" points="1.22106809 39.6849223 1.22106809 0.0614761255 0.221068091 0.0614761255 0.221068091 39.6849223"></polygon>
                        <polygon id="Path-1924" fill="#A1A1A1" points="0.338809046 9.9781038 5.39321553 9.9781038 5.39321553 8.9781038 0.338809046 8.9781038"></polygon>
                        <polygon id="Path-1924-Copy" fill="#A1A1A1" points="1 30.5 6.05440649 30.5 6.05440649 29.5 1 29.5"></polygon>
                        <polygon id="Path-1926" fill="#D1D1D1" points="4.62212008 15.0325103 4.62212008 14.0325103 1.17544692 14.0325103 1.17544692 15.0325103"></polygon>
                        <polygon id="Path-1926-Copy" fill="#D1D1D1" points="1 20.3731992 4.44667316 20.3731992 4.44667316 19.3731992 1 19.3731992"></polygon>
                        <polygon id="Path-1926-Copy-2" fill="#D1D1D1" points="1 25.4276057 4.44667316 25.4276057 4.44667316 24.4276057 1 24.4276057"></polygon>
                        <polygon id="Path-1926-Copy-3" fill="#D1D1D1" points="1 35.5544065 4.44667316 35.5544065 4.44667316 34.5544065 1 34.5544065"></polygon>
                        <polygon id="Path-1926-Copy-4" fill="#D1D1D1" points="1 4.92369731 4.44667316 4.92369731 4.44667316 3.92369731 1 3.92369731"></polygon>
                    </g>
                </g>
            </g>
        </g>
    </g>
</svg>