<?xml version="1.0" encoding="UTF-8" standalone="no"?>
<svg width="68px" height="61px" viewBox="0 0 68 61" version="1.1" xmlns="http://www.w3.org/2000/svg" xmlns:xlink="http://www.w3.org/1999/xlink">
    <!-- Generator: Sketch 3.8.1 (29687) - http://www.bohemiancoding.com/sketch -->
    <title>iPhone 6</title>
    <desc>Created with Sketch.</desc>
    <defs>
        <path d="M13.0567047,5.61940126 C13.0567047,5.61940126 6.5931475,8.01200207 1.90421026,3.4056612 C2.14644757,1.17593261 2.69866459,-1.29103956e-07 2.2078652,0 C1.71706581,1.29103956e-07 1.41653155,1.47195483 1.41653157,2.59031937 C1.41653158,3.70868391 0.647628208,0.220630924 0.339564916,0.643777335 C0.031501623,1.06692375 0.0482687794,2.27945371 0.976239491,3.31031775 C1.9042102,4.3411818 0.00185603467,2.2500592 0.0018560316,2.7801884 C0.00185602853,3.31031759 -0.112491269,3.63758958 1.45386306,4.48524984 C2.20786517,7.61270542 4.55159253,14.1494296 10.1453572,14.1494294 C9.39201481,19.3982233 10.3241983,24.6649003 10.604755,25.3550451 C10.8853117,26.0451899 11.0864332,24.7616215 11.0864332,24.7616215 C11.0864332,24.7616215 10.9966616,25.8227849 11.4181012,25.8227843 C11.8395409,25.8227837 11.6176395,25.3976301 11.878892,25.3976295 C12.1401444,25.3976289 13.3153818,28.14786 15.5588882,28.7611105 C12.401554,29.2893641 14.2849096,29.7258971 15.5277152,29.725898 C16.7705208,29.7258989 19.7242016,29.641074 19.7242022,29.2010922 C19.7242027,28.7611104 19.5034594,26.3427627 19.5034594,26.3427627 C19.5034594,26.3427627 21.8401672,26.9165309 24.8761336,26.5079282 C24.8761325,28.7611104 23.8140355,29.811413 27.1289762,29.8114117 C30.4439168,29.8114104 31.5498449,28.6147363 28.9836905,28.6147373 C32.3492656,26.507928 32.3380313,25.495644 33.3298964,24.4774441 C33.3298971,25.4956436 33.9050911,25.6909633 34.1015826,24.5080775 C34.2980742,23.3251917 34.8485766,25.3741882 34.8485778,24.4171136 C34.8485789,23.4600389 36.009917,14.6836208 34.1015814,10.7863864 C35.8273991,11.5247571 37.8280449,16.6002769 37.3673859,18.5061874 C36.9067268,20.4120979 38.9923921,19.7815798 39.5372605,19.2217658 C40.0821289,18.6619519 42.0201543,17.1500119 40.9747412,12.8529452 C42.0201534,13.5612149 42.4304827,13.1535984 40.7680936,11.3098853 C39.1057045,9.46617226 35.4665774,5.1186786 30.6077646,5.1186786 C25.7489518,5.1186786 20.9441349,1.75989986 20.9441349,1.75989986" id="path-1"></path>
        <path d="M8.28954321,1.33045058 C8.28954321,1.33045058 4.40401465,2.23040944 2.0574281,4.20867966 C-0.28915846,6.18694988 -0.167987177,4.57850082 0.25873955,5.7311406 C0.685466277,6.88378039 3.65120909,13.450566 4.24458739,11.6191312 C4.83796569,9.78769641 5.46549557,12.3671541 5.1712691,15.300765 C4.87704264,18.2343758 5.03285793,17.6026065 5.03285793,17.6026065 C5.03285793,17.6026065 21.9172211,22.6938532 30.9327989,16.7303786 C32.7772415,14.9816128 30.9460933,16.1957869 30.5940465,13.4171715 C30.2419997,10.638556 30.7391865,10.6422689 30.7391865,10.6422689 C30.7391865,10.6422689 32.6276681,10.2289073 33.0506245,10.697896 C33.473581,11.1668848 33.2791368,10.8060771 33.279137,8.03394036 C33.2791372,5.26180368 32.8298682,1.8753101 31.7845271,1.87531009 C30.7391859,1.87531008 30.7807348,2.32432244 30.2528012,2.32432246 C29.7248676,2.32432248 25.4714903,0.0651233447 24.2419543,0.0651233365 C23.0124184,0.0651233283 8.90032096,1.0006426 8.90032096,1.0006426" id="path-3"></path>
        <path d="M18.697127,4.44380188 C18.697127,4.44380188 15.8608975,-1.07745024 8.96042071,0.335226057 C2.05994389,1.74790236 0.0567058024,6.99543121 0.0567055932,8.82610079 C0.0567053839,10.6567704 1.81871217,9.49208234 1.81871217,9.49208234 C1.81871217,9.49208234 0.97479153,14.0186507 1.96704237,14.0186513 C2.9592932,14.0186518 4.09948409,13.5008389 4.09948409,13.5008389 C4.09948409,13.5008389 3.79267516,18.6888233 6.17298408,19.7138072 C8.55329299,20.7387912 7.88697851,17.8277693 7.88697851,17.8277693 C7.88697851,17.8277693 13.1402096,22.1332538 17.5272702,19.9805118 C21.9143307,17.8277697 18.697127,4.44380188 18.697127,4.44380188 Z" id="path-5"></path>
        <path d="M17.361678,11.4652357 C17.361678,11.4652357 15.5641517,4.66506953 10.0512355,6.52437864 C4.53831922,8.38368775 8.37323916,14.9840463 9.51711952,15.4788585 C10.6609999,15.9736707 13.7248978,20.0523717 20.4961093,17.1343267 C27.2673208,14.2162817 17.361678,11.4652357 17.361678,11.4652357 Z" id="path-7"></path>
        <filter x="-50%" y="-50%" width="200%" height="200%" filterUnits="objectBoundingBox" id="filter-8">
            <feOffset dx="-2" dy="3" in="SourceAlpha" result="shadowOffsetInner1"></feOffset>
            <feComposite in="shadowOffsetInner1" in2="SourceAlpha" operator="arithmetic" k2="-1" k3="1" result="shadowInnerInner1"></feComposite>
            <feColorMatrix values="0 0 0 0 0.436166585   0 0 0 0 0.47225873   0 0 0 0 0.52038159  0 0 0 1 0" type="matrix" in="shadowInnerInner1"></feColorMatrix>
        </filter>
        <path d="M18.697127,4.44380188 C18.697127,4.44380188 15.8608975,-1.07745024 8.96042071,0.335226057 C2.05994389,1.74790236 0.0567058024,6.99543121 0.0567055932,8.82610079 C0.0567053839,10.6567704 1.81871217,9.49208234 1.81871217,9.49208234 C1.81871217,9.49208234 0.97479153,14.0186507 1.96704237,14.0186513 C2.9592932,14.0186518 4.09948409,13.5008389 4.09948409,13.5008389 C4.09948409,13.5008389 3.79267516,18.6888233 6.17298408,19.7138072 C8.55329299,20.7387912 7.88697851,17.8277693 7.88697851,17.8277693 C7.88697851,17.8277693 13.1402096,22.1332538 17.5272702,19.9805118 C21.9143307,17.8277697 18.697127,4.44380188 18.697127,4.44380188 Z" id="path-9"></path>
        <path d="M17.361678,11.4652357 C17.361678,11.4652357 15.5641517,4.66506953 10.0512355,6.52437864 C4.53831922,8.38368775 8.37323916,14.9840463 9.51711952,15.4788585 C10.6609999,15.9736707 13.7248978,20.0523717 20.4961093,17.1343267 C27.2673208,14.2162817 17.361678,11.4652357 17.361678,11.4652357 Z" id="path-11"></path>
        <filter x="-50%" y="-50%" width="200%" height="200%" filterUnits="objectBoundingBox" id="filter-12">
            <feOffset dx="3" dy="3" in="SourceAlpha" result="shadowOffsetInner1"></feOffset>
            <feComposite in="shadowOffsetInner1" in2="SourceAlpha" operator="arithmetic" k2="-1" k3="1" result="shadowInnerInner1"></feComposite>
            <feColorMatrix values="0 0 0 0 0.436166585   0 0 0 0 0.47225873   0 0 0 0 0.52038159  0 0 0 1 0" type="matrix" in="shadowInnerInner1"></feColorMatrix>
        </filter>
        <path d="M4.513418,8.75304787 C4.513418,8.75304787 7.67932623,3.73330225 14.8716955,1.30469518 C22.0640648,-1.12391189 17.2519921,2.8437143 17.2519921,2.8437143 C17.2519921,2.8437143 21.8374471,-0.490385366 22.6478617,0.118224358 C23.4582763,0.726834082 22.3458798,2.28016717 22.3458798,2.28016717 C22.3458798,2.28016717 26.2918119,0.161810731 30.137437,2.28016717 C33.9830622,4.39852361 39.1459772,15.2147672 39.1459767,16.544085 C39.1459762,17.8734028 37.564853,16.2050146 37.564853,16.2050146 C37.564853,16.2050146 39.0485283,18.9313238 39.0485268,19.7504734 C39.0485252,20.5696229 37.6587805,19.2751582 37.6587805,19.2751582 C37.6587805,19.2751582 37.3798752,31.5237701 24.0288637,33.8543096 C10.6778521,36.1848492 4.2727594,31.371729 3.54504674,27.9818138 C2.81733409,24.5918985 3.04880522,23.1574324 2.14728617,24.831139 C1.24576713,26.5048455 0.186685383,25.9811538 1.53084209,20.8610533 C2.87499879,15.7409527 0.117244022,19.5463454 0.117244022,19.5463454 C0.117244022,19.5463454 0.218918969,17.7310665 2.36616849,12.8259606 C4.51341802,7.92085456 4.513418,8.75304787 4.513418,8.75304787 Z" id="path-13"></path>
        <path d="M0.290395553,10.2419677 C0.290395553,10.2419677 -0.976568795,6.60892889 2.5866306,1.76960589 C6.14982999,-3.06971711 9.79284882,3.8447069 10.2695588,5.04368279 C10.7462687,6.24265868 13.4821711,11.6494431 7.49661351,13.3088354 C1.51105595,14.9682278 0.290395553,10.2419677 0.290395553,10.2419677 Z" id="path-15"></path>
        <path d="M11.0742684,5.97450201 C11.0742684,5.97450201 5.76805463,6.02282536 3.41824406,1.75439236 C1.06843349,-2.51404063 -1.12152596,2.35570441 1.14835905,4.70296444 C3.41824405,7.05022447 6.30313483,8.24990693 9.72605092,8.24990714 C13.148967,8.24990735 11.0742684,5.97450201 11.0742684,5.97450201 Z" id="path-17"></path>
        <path d="M17.4731092,4.38686054 C17.4731092,4.38686054 8.68451879,-0.260421429 4.18384969,0.837939079 C-0.316819415,1.93629959 0.902299361,1.95764934 0.902299361,1.95764934 C0.902299361,1.95764934 1.83170648,15.302938 1.83170644,16.8354706 C1.8317064,18.3680032 1.79946521,19.2161628 1.79946521,19.2161628 C1.79946521,19.2161628 14.2587644,16.4846871 15.3553962,17.8504244 C16.452028,19.2161618 18.498701,19.8725945 19.5914635,18.8615093 C20.6842259,17.850424 20.7693422,17.5241438 22.3268091,17.5241432 C23.884276,17.5241427 32.9401909,18.4496814 32.9401909,18.4496814 C32.9401909,18.4496814 32.2592558,2.52251562 33.2948444,1.56860521 C25.7766494,-0.647551414 17.4731092,4.38686054 17.4731092,4.38686054 Z" id="path-19"></path>
        <rect id="path-21" x="15" y="2" width="6" height="18" rx="1"></rect>
        <mask id="mask-22" maskContentUnits="userSpaceOnUse" maskUnits="objectBoundingBox" x="0" y="0" width="6" height="18" fill="white">
            <use xlink:href="#path-21"></use>
        </mask>
    </defs>
    <g id="Page-1" stroke="none" stroke-width="1" fill="none" fill-rule="evenodd">
        <g id="iPhone-6" transform="translate(-14.000000, -194.000000)">
            <g id="底部标签" transform="translate(0.000000, 193.000000)">
                <g id="课程" transform="translate(15.000000, 0.000000)">
                    <g id="Group-46">
                        <g id="Group-54" transform="translate(13.000000, 21.000000)">
                            <g id="Path-2155" transform="translate(0.308798, 10.648746)">
                                <mask id="mask-2" fill="white">
                                    <use xlink:href="#path-1"></use>
                                </mask>
                                <use id="Mask" fill="#979BAA" transform="translate(20.944135, 14.905706) scale(-1, 1) translate(-20.944135, -14.905706) " xlink:href="#path-1"></use>
                                <path d="M30.9564698,21.0996117 C30.9564698,21.0996117 25.8325235,24.7652575 12.0166444,23.6175473 C-1.79923474,22.4698372 8.22984867,18.2535102 8.22984867,18.2535102 L30.9620918,18.7824011" id="Path-2156" fill="#595252" style="mix-blend-mode: soft-light;" mask="url(#mask-2)"></path>
                                <path d="M40.4191016,4.41671312 C40.4191016,4.41671312 38.014782,9.18474707 36.5943706,9.18474726 C35.1739591,9.18474744 37.4702559,8.17993179 36.4881711,8.50825594 C35.5060862,8.83658009 35.423483,9.49992911 35.423483,9.98281166 C35.423483,10.4656942 36.4151577,10.7877647 33.2901838,11.5862403 C30.1652099,12.3847158 28.5960864,17.5995117 28.5960864,19.4354146 C28.5960865,21.2713175 30.7918873,21.8410095 28.2583804,23.6602946 C25.7248734,25.4795797 21.7503544,26.1102052 19.1198317,26.1102061 C16.4893089,26.110207 15.6582732,25.6480965 14.3387442,25.092398 C13.0192153,24.5366996 15.3157864,25.9044018 15.8297086,26.4925853 C16.3436308,27.0807687 16.6050279,29.227159 16.0730454,29.6075384 C15.5410629,29.9879178 11.6803094,31.0050228 17.2032308,31.0050219 C22.7261522,31.005021 25.0429216,30.0471742 25.0429216,30.0471742 L29.7298749,30.9405142 C29.7298749,30.9405142 40.6552103,15.3669854 40.6552115,15.3669852 C40.6552126,15.3669851 41.4809863,4.56570768 41.4809863,4.56570768" fill="#6D5F5F" style="mix-blend-mode: soft-light;" mask="url(#mask-2)"></path>
                                <polyline id="Path-2157" fill="#212242" mask="url(#mask-2)" points="40.9641938 4.94464058 38.9139818 2.63386749 38.7962223 -1.63083346 44.9427183 -0.433021466 44.6506195 4.54301294"></polyline>
                                <path d="M4.71723064,18.4460016 C4.71723064,18.4460016 4.71683417,18.4350452 4.71543847,18.4148892 C4.70033902,18.19683 4.56828939,16.9020374 3.55608613,16.7550877 C2.45032138,16.594555 2.82127432,15.7426906 4.11491839,15.2054839 C5.40856246,14.6682772 6.60117282,15.4984017 6.60117274,15.4984017" id="Path-2164" fill="#514848" style="mix-blend-mode: soft-light;" mask="url(#mask-2)"></path>
                                <path d="M4.32030412,14.6037437 C4.32030412,14.6037437 1.54456458,10.7657193 1.0345901,10.7657194 C0.524615625,10.7657195 2.69277953,9.95939451 2.69277953,9.95939451 L4.32030412,14.6037437 Z" id="Path-2165" fill="#696060" style="mix-blend-mode: soft-light;" mask="url(#mask-2)"></path>
                                <path d="M1.49273187,11.0635574 C1.49273187,11.0635574 2.02341659,11.4129992 1.51447186,12.670715 C1.00552714,13.9284308 1.10964138,16.3831289 2.33881933,18.7221572 C2.93980704,23.0953076 -1.05851363,14.1330156 -0.578860703,12.491074 C-0.0992077716,10.8491324 1.36252075,10.9001641 1.36252075,10.9001641" id="Path-2166" fill="#B1ABAB" style="mix-blend-mode: soft-light;" mask="url(#mask-2)"></path>
                            </g>
                            <path d="M10.2747801,28.2902294 C10.2747801,28.2902294 11.4289728,35.6765059 20.5445216,35.6765058 C24.2411313,35.6765057 26.7443164,33.7919142 26.7443164,33.7919142 C26.7443164,33.7919142 26.0943043,35.4372929 28.1578572,33.1769948 C30.22141,30.9166966 30.0451686,28.1216859 30.0451686,28.1216859 C30.0451686,28.1216859 22.9738565,26.7513428 18.8389793,27.4365144" id="Path-2138" fill="#DCD9E2"></path>
                            <g id="Path-2151" transform="translate(1.710264, 14.318998)">
                                <mask id="mask-4" fill="white">
                                    <use xlink:href="#path-3"></use>
                                </mask>
                                <use id="Mask" fill="#282C51" xlink:href="#path-3"></use>
                                <path d="M8.50587522,0.792012458 C8.50587522,0.792012458 8.98031456,5.23608548 15.0384626,5.23608547 C21.0966107,5.23608546 26.5407513,0.0925005259 26.5407513,0.0925005259" id="Path-2153" fill="#625555" style="mix-blend-mode: soft-light;" mask="url(#mask-4)" transform="translate(17.523313, 2.664293) scale(-1, 1) translate(-17.523313, -2.664293) "></path>
                                <path d="M4.22020447,11.9344126 C4.22020447,11.9344126 5.03380071,4.98957222 3.58761908,3.31816336 C2.14143744,1.64675451 6.41043611,1.42904182 6.41043611,1.42904182 C6.41043611,1.42904182 4.92424156,11.5639099 4.92424152,12.6842034" fill="#393030" style="mix-blend-mode: soft-light;" mask="url(#mask-4)"></path>
                                <path d="M30.6363607,11.5302284 C30.6363607,11.5302284 28.7071658,1.07660094 27.9483491,1.07660105 C27.1895324,1.07660116 29.9451849,0.548916197 29.9451849,0.548916197 L30.6363607,11.5302284 Z" id="Path-2152" fill="#413A3A" style="mix-blend-mode: soft-light;" mask="url(#mask-4)"></path>
                                <path d="M29.8709057,7.16034017 C29.8709057,7.16034017 27.7768652,16.7855986 22.3284376,17.3411077 C16.8800101,17.8966168 13.8175917,17.1746502 4.7641898,13.739085 C-4.28921216,10.3035198 5.41963972,21.4381096 5.41963972,21.4381096 L38.4788952,18.2993366 L30.8440468,10.6051935" id="Path-2154" fill="#665E5E" style="mix-blend-mode: soft-light;" mask="url(#mask-4)"></path>
                            </g>
                            <g id="衣服上图案" transform="translate(14.898754, 17.670097)">
                                <ellipse id="Combined-Shape" fill="#CCCAD4" cx="6.50989736" cy="5.9841058" rx="3.97082111" ry="4.06919194"></ellipse>
                                <g id="Group-50" transform="translate(6.663715, 6.381337) rotate(37.000000) translate(-6.663715, -6.381337) translate(2.163715, 1.881337)" fill="#313755">
                                    <rect id="Rectangle-175" transform="translate(5.989470, 1.516728) rotate(34.000000) translate(-5.989470, -1.516728) " x="5.36659658" y="0.559271299" width="1.2457478" height="1.91491386"></rect>
                                    <rect id="Rectangle-175" transform="translate(2.419327, 6.940808) rotate(34.000000) translate(-2.419327, -6.940808) " x="1.79645327" y="5.98335104" width="1.2457478" height="1.91491386"></rect>
                                    <rect id="Rectangle-175" transform="translate(6.080744, 6.875314) rotate(144.000000) translate(-6.080744, -6.875314) " x="5.4578699" y="5.9178575" width="1.2457478" height="1.91491386"></rect>
                                    <rect id="Rectangle-175" transform="translate(2.328054, 1.582222) rotate(144.000000) translate(-2.328054, -1.582222) " x="1.70517995" y="0.62476484" width="1.2457478" height="1.91491386"></rect>
                                    <rect id="Rectangle-175" x="3.58152493" y="-7.63833441e-14" width="1.2457478" height="1.91491386"></rect>
                                    <rect id="Rectangle-175" x="3.58152493" y="6.54262234" width="1.2457478" height="1.91491386"></rect>
                                    <rect id="Rectangle-175" transform="translate(7.204113, 3.109914) rotate(70.000000) translate(-7.204113, -3.109914) " x="6.58123872" y="2.15245686" width="1.2457478" height="1.91491386"></rect>
                                    <rect id="Rectangle-175" transform="translate(1.204685, 5.347622) rotate(70.000000) translate(-1.204685, -5.347622) " x="0.581811137" y="4.39016549" width="1.2457478" height="1.91491386"></rect>
                                    <rect id="Rectangle-175" transform="translate(7.204113, 5.347622) rotate(110.000000) translate(-7.204113, -5.347622) " x="6.58123872" y="4.39016549" width="1.2457478" height="1.91491386"></rect>
                                    <rect id="Rectangle-175" transform="translate(1.204685, 3.109914) rotate(110.000000) translate(-1.204685, -3.109914) " x="0.581811137" y="2.15245686" width="1.2457478" height="1.91491386"></rect>
                                </g>
                                <path d="M6.50989736,9.09584082 C8.18691567,9.09584082 9.54640762,7.70266959 9.54640762,5.9841058 C9.54640762,4.265542 8.18691567,2.87237078 6.50989736,2.87237078 C4.83287905,2.87237078 3.4733871,4.265542 3.4733871,5.9841058 C3.4733871,7.70266959 4.83287905,9.09584082 6.50989736,9.09584082 Z M6.50989736,8.13838389 C7.67091004,8.13838389 8.61209677,7.17388073 8.61209677,5.9841058 C8.61209677,4.79433086 7.67091004,3.82982771 6.50989736,3.82982771 C5.34888468,3.82982771 4.40769795,4.79433086 4.40769795,5.9841058 C4.40769795,7.17388073 5.34888468,8.13838389 6.50989736,8.13838389 Z" id="Combined-Shape" fill="#343D5D"></path>
                                <ellipse id="Oval-334" fill="#343D5D" cx="6.50989736" cy="5.9841058" rx="1.32360704" ry="1.35639731"></ellipse>
                            </g>
                            <path d="M45.0206768,1.65720935 C45.0206768,1.65720935 45.129919,1.14173589 45.5065945,1.14173588 C45.88327,1.14173587 45.8832699,1.65809861 45.8832699,1.65809861 L41.8012699,16.3866827 C41.8012699,16.3866827 40.7109457,16.5741691 40.7109457,15.7624323 C40.7109457,14.9506955 45.0206768,1.65720935 45.0206768,1.65720935 Z" id="Path-2139" fill="#F9A764" transform="translate(43.297108, 8.773569) rotate(14.000000) translate(-43.297108, -8.773569) "></path>
                        </g>
                        <g id="Group-47">
                            <g id="左耳" transform="translate(56.883076, 12.312771) scale(-1, 1) rotate(11.000000) translate(-56.883076, -12.312771) translate(46.883076, 1.812771)">
                                <mask id="mask-6" fill="white">
                                    <use xlink:href="#path-5"></use>
                                </mask>
                                <use id="Mask" fill="#929CA6" xlink:href="#path-5"></use>
                                <path d="M19.7524653,5.6150996 C19.7524653,5.6150996 10.4546039,-4.60048289 2.70446853,6.80563561 C2.13349367,8.21684699 3.40935144,7.31226826 3.40935143,8.21684683 C3.40935142,9.12142541 1.86459059,13.3888787 2.718519,13.3888792 C3.57244741,13.3888797 4.52268358,13.5402683 3.45060697,14.2023554 C2.37853036,14.8644425 -0.105014295,15.0441701 -0.105014253,14.7117103 C-0.10501421,14.3792504 -1.91485278,5.54391966 -1.91485278,5.54391966 C-1.91485278,5.54391966 2.81618332,-2.40948817 6.49007449,-2.40948825 C10.1639657,-2.40948833 13.7681855,-2.20374478 13.7681855,-2.20374478 L18.1060867,1.61001679" id="Path-2148" fill="#D8D8D8" style="mix-blend-mode: soft-light;" mask="url(#mask-6)"></path>
                                <g id="Path-2131" mask="url(#mask-6)">
                                    <use fill="#8692A2" fill-rule="evenodd" xlink:href="#path-7"></use>
                                    <use fill="black" fill-opacity="1" filter="url(#filter-8)" xlink:href="#path-7"></use>
                                </g>
                                <path d="M16.9340401,17.5417838 C16.9340401,17.5417838 13.3303038,18.64882 11.8359655,16.4634451 C10.3416272,14.2780703 13.0330032,14.6530972 13.0330032,14.6530972 C13.0330032,14.6530972 9.01857393,10.6160668 12.1206428,10.616067 C15.2227117,10.6160672 14.3517034,10.4367062 14.3517034,10.4367062 C14.3517034,10.4367062 12.4135905,8.36242632 14.2239468,8.36242625 C16.0343032,8.36242618 18.4285963,8.50069703 19.5224708,9.86970884 C20.6163453,11.2387207 20.6163456,19.2960407 20.6163456,19.2960407" id="Path-2132" fill="#DEDBE4" mask="url(#mask-6)"></path>
                                <path d="M19.0290235,4.78550338 C19.0290235,4.78550338 14.1561945,10.6859958 13.5596421,15.7123931 C12.9630897,20.7387904 10.1981686,17.7951279 8.90674185,16.6144064 C7.61531511,15.4336848 6.02227244,16.887411 8.05719246,20.7387904 C10.0921125,24.5901697 17.4144754,25.1462234 17.4144754,25.1462234 L22.8605784,6.52358824" id="Path-2145" fill="#464141" style="mix-blend-mode: soft-light;" mask="url(#mask-6)"></path>
                            </g>
                            <g id="左耳" transform="translate(0.000000, 6.784079)">
                                <mask id="mask-10" fill="white">
                                    <use xlink:href="#path-9"></use>
                                </mask>
                                <use id="Mask" fill="#929CA6" xlink:href="#path-9"></use>
                                <path d="M19.7524653,5.6150996 C19.7524653,5.6150996 10.4546039,-4.60048289 2.70446853,6.80563561 C2.13349367,8.21684699 3.40935144,7.31226826 3.40935143,8.21684683 C3.40935142,9.12142541 1.86459059,13.3888787 2.718519,13.3888792 C3.57244741,13.3888797 4.52268358,13.5402683 3.45060697,14.2023554 C2.37853036,14.8644425 -0.105014295,15.0441701 -0.105014253,14.7117103 C-0.10501421,14.3792504 -1.91485278,5.54391966 -1.91485278,5.54391966 C-1.91485278,5.54391966 2.81618332,-2.40948817 6.49007449,-2.40948825 C10.1639657,-2.40948833 13.7681855,-2.20374478 13.7681855,-2.20374478 L18.1060867,1.61001679" id="Path-2148" fill="#D8D8D8" style="mix-blend-mode: soft-light;" mask="url(#mask-10)"></path>
                                <g id="Path-2131" mask="url(#mask-10)">
                                    <use fill="#8692A2" fill-rule="evenodd" xlink:href="#path-11"></use>
                                    <use fill="black" fill-opacity="1" filter="url(#filter-12)" xlink:href="#path-11"></use>
                                </g>
                                <path d="M16.9340401,17.5417838 C16.9340401,17.5417838 13.3303038,18.64882 11.8359655,16.4634451 C10.3416272,14.2780703 13.0330032,14.6530972 13.0330032,14.6530972 C13.0330032,14.6530972 9.01857393,10.6160668 12.1206428,10.616067 C15.2227117,10.6160672 14.3517034,10.4367062 14.3517034,10.4367062 C14.3517034,10.4367062 12.4135905,8.36242632 14.2239468,8.36242625 C16.0343032,8.36242618 18.4285963,8.50069703 19.5224708,9.86970884 C20.6163453,11.2387207 20.6163456,19.2960407 20.6163456,19.2960407" id="Path-2132" fill="#DEDBE4" mask="url(#mask-10)"></path>
                                <path d="M19.0290235,4.78550338 C19.0290235,4.78550338 14.1561945,10.6859958 13.5596421,15.7123931 C12.9630897,20.7387904 10.1981686,17.7951279 8.90674185,16.6144064 C7.61531511,15.4336848 6.02227244,16.887411 8.05719246,20.7387904 C10.0921125,24.5901697 17.4144754,25.1462234 17.4144754,25.1462234 L22.8605784,6.52358824" id="Path-2145" fill="#464141" style="mix-blend-mode: soft-light;" mask="url(#mask-10)"></path>
                            </g>
                            <g id="头" transform="translate(14.067783, 2.930970)">
                                <mask id="mask-14" fill="white">
                                    <use xlink:href="#path-13"></use>
                                </mask>
                                <use id="Mask" fill="#AAACB8" xlink:href="#path-13"></use>
                                <path d="M33.1740643,4.82607963 C33.1740643,4.82607963 30.5478687,1.65237635 25.7283709,2.26117001 C20.9088732,2.86996367 22.4938898,4.77713239 20.345452,4.51547378 C18.1970143,4.25381518 17.9762311,3.90992603 15.8837564,3.90992606 C13.7912816,3.90992609 8.52719995,3.0617927 6.46637615,8.30459066 C-2.65303085,30.0651235 14.4185151,34.6914899 12.7449405,34.6914902 C11.0713658,34.6914905 -4.30572697,33.078075 -6.61792143,28.9647574 C-8.9301159,24.8514398 -1.13505148,-1.36355186 -0.450606893,-1.36355196 C0.233837694,-1.36355206 23.1778469,-5.18234776 23.1778469,-5.18234776 L35.181466,0.314049612" id="Path-2140" fill="#9B9B9B" style="mix-blend-mode: soft-light;" mask="url(#mask-14)"></path>
                                <path d="M35.6500289,9.11357667 C35.6500289,9.11357667 41.318337,28.1064169 27.9085193,31.8895592 C14.4987016,35.6727015 13.5993268,34.5509719 13.5993268,34.5509719 C13.5993268,34.5509719 18.7908611,38.9972248 25.1804647,36.606676 C31.5700684,34.2161273 37.7037763,29.1716402 38.961106,25.4575605 C40.2184358,21.7434809 41.9471509,16.9283019 41.2432142,14.4361044 C40.5392776,11.9439069 36.7610041,8.0905081 36.7610041,8.0905081" id="Path-2141" fill="#514949" style="mix-blend-mode: soft-light;" mask="url(#mask-14)"></path>
                            </g>
                            <g id="鼻子" transform="translate(29.723864, 15.850217)">
                                <path d="M0.51729528,11.1485815 C0.51729528,11.1485815 -0.749669068,7.51554268 2.81353033,2.67621968 C6.37672972,-2.16310332 10.0197485,4.75132069 10.4964585,5.95029658 C10.9731685,7.14927247 13.7090708,12.5560569 7.72351324,14.2154492 C1.73795567,15.8748416 0.51729528,11.1485815 0.51729528,11.1485815 Z" id="Path-2119" fill="#403D3C" style="mix-blend-mode: soft-light;"></path>
                                <g id="Path-2119">
                                    <mask id="mask-16" fill="white">
                                        <use xlink:href="#path-15"></use>
                                    </mask>
                                    <use id="Mask" fill="#583F2D" xlink:href="#path-15"></use>
                                    <path d="M-1.29790254,9.56200736 C-1.29790254,9.56200736 -2.56486689,5.92896855 0.998332509,1.08964555 C4.5615319,-3.74967745 8.20455073,3.16474656 8.68126068,4.36372245 C9.15797063,5.56269834 11.893873,10.9694828 5.90831542,12.6288751 C-0.0772421448,14.2882674 -1.29790254,9.56200736 -1.29790254,9.56200736 Z" fill="#9C938C" style="mix-blend-mode: soft-light;" mask="url(#mask-16)"></path>
                                </g>
                                <path d="M6.92165115,10.5685394 C6.92165115,10.5685394 7.15796224,9.16638299 8.03312085,9.16638295 C8.90827947,9.16638291 8.74307797,10.0184132 8.05678609,10.1667032 C7.37049421,10.3149933 6.92165115,10.5685394 6.92165115,10.5685394 Z" id="Path-2122" fill="#0B110F"></path>
                                <path d="M2.61953737,10.8870636 C2.61953737,10.8870636 2.85584845,9.48490717 3.73100707,9.48490713 C4.60616568,9.48490709 4.44096418,10.3369373 3.7546723,10.4852274 C3.06838042,10.6335175 2.61953737,10.8870636 2.61953737,10.8870636 Z" id="Path-2122" fill="#0B110F" transform="translate(3.474559, 10.185985) scale(-1, 1) translate(-3.474559, -10.185985) "></path>
                            </g>
                            <g id="左眼" transform="translate(24.278271, 14.716950)">
                                <ellipse id="Oval-324" fill="#FAF3EB" cx="3.1808668" cy="3.10083502" rx="3.1808668" ry="3.10083502"></ellipse>
                                <ellipse id="Oval-324" fill="#3B1B1E" cx="3.1808668" cy="3.10083502" rx="2.05820793" ry="2.00642266"></ellipse>
                                <ellipse id="Oval-324" fill="#F8F4EB" cx="2.05820793" cy="2.00642266" rx="0.374219624" ry="0.36480412"></ellipse>
                            </g>
                            <g id="右眼" transform="translate(40.161252, 14.263643)">
                                <ellipse id="Oval-324-Copy" fill="#FAF3EB" cx="3.1808668" cy="3.10083502" rx="3.1808668" ry="3.10083502"></ellipse>
                                <ellipse id="Oval-324-Copy-2" fill="#3B1B1E" cx="3.1808668" cy="3.10083502" rx="2.05820793" ry="2.00642266"></ellipse>
                                <ellipse id="Oval-324-Copy-3" fill="#F8F4EB" cx="2.05820793" cy="2.00642266" rx="0.374219624" ry="0.36480412"></ellipse>
                            </g>
                            <g id="眉毛" transform="translate(20.420975, 7.237386)" fill="#573C29">
                                <path d="M0.164747901,4.22630353 C0.164747901,4.22630353 1.40832299,1.79635172 3.56255344,1.79635173 C5.71678389,1.79635174 6.1374399,2.76388559 5.57736218,3.26396946 C5.01728446,3.76405334 3.91497032,3.30180297 2.94674372,3.76405326 C1.97851712,4.22630354 0.82813439,5.17432008 0.326609476,4.96127789 C-0.174915438,4.74823569 0.164747901,4.22630353 0.164747901,4.22630353 Z" id="Path-2120"></path>
                                <path d="M22.3023238,2.6885813 C22.3023238,2.6885813 23.6782575,-1.10509987e-08 26.0617714,0 C28.4452852,1.10509983e-08 28.9107133,1.07051236 28.2910243,1.62382216 C27.6713352,2.17713197 26.4516974,1.66568244 25.3804186,2.17713188 C24.3091397,2.68858131 23.0363171,3.73749905 22.4814129,3.50178192 C21.9265087,3.26606479 22.3023238,2.6885813 22.3023238,2.6885813 Z" id="Path-2120-Copy" transform="translate(25.358813, 1.767893) scale(-1, 1) translate(-25.358813, -1.767893) "></path>
                            </g>
                            <g id="Rectangle-173" transform="translate(34.041853, 30.694004) rotate(-28.000000) translate(-34.041853, -30.694004) translate(28.041853, 26.194004)">
                                <mask id="mask-18" fill="white">
                                    <use xlink:href="#path-17"></use>
                                </mask>
                                <use id="Mask" fill="#832C35" xlink:href="#path-17"></use>
                                <rect fill="#FFFFFF" mask="url(#mask-18)" transform="translate(7.033892, 3.513128) rotate(29.000000) translate(-7.033892, -3.513128) " x="3.40349591" y="1.35992068" width="7.26079127" height="4.3064155" rx="2.15320775"></rect>
                                <rect id="Rectangle-173-Copy" fill="#ED0A5C" mask="url(#mask-18)" transform="translate(1.605030, 6.723840) rotate(29.000000) translate(-1.605030, -6.723840) " x="-1.37008873" y="4.57063268" width="5.95023815" height="4.3064155" rx="2.15320775"></rect>
                            </g>
                            <ellipse id="Oval-330" fill-opacity="0.430000007" fill="#FFFFFF" cx="25.7531191" cy="18.2300781" rx="6.01284277" ry="6.00631636"></ellipse>
                            <path d="M25.7531191,24.5763747 C29.2618903,24.5763747 32.1063114,21.7350409 32.1063114,18.2300781 C32.1063114,14.7251154 29.2618903,11.8837816 25.7531191,11.8837816 C22.2443478,11.8837816 19.3999267,14.7251154 19.3999267,18.2300781 C19.3999267,21.7350409 22.2443478,24.5763747 25.7531191,24.5763747 L25.7531191,24.5763747 Z M25.7531191,23.8964143 C22.6202876,23.8964143 20.0806259,21.3595092 20.0806259,18.2300781 C20.0806259,15.1006471 22.6202876,12.563742 25.7531191,12.563742 C28.8859505,12.563742 31.4256122,15.1006471 31.4256122,18.2300781 C31.4256122,21.3595092 28.8859505,23.8964143 25.7531191,23.8964143 L25.7531191,23.8964143 Z" id="Oval-330" fill="#2B1321"></path>
                            <ellipse id="Oval-330" fill-opacity="0.430000007" fill="#FFFFFF" cx="44.3588967" cy="16.8701575" rx="6.01284277" ry="6.00631636"></ellipse>
                            <path d="M44.3588967,23.216454 C47.8676679,23.216454 50.7120891,20.3751203 50.7120891,16.8701575 C50.7120891,13.3651947 47.8676679,10.5238609 44.3588967,10.5238609 C40.8501254,10.5238609 38.0057043,13.3651947 38.0057043,16.8701575 C38.0057043,20.3751203 40.8501254,23.216454 44.3588967,23.216454 L44.3588967,23.216454 Z M44.3588967,22.5364936 C41.2260652,22.5364936 38.6864035,19.9995885 38.6864035,16.8701575 C38.6864035,13.7407264 41.2260652,11.2038213 44.3588967,11.2038213 C47.4917282,11.2038213 50.0313899,13.7407264 50.0313899,16.8701575 C50.0313899,19.9995885 47.4917282,22.5364936 44.3588967,22.5364936 L44.3588967,22.5364936 Z" id="Oval-330" fill="#2B1321"></path>
                            <path d="M31.8010093,17.151989 C31.8104572,17.1373522 31.8307044,17.1070989 31.8610758,17.0634881 C31.9128084,16.9892043 31.9733494,16.9060159 32.0420051,16.8161898 C32.2384914,16.5591161 32.4594615,16.301989 32.6988616,16.0630602 C33.2362268,15.5267531 33.7831741,15.1653296 34.2989716,15.0536452 C35.6766006,14.7553505 36.3859146,15.0208591 37.8572929,16.452298 L38.3322172,15.9651817 C36.7092795,14.3862972 35.7778989,14.0376653 34.1547701,14.3891175 C33.4872106,14.5336626 32.8390381,14.9619758 32.2177476,15.582043 C31.9551345,15.844139 31.7147785,16.1238242 31.500969,16.4035628 C31.4260212,16.5016211 31.3595947,16.5928966 31.3022889,16.6751831 C31.2672373,16.7255144 31.2425763,16.7623627 31.2289237,16.7835134 L31.8010093,17.151989 L31.8010093,17.151989 Z" id="Path-2129" fill="#2B1321"></path>
                            <path d="M34.4256251,17.1075683 C34.344974,17.1284993 34.2280678,17.1723125 34.0870679,17.2468216 C33.8638486,17.3647783 33.6431369,17.5288908 33.4390663,17.7464813 C33.0435325,18.1682196 32.7588456,18.7392371 32.627433,19.4705319 C32.5831524,19.7169479 32.7472326,19.9525651 32.9939164,19.9967976 C33.2406001,20.0410302 33.4764733,19.8771281 33.5207539,19.6307121 C33.6213813,19.070733 33.8263588,18.6595946 34.101409,18.366322 C34.2339945,18.2249527 34.3739857,18.1208607 34.5114694,18.0482096 C34.5868912,18.0083542 34.6383131,17.9890827 34.6538494,17.9850506 C34.8964227,17.9220966 35.0419775,17.6746312 34.9789551,17.4323212 C34.9159327,17.1900111 34.6681985,17.0446143 34.4256251,17.1075683 L34.4256251,17.1075683 Z" id="Path-2143" fill="#DDDDDD" style="mix-blend-mode: soft-light;"></path>
                            <path d="M24.6720433,13.166405 C24.5494352,13.2069523 24.34919,13.2875478 24.096646,13.4133617 C23.6802278,13.6208154 23.2642291,13.8837971 22.8744366,14.2085504 C21.9732573,14.9593627 21.348515,15.9232007 21.1377902,17.1166846 L22.0315939,17.2741547 C22.2020011,16.3090179 22.7088398,15.5270789 23.4557618,14.9047852 C23.7876557,14.6282697 24.1448923,14.4024356 24.5017095,14.2246743 C24.6259116,14.1627985 24.7406021,14.1115715 24.8425045,14.0705575 C24.9010209,14.0470056 24.9403748,14.0326728 24.9572927,14.0270779 L24.6720433,13.166405 L24.6720433,13.166405 Z" id="Path-2145" fill="#FFFFFF"></path>
                            <path d="M43.2417054,11.9971083 C43.1190973,12.0376557 42.9188521,12.1182511 42.6663081,12.244065 C42.2498899,12.4515188 41.8338912,12.7145004 41.4440987,13.0392538 C40.5429194,13.7900661 39.9181771,14.7539041 39.7074523,15.947388 L40.601256,16.1048581 C40.7716632,15.1397213 41.2785019,14.3577822 42.0254239,13.7354885 C42.3573178,13.458973 42.7145544,13.233139 43.0713716,13.0553776 C43.1955737,12.9935018 43.3102642,12.9422749 43.4121666,12.9012608 C43.470683,12.8777089 43.5100369,12.8633761 43.5269548,12.8577812 L43.2417054,11.9971083 L43.2417054,11.9971083 Z" id="Path-2145-Copy" fill="#FFFFFF"></path>
                        </g>
                    </g>
                    <g id="Rectangle-185" transform="translate(16.000000, 32.000000)">
                        <mask id="mask-20" fill="white">
                            <use xlink:href="#path-19"></use>
                        </mask>
                        <use id="Mask" fill="#6F8C53" xlink:href="#path-19"></use>
                        <g style="mix-blend-mode: soft-light;" mask="url(#mask-20)" stroke-width="2" stroke="#B3B3B3" fill="#3B3333">
                            <use mask="url(#mask-22)" xlink:href="#path-21"></use>
                        </g>
                        <path d="M23.9338463,7.13238371 C23.9338463,7.13238371 27.6036393,6.26840062 30.1418069,6.26840062 C32.6799744,6.26840062 31.5939059,15.4672423 31.5939059,15.4672423 C31.5939059,15.4672423 24.6665394,13.4178525 23.2830908,14.6602042 C21.8996422,15.9025559 23.9338463,7.13238371 23.9338463,7.13238371 Z" id="Path-2161" fill="#574C4C" style="mix-blend-mode: soft-light;" mask="url(#mask-20)"></path>
                        <path d="M16.9436527,4.49042158 C16.8985826,4.46920013 16.8145973,4.4306448 16.6949119,4.37722807 C16.4970655,4.28892733 16.2699852,4.19072924 16.0168772,4.08510583 C15.2948384,3.78379501 14.5075029,3.48263515 13.6803169,3.20141071 C12.3079941,2.73485213 10.9646267,2.37041876 9.69843464,2.14738475 C8.14738815,1.87417491 6.77468879,1.82438807 5.62278269,2.04400231 C4.89136024,2.18345012 4.2348284,2.33526247 3.64904714,2.4977602 C1.67701686,3.04480818 0.724720883,3.62392888 0.419547592,4.083427 C0.266773208,4.31345873 0.329402665,4.6237844 0.559434399,4.77655879 C0.789466133,4.92933317 1.09979181,4.86670372 1.25256619,4.63667198 C1.4058135,4.40592817 2.15605018,3.94968599 3.91635611,3.46137108 C4.4749655,3.30641092 5.10486488,3.16075689 5.8100623,3.02630896 C6.82570219,2.83267427 8.08333768,2.87828782 9.52495981,3.13222305 C10.7355165,3.34545715 12.0311108,3.69693047 13.3584335,4.14819001 C14.1629539,4.42170869 14.9295,4.71491646 15.6317594,5.00797326 C16.0518216,5.1832676 16.3558121,5.31894146 16.517659,5.39514768 C16.7674922,5.51278261 17.065384,5.40561473 17.1830189,5.15578151 C17.3006538,4.9059483 17.1934859,4.60805651 16.9436527,4.49042158 L16.9436527,4.49042158 Z" id="Path-2159" fill="#484040" style="mix-blend-mode: soft-light;" mask="url(#mask-20)"></path>
                        <path d="M33.9436527,4.49042158 C33.8985826,4.46920013 33.8145973,4.4306448 33.6949119,4.37722807 C33.4970655,4.28892733 33.2699852,4.19072924 33.0168772,4.08510583 C32.2948384,3.78379501 31.5075029,3.48263515 30.6803169,3.20141071 C29.3079941,2.73485213 27.9646267,2.37041876 26.6984346,2.14738475 C25.1473882,1.87417491 23.7746888,1.82438807 22.6227827,2.04400231 C21.8913602,2.18345012 21.2348284,2.33526247 20.6490471,2.4977602 C18.6770169,3.04480818 17.7247209,3.62392888 17.4195476,4.083427 C17.2667732,4.31345873 17.3294027,4.6237844 17.5594344,4.77655879 C17.7894661,4.92933317 18.0997918,4.86670372 18.2525662,4.63667198 C18.4058135,4.40592817 19.1560502,3.94968599 20.9163561,3.46137108 C21.4749655,3.30641092 22.1048649,3.16075689 22.8100623,3.02630896 C23.8257022,2.83267427 25.0833377,2.87828782 26.5249598,3.13222305 C27.7355165,3.34545715 29.0311108,3.69693047 30.3584335,4.14819001 C31.1629539,4.42170869 31.9295,4.71491646 32.6317594,5.00797326 C33.0518216,5.1832676 33.3558121,5.31894146 33.517659,5.39514768 C33.7674922,5.51278261 34.065384,5.40561473 34.1830189,5.15578151 C34.3006538,4.9059483 34.1934859,4.60805651 33.9436527,4.49042158 L33.9436527,4.49042158 Z" id="Path-2159" fill="#484040" style="mix-blend-mode: soft-light;" mask="url(#mask-20)" transform="translate(25.783388, 3.674673) scale(-1, 1) translate(-25.783388, -3.674673) "></path>
                        <path d="M16.9436527,3.49042158 C16.8985826,3.46920013 16.8145973,3.4306448 16.6949119,3.37722807 C16.4970655,3.28892733 16.2699852,3.19072924 16.0168772,3.08510583 C15.2948384,2.78379501 14.5075029,2.48263515 13.6803169,2.20141071 C12.3079941,1.73485213 10.9646267,1.37041876 9.69843464,1.14738475 C8.14738815,0.874174906 6.77468879,0.824388071 5.62278269,1.04400231 C4.89136024,1.18345012 4.2348284,1.33526247 3.64904714,1.4977602 C1.67701686,2.04480818 0.724720883,2.62392888 0.419547592,3.083427 C0.266773208,3.31345873 0.329402665,3.6237844 0.559434399,3.77655879 C0.789466133,3.92933317 1.09979181,3.86670372 1.25256619,3.63667198 C1.4058135,3.40592817 2.15605018,2.94968599 3.91635611,2.46137108 C4.4749655,2.30641092 5.10486488,2.16075689 5.8100623,2.02630896 C6.82570219,1.83267427 8.08333768,1.87828782 9.52495981,2.13222305 C10.7355165,2.34545715 12.0311108,2.69693047 13.3584335,3.14819001 C14.1629539,3.42170869 14.9295,3.71491646 15.6317594,4.00797326 C16.0518216,4.1832676 16.3558121,4.31894146 16.517659,4.39514768 C16.7674922,4.51278261 17.065384,4.40561473 17.1830189,4.15578151 C17.3006538,3.9059483 17.1934859,3.60805651 16.9436527,3.49042158 L16.9436527,3.49042158 Z" id="Path-2159" fill="#AABC98" mask="url(#mask-20)"></path>
                        <path d="M33.9436527,3.49042158 C33.8985826,3.46920013 33.8145973,3.4306448 33.6949119,3.37722807 C33.4970655,3.28892733 33.2699852,3.19072924 33.0168772,3.08510583 C32.2948384,2.78379501 31.5075029,2.48263515 30.6803169,2.20141071 C29.3079941,1.73485213 27.9646267,1.37041876 26.6984346,1.14738475 C25.1473882,0.874174906 23.7746888,0.824388071 22.6227827,1.04400231 C21.8913602,1.18345012 21.2348284,1.33526247 20.6490471,1.4977602 C18.6770169,2.04480818 17.7247209,2.62392888 17.4195476,3.083427 C17.2667732,3.31345873 17.3294027,3.6237844 17.5594344,3.77655879 C17.7894661,3.92933317 18.0997918,3.86670372 18.2525662,3.63667198 C18.4058135,3.40592817 19.1560502,2.94968599 20.9163561,2.46137108 C21.4749655,2.30641092 22.1048649,2.16075689 22.8100623,2.02630896 C23.8257022,1.83267427 25.0833377,1.87828782 26.5249598,2.13222305 C27.7355165,2.34545715 29.0311108,2.69693047 30.3584335,3.14819001 C31.1629539,3.42170869 31.9295,3.71491646 32.6317594,4.00797326 C33.0518216,4.1832676 33.3558121,4.31894146 33.517659,4.39514768 C33.7674922,4.51278261 34.065384,4.40561473 34.1830189,4.15578151 C34.3006538,3.9059483 34.1934859,3.60805651 33.9436527,3.49042158 L33.9436527,3.49042158 Z" id="Path-2159" fill="#AABC98" mask="url(#mask-20)" transform="translate(25.783388, 2.674673) scale(-1, 1) translate(-25.783388, -2.674673) "></path>
                    </g>
                    <text font-family="STHeitiSC-Medium, Heiti SC" font-size="12.1904762" font-weight="bold" fill="#FFFFFF">
                        <tspan x="21" y="47">课程</tspan>
                    </text>
                </g>
            </g>
        </g>
    </g>
</svg>