<?xml version="1.0" encoding="UTF-8" standalone="no"?>
<svg width="38px" height="26px" viewBox="0 0 38 26" version="1.1" xmlns="http://www.w3.org/2000/svg" xmlns:xlink="http://www.w3.org/1999/xlink">
    <!-- Generator: Sketch 3.8.1 (29687) - http://www.bohemiancoding.com/sketch -->
    <title>1çº§</title>
    <desc>Created with Sketch.</desc>
    <defs>
        <path d="M7.81526543,5.52043998 C7.81526543,5.52043998 2.82824816,0.799731961 1.79745566,0.288427007 C0.766663172,-0.222877948 0.780199284,0.465135888 2.32064538,2.04564948 C3.86109148,3.62616308 5.05739317,4.93476007 5.05739317,4.93476007 C5.05739317,4.93476007 0.142158079,4.29681676 0.142158048,4.79606083 C0.142158018,5.2953049 3.43552562,6.40965016 4.24645936,6.4096501 C5.0573931,6.40965005 0.0951920273,8.79787192 0.721542978,9.28505523 C1.34789393,9.77223853 5.75162946,7.83300736 5.25571714,8.39091114 C4.75980483,8.94881492 4.52435921,10.7409407 4.52435904,12.3335146 C4.52435886,13.9260885 5.26740743,14.9591143 5.69728024,14.2970499 C6.12715305,13.6349855 5.32257724,9.14105657 6.56892129,8.58461495 C7.81526533,8.02817333 8.8095515,8.02817334 8.8095515,8.02817334" id="path-1"></path>
        <path d="M8.03115303,5.77489507 C8.03115303,5.77489507 5.30419555,-0.42382086 2.73140298,0.0836102106 C0.158610397,0.591041282 4.67366662,2.51359983 5.16443367,3.6450598 C5.65520073,4.77651978 6.46976717,5.70505937 4.40294468,4.30977184 C2.33612218,2.9144843 0.674449185,3.10202557 0.674449154,3.70589866 C0.674449123,4.30977175 4.32426215,5.8088793 4.32426192,6.4262986 C4.3242617,7.04371789 3.32779156,6.77327075 2.682593,6.7732702 C2.03739443,6.77326965 2.85169423,7.3930662 1.96911381,7.39306604 C1.0865334,7.39306589 -0.37083118,7.60291248 0.289570476,8.13026187 C0.949972133,8.65761126 0.423731219,8.28354738 0.423731235,9.05211313 C0.423731252,9.82067888 0.492011845,9.77362403 0.49201186,10.9072229 C0.492011874,12.0408218 7.2640626,8.12218151 7.64760796,7.27424015" id="path-3"></path>
        <path d="M33.4312741,9.65725722 C33.4312741,9.65725722 36.266753,10.0417997 37.1111476,11.7169447 C37.9555422,13.3920897 38.0287058,16.2239296 35.72999,17.0910295 C33.4312741,17.9581294 33.5863811,10.5189882 33.5863811,10.5189882" id="path-5"></path>
        <filter x="-50%" y="-50%" width="200%" height="200%" filterUnits="objectBoundingBox" id="filter-6">
            <feOffset dx="0" dy="1" in="SourceAlpha" result="shadowOffsetInner1"></feOffset>
            <feComposite in="shadowOffsetInner1" in2="SourceAlpha" operator="arithmetic" k2="-1" k3="1" result="shadowInnerInner1"></feComposite>
            <feColorMatrix values="0 0 0 0 1   0 0 0 0 1   0 0 0 0 1  0 0 0 0.5 0" type="matrix" in="shadowInnerInner1"></feColorMatrix>
        </filter>
        <path d="M6.63903644,4.42086857 C8.42912299,2.0246528 14.4062202,-1.66162162 21.5087937,1.02577109 C28.6113672,3.71316379 29.3390437,11.4723762 28.8331977,12.4747943 C28.3273517,13.4772123 26.6999725,16.9162982 27.1190627,18.3038366 C25.4813923,18.6866638 24.1323686,19.7186134 23.1231745,20.1947855 C22.1139804,20.6709575 14.1253229,25.0069356 5.94348028,17.1733337 C-0.796376376,10.9521499 0.144184719,9.79840444 0.144184719,9.79840444 C0.144184719,9.79840444 4.84894989,6.81708434 6.63903644,4.42086857 Z" id="path-7"></path>
        <path d="M31.902576,17.4812919 C31.902576,17.4812919 26.8248624,14.425349 22.9652785,15.9533205 C22.9652785,11.8388626 25.2369549,10.0703544 27.997892,10.3847855 C30.7588292,10.6992166 33.7326558,12.5627593 31.9444699,16.961176" id="path-9"></path>
        <filter x="-50%" y="-50%" width="200%" height="200%" filterUnits="objectBoundingBox" id="filter-10">
            <feOffset dx="0" dy="1" in="SourceAlpha" result="shadowOffsetInner1"></feOffset>
            <feComposite in="shadowOffsetInner1" in2="SourceAlpha" operator="arithmetic" k2="-1" k3="1" result="shadowInnerInner1"></feComposite>
            <feColorMatrix values="0 0 0 0 1   0 0 0 0 1   0 0 0 0 1  0 0 0 0.5 0" type="matrix" in="shadowInnerInner1"></feColorMatrix>
        </filter>
    </defs>
    <g id="Page-1" stroke="none" stroke-width="1" fill="none" fill-rule="evenodd">
        <g id="iPhone-6" transform="translate(-26.000000, -34.000000)">
            <g id="Group-20" transform="translate(24.000000, 0.000000)">
                <g id="1çº§" transform="translate(0.000000, 30.000000)">
                    <g id="ðŸŸ">
                        <g id="Group-65">
                            <g id="Group-64" transform="translate(21.517081, 17.939013) rotate(-11.000000) translate(-21.517081, -17.939013) translate(2.517081, 3.439013)">
                                <g id="Path-4613" transform="translate(0.000000, 9.062633)">
                                    <mask id="mask-2" fill="white">
                                        <use xlink:href="#path-1"></use>
                                    </mask>
                                    <use id="Mask" fill="#7D1562" xlink:href="#path-1"></use>
                                    <path d="M8.13311371,6.81686499 C8.13311371,6.81686499 6.07418969,7.24876544 5.58505386,9.17472462 C5.09591804,11.1006838 5.63783253,14.0304706 5.10726783,14.0304703 C4.57670313,14.03047 5.55171999,16.7237064 6.38705184,16.29764 C7.22238369,15.8715736 10.5986327,10.1576837 10.5986325,10.1576834 C10.5986323,10.1576831 11.8855595,5.68734242 11.8855595,5.68734242 L8.13311374,5.1944487 C8.13311374,5.1944487 6.4086136,5.93432376 4.70846333,5.93432377 C3.00831305,5.93432378 1.78553431,5.66575986 0.917690863,5.51128755 C0.0498474154,5.35681523 2.90961623,6.94589305 3.88795417,6.94589311 C4.8662921,6.94589317 5.94994577,6.45094079 6.48198891,6.45094073 C7.01403205,6.45094067 7.86676897,5.77728759 7.86676897,5.77728759" fill="#554A4A" style="mix-blend-mode: soft-light;" mask="url(#mask-2)"></path>
                                </g>
                                <g id="Path-4614" transform="translate(10.863599, 0.000000)">
                                    <mask id="mask-4" fill="white">
                                        <use xlink:href="#path-3"></use>
                                    </mask>
                                    <use id="Mask" fill="#7D1562" xlink:href="#path-3"></use>
                                    <path d="M4.02172302,7.55749696 C4.02172302,7.55749696 3.41649184,8.17335233 2.41648688,8.17335235 C1.41648192,8.17335236 1.65596029,8.62636135 1.65596029,9.3545314 C1.6559603,10.0827014 0.811250743,11.2265739 0.811250743,11.2265739 L7.41496094,6.26163458 C7.41496094,6.26163458 6.34340063,3.82624233 5.59749512,3.16340824 C4.85158961,2.50057414 5.6903179,3.42909465 5.69031792,4.61797181 C5.69031794,5.80684898 6.23462715,6.11971151 4.49270453,5.21902299 C2.75078191,4.31833446 2.16438097,4.50210411 3.3285428,5.38186936 C4.49270463,6.26163462 4.02172302,7.55749696 4.02172302,7.55749696 Z" fill="#665A5A" style="mix-blend-mode: soft-light;" mask="url(#mask-4)"></path>
                                </g>
                                <path d="M26.8725634,25.4340605 C26.8725634,25.4340605 27.1910542,27.9646911 28.1053643,26.9472431 C29.0196744,25.9297952 28.1575027,27.7820762 28.7365144,27.986391 C29.3155262,28.1907057 30.2879774,27.0241095 29.9384438,25.9458408 C29.5889102,24.8675722 31.3960918,27.3346313 31.6351744,26.6402361 C31.8742569,25.9458408 31.1506637,24.0735409 29.9435891,24.073541 C28.7365144,24.073541 27.471127,24.8402181 27.471127,24.8402181" id="Path-4604" fill="#7690C6"></path>
                                <g id="Path-4603">
                                    <use fill="#FAFAD7" fill-rule="evenodd" xlink:href="#path-5"></use>
                                    <use fill="black" fill-opacity="1" filter="url(#filter-6)" xlink:href="#path-5"></use>
                                </g>
                                <ellipse id="Oval-1219-Copy" fill="#251400" cx="35.5990881" cy="13.7909629" rx="0.663337046" ry="0.788055024"></ellipse>
                                <g id="Path-4610" transform="translate(6.883577, 4.557688)">
                                    <mask id="mask-8" fill="white">
                                        <use xlink:href="#path-7"></use>
                                    </mask>
                                    <use id="Mask" fill="#EF5559" xlink:href="#path-7"></use>
                                    <ellipse id="Oval-1529" fill="#D8D8D8" style="mix-blend-mode: soft-light;" mask="url(#mask-8)" cx="8" cy="11.5" rx="1" ry="0.5"></ellipse>
                                    <ellipse id="Oval-1529-Copy" fill="#D8D8D8" style="mix-blend-mode: soft-light;" mask="url(#mask-8)" cx="9.5" cy="9.25" rx="0.5" ry="0.25"></ellipse>
                                    <path d="M15.7107503,11.7969178 C15.7107503,11.7969178 14.8475985,7.52639432 19.5704316,5.99320414 C24.2932647,4.46001396 25.7889395,8.28082144 25.7889395,9.64441172 C25.7889395,11.008002 26.132577,11.7969179 24.9000969,12.8537917 C21.4768477,8.14272651 15.7107503,11.7969178 15.7107503,11.7969178 Z" id="Path-4612" fill="#7D1562" mask="url(#mask-8)"></path>
                                    <path d="M15.663508,16.9102283 C15.663508,16.9102283 19.5207058,18.9885076 24.4928173,18.9885075 C18.88199,19.9048343 14.0295837,22.9944207 5.39992745,14.4784976 C-3.22972877,5.96257454 1.78781814,7.41725304 1.78781814,7.41725304 L-4.34420488,8.50991641 L-0.830393174,20.4587567 L19.9973402,25.1209687 L29.5968658,19.6498666 L26.7379346,17.3532104 C26.7379346,17.3532104 20.6054739,18.1450349 17.6596047,17.1834914" id="Path-4611" fill="#283129" style="mix-blend-mode: soft-light;" mask="url(#mask-8)"></path>
                                    <path d="M27.2599285,18.12237 C27.2599285,18.12237 16.5754356,18.5615583 15.4746783,16.6219745 C14.373921,14.6823907 14.1853039,12.9486149 14.1853039,12.9486149 C14.1853039,12.9486149 14.9939261,11.8625227 16.0652737,11.3835019 C17.3364681,11.0528697 17.9271742,10.5177398 20.7994527,11.2732859 C16.8640368,10.722729 14.4338346,13.1439531 14.6534936,13.3808875 C15.4058411,15.6800648 16.236852,16.4804873 16.236852,16.4804873 C16.236852,16.4804873 21.334917,18.5608754 27.259929,16.4804873 C27.9683802,13.7334399 28.2093453,12.7874767 28.2093452,11.6914434 C28.2093452,10.5954101 25.3214619,4.3095078 22.6436304,3.08825835 C19.9657988,1.8670089 17.5422674,1.20605339 16.236852,1.20605331 C14.9314365,1.20605323 11.113513,1.95809274 6.25429578,4.41010018 C1.39507855,6.86210763 13.7722313,-2.99392991 13.7722313,-2.99392991 L26.8660367,-0.0607826577 L33.6019963,9.75510679 L28.9487628,20.6137845 L14.7976211,24.6311426 L27.2599285,18.12237 Z" fill="#FFFFFF" style="mix-blend-mode: soft-light;" mask="url(#mask-8)"></path>
                                </g>
                                <path d="M14.5986837,20.2178435 C14.5986837,20.2178435 10.9267163,20.2852744 10.2361715,21.4014468 C9.54562672,22.5176193 9.93653208,23.1190149 10.4968435,22.7602973 C11.0571549,22.4015797 11.97166,20.8693095 12.9364129,20.8693096 C13.9011659,20.8693096 13.3999692,20.9048676 12.651254,21.5718896 C11.9025389,22.2389117 11.5793524,22.8673538 11.7640451,23.5833851 C11.9487378,24.2994163 12.1440081,24.2170882 12.5402105,23.965859 C12.9364129,23.7146298 12.8200743,22.0837865 13.7093789,21.476548 C14.5986836,20.8693095 14.0561827,21.5062672 14.0561828,22.0288463 C14.056183,22.5514254 13.5286223,25.0519963 15.1614391,25.2507094 C16.7942559,25.4494224 14.3550269,23.2706868 15.0859253,21.6785836 C15.8168237,20.0864805 14.5986837,20.2178435 14.5986837,20.2178435 Z" id="Path-4600" fill="#7690C6"></path>
                                <g id="Path-4602">
                                    <use fill="#FAFAD7" fill-rule="evenodd" xlink:href="#path-9"></use>
                                    <use fill="black" fill-opacity="1" filter="url(#filter-10)" xlink:href="#path-9"></use>
                                </g>
                                <ellipse id="Oval-1219" fill="#251400" cx="29.18683" cy="14.9730454" rx="0.884449395" ry="0.788055024"></ellipse>
                            </g>
                        </g>
                    </g>
                </g>
            </g>
        </g>
    </g>
</svg>