<?xml version="1.0" encoding="UTF-8" standalone="no"?>
<svg width="47px" height="29px" viewBox="0 0 47 29" version="1.1" xmlns="http://www.w3.org/2000/svg" xmlns:xlink="http://www.w3.org/1999/xlink">
    <!-- Generator: Sketch 3.8.1 (29687) - http://www.bohemiancoding.com/sketch -->
    <title>大青</title>
    <desc>Created with Sketch.</desc>
    <defs>
        <path d="M46.2392451,8.66250721 C46.2392451,10.7448619 42.3656396,9.68670287 39.3334525,13.8568131 C36.3012655,18.0269234 37.1248283,23.3949364 29.1904406,26.030873 C21.2560529,28.6668096 4.32731834,28.5847917 1.86338509,26.3808123 C-0.600548149,24.1768328 -2.03704923,14.9911245 7.01352035,9.99520193 C16.0640899,4.99927931 24.0937555,3.81337347 27.7234643,3.81337336 C31.3531732,3.81337324 32.5996362,2.23954971 35.2847252,0.53222879 C37.9698142,-1.17509213 40.7990451,1.98573099 39.7603175,3.81337338 C42.5834431,4.70781481 46.2392451,6.58015256 46.2392451,8.66250721 Z" id="path-1"></path>
        <path d="M22.7567434,0.120181722 C22.7567434,0.120181722 10.1274878,5.12333942 8.56865651,7.83165274 C7.00982519,10.5399661 6.73561832,13.8333038 11.0621824,17.3073233 C6.10359042,17.7853934 0.744815068,15.9521227 0.264482786,10.231912 C-0.215849495,4.51170127 11.9846843,0.291627871 11.9846843,0.291627871" id="path-3"></path>
        <path d="M5.02948876,6.80305016 C11.4876431,4.15969609 22.9899076,0.0240307454 24.215489,0.0240307763 C25.4410704,0.0240308072 28.2606958,1.59457391 27.2229926,4.37490774 C26.1852894,7.15524157 22.7684795,10.1115228 20.8013057,10.822696 C18.834132,11.5338692 15.5719433,12.4862322 15.5719428,13.1439707 C15.5719422,13.8017092 15.8683462,14.0479186 17.5006077,14.0479186 C19.1328692,14.0479187 21.4416617,13.4654601 22.5925596,14.0479187 C23.7434574,14.6303772 24.6036928,15.995678 28.77126,16.623668 C28.7712595,17.0576338 3.57576962,16.6236685 3.57576962,16.6236685 C3.57576962,16.6236685 2.77874765,15.7563712 3.57576956,14.9834992 C0.544512032,14.9834992 -1.03306211,8.42028623 1.52343467,4.37490781 C4.07993144,0.329529395 -1.42866555,9.44640423 5.02948876,6.80305016 Z" id="path-5"></path>
    </defs>
    <g id="Page-1" stroke="none" stroke-width="1" fill="none" fill-rule="evenodd">
        <g id="iPhone-6" transform="translate(-116.000000, -33.000000)">
            <g id="Group-20" transform="translate(24.000000, 0.000000)">
                <g id="2级" transform="translate(92.000000, 33.000000)">
                    <g id="大青">
                        <g id="Path-5734" transform="translate(0.519076, 0.000000)">
                            <mask id="mask-2" fill="white">
                                <use xlink:href="#path-1"></use>
                            </mask>
                            <use id="Mask" fill="#6BAD87" xlink:href="#path-1"></use>
                            <polyline fill="#FFD67C" mask="url(#mask-2)" points="42.3695521 11.2367055 12.0250222 25.1806558 13.8431333 31.1329824 46.5895277 31.5879431"></polyline>
                            <path d="M46.3249565,6.47968819 C46.3249565,6.47968819 46.66169,11.9263001 39.8254981,10.2183153 C32.9893062,8.51033045 29.0187311,8.51528665 21.7239734,10.9073922 C14.4292156,13.2994977 5.94743063,13.1473198 3.48369426,12.0273559 C1.01995789,10.9073921 -2.14939532,9.74895641 -2.14939532,9.74895641 L-5.31959458,23.3047924 L20.4616469,22.0719774 L36.2111156,13.039598 L43.3112235,10.9073921 L48.8487634,8.10149829" id="Path-5739" fill="#656161" style="mix-blend-mode: soft-light;" mask="url(#mask-2)"></path>
                            <ellipse id="Oval-1470" fill="#46895E" mask="url(#mask-2)" cx="7.90908457" cy="13.0122804" rx="1.10456812" ry="1.11614934"></ellipse>
                            <ellipse id="Oval-1470-Copy-2" fill="#46895E" mask="url(#mask-2)" cx="4.08431138" cy="9.53510436" rx="0.42251497" ry="0.426944972"></ellipse>
                            <ellipse id="Oval-1470-Copy" fill="#6CAE88" mask="url(#mask-2)" cx="1.97173653" cy="15.370019" rx="0.563353293" ry="0.569259962"></ellipse>
                            <ellipse id="Oval-1470-Copy" fill="#EFF6C4" mask="url(#mask-2)" cx="18.308982" cy="6.54648956" rx="0.281676647" ry="0.284629981"></ellipse>
                            <circle id="Oval-1470-Copy" fill="#EFF6C4" mask="url(#mask-2)" cx="28.4176647" cy="7.08111954" r="0.25"></circle>
                            <ellipse id="Oval-1470-Copy" fill="#EFF6C4" mask="url(#mask-2)" cx="26.7592814" cy="6.54648956" rx="0.281676647" ry="0.284629981"></ellipse>
                            <path d="M8.28720819,8.43459287 C8.28720819,8.43459287 16.9914909,5.38736402 22.3371085,4.45900007 C27.6827262,3.53063613 30.9662689,5.08018624 33.8321943,2.06571312 C34.9910738,0.846766056 35.9238937,-0.26324097 38.1146036,0.468329177 C40.3053136,1.19989932 39.6207706,4.0084427 39.6207706,4.0084427 C39.6207706,4.0084427 44.7998884,5.81019878 46.0876728,7.90668799 C47.3754572,10.0031772 44.2963833,-1.4034842 44.2963833,-1.4034842 L26.1830241,-4.80957422 L3.62082231,3.87871374" id="Combined-Shape" fill="#EFF6C4" mask="url(#mask-2)"></path>
                            <ellipse id="Oval-1470-Copy" fill="#EFF6C4" mask="url(#mask-2)" cx="16.6189222" cy="7.40037951" rx="0.563353293" ry="0.569259962"></ellipse>
                            <path d="M37.4109647,18.1995363 C37.4109647,18.1995363 38.1176927,17.3663363 36.6498949,16.7951226 C35.1820971,16.2239089 35.8299311,17.4931608 34.4915863,17.1441417 C33.1532416,16.7951226 32.6835121,16.7594732 31.9065097,17.3077264 C31.1295072,17.8559797 31.3320274,18.3745797 30.8893009,18.6290334 C30.4465745,18.8834872 29.9328202,18.6907108 29.2032452,18.6907108 C28.4736703,18.6907108 28.2399217,18.5936311 28.0479139,18.9884493 C27.8559061,19.3832676 14.1332517,24.8614678 14.1332517,24.8614678 C14.1332517,24.8614678 15.8937078,27.009677 16.7586134,27.0096777 C17.623519,27.0096785 28.7545867,26.8154329 28.7545867,26.8154329 C28.7545867,26.8154329 35.6610697,24.4780967 35.9503978,22.6894572 C36.2397258,20.9008177 37.4109647,18.1995363 37.4109647,18.1995363 Z" id="Path-5743" fill="#E8D1A0" mask="url(#mask-2)"></path>
                            <ellipse id="Oval-1475" fill="#FDE1A4" mask="url(#mask-2)" cx="34.2237126" cy="18.6432638" rx="0.42251497" ry="0.426944972"></ellipse>
                            <circle id="Oval-1475-Copy" fill="#FDE1A4" mask="url(#mask-2)" cx="33.4878443" cy="17.8970588" r="0.25"></circle>
                            <path d="M38.631891,5.82942246 C38.631891,5.82942246 36.5198732,7.2601428 34.4781296,5.55287988" id="Path-5744" stroke="#46895E" stroke-width="2" stroke-linecap="round" mask="url(#mask-2)"></path>
                        </g>
                        <ellipse id="Oval-1467" fill="#FFFFFF" cx="37.4601678" cy="3.0829629" rx="2.65096349" ry="2.68257811"></ellipse>
                        <ellipse id="Oval-1467" fill="#494141" cx="37.4601678" cy="3.0829629" rx="1.38483167" ry="1.40134677"></ellipse>
                        <ellipse id="Oval-1467" fill="#FFFFFF" cx="36.4314357" cy="2.52242419" rx="0.593499289" ry="0.600577188"></ellipse>
                        <g id="Oval-1482-Copy" transform="translate(20.280719, 11.100569)">
                            <mask id="mask-4" fill="white">
                                <use xlink:href="#path-3"></use>
                            </mask>
                            <use id="Mask" fill="#509D79" xlink:href="#path-3"></use>
                            <ellipse fill="#46895E" mask="url(#mask-4)" cx="11.9712575" cy="5.83491461" rx="3.23928144" ry="3.27324478"></ellipse>
                            <ellipse id="Oval-1482-Copy-2" fill="#46895E" mask="url(#mask-4)" cx="4.2251497" cy="13.0929791" rx="0.84502994" ry="0.853889943"></ellipse>
                            <ellipse id="Oval-1482-Copy-2" fill="#46895E" mask="url(#mask-4)" cx="1.26754491" cy="12.6660342" rx="0.42251497" ry="0.426944972"></ellipse>
                        </g>
                        <ellipse id="Oval-1482" fill="#46895E" cx="31.9702994" cy="11.2428843" rx="0.704191617" ry="0.711574953"></ellipse>
                        <g id="Path-5738" transform="translate(0.000000, 11.851390)">
                            <mask id="mask-6" fill="white">
                                <use xlink:href="#path-5"></use>
                            </mask>
                            <use id="Mask" fill="#416865" xlink:href="#path-5"></use>
                            <path d="M0.0922833901,14.7365044 C0.0922833901,14.7365044 7.98759103,15.8299621 15.6810215,8.93596236 C11.3206628,14.7365047 4.98062405,17.6229585 4.98062405,17.6229585 L2.4436116,17.4682542" fill="#2D2C2C" style="mix-blend-mode: soft-light;" mask="url(#mask-6)"></path>
                            <path d="M1.43531731,1.81313187 C1.43531731,1.81313187 -2.59567715,11.5269265 0.141337632,12.7759857 C2.87835241,14.0250449 13.0844151,7.5848255 17.4340258,4.74815396 C21.7836366,1.91148243 26.5182077,2.62544074 26.5182077,5.02429769 C26.5182077,7.42315465 29.791627,2.20216003 29.7916267,2.20216004 C29.7916264,2.20216005 18.4230738,-3.22239719 18.4230738,-3.22239719 L1.43531731,1.81313187 Z" id="Path-5740" fill="#9D9D9D" style="mix-blend-mode: soft-light;" mask="url(#mask-6)"></path>
                            <ellipse id="Oval-1477" fill="#416865" mask="url(#mask-6)" cx="9.99952096" cy="9.39278937" rx="1.26754491" ry="1.13851992"></ellipse>
                            <ellipse id="Oval-1477-Copy" fill="#416865" mask="url(#mask-6)" cx="5.77437126" cy="10.1043643" rx="0.42251497" ry="0.426944972"></ellipse>
                            <ellipse id="Oval-1477-Copy-2" fill="#4C7673" mask="url(#mask-6)" cx="21.8299401" cy="4.41176471" rx="0.42251497" ry="0.426944972"></ellipse>
                        </g>
                        <path d="M31.318244,28.4477588 C31.3249707,28.4397098 31.3398861,28.4229306 31.3629321,28.398665 C31.4023095,28.3572038 31.4497117,28.3107268 31.5050784,28.2604745 C31.6643086,28.1159529 31.8547509,27.9710886 32.0759148,27.835729 C32.7069078,27.4495407 33.4552827,27.217259 34.3194048,27.2158255 C35.4358262,27.2139736 36.6655097,27.6005699 38.0073154,28.4566676 C38.0627693,28.4920482 38.1360674,28.4752395 38.1710311,28.4191242 C38.2059948,28.3630089 38.1893842,28.2888368 38.1339302,28.2534561 C36.7554413,27.3739538 35.4822062,26.9736655 34.3190156,26.975595 C33.409509,26.9771037 32.6194233,27.2223317 31.9530545,27.6301711 C31.7186948,27.7736069 31.5164464,27.9274519 31.3465664,28.0816396 C31.2867444,28.1359356 31.2351334,28.1865391 31.1917661,28.2322015 C31.1651653,28.26021 31.1468895,28.2807694 31.1369739,28.2926344 C31.0946423,28.3432877 31.1009044,28.4190761 31.1509608,28.4619126 C31.2010172,28.504749 31.2759124,28.4984122 31.318244,28.4477588 L31.318244,28.4477588 Z" id="Path-5735" fill="#1A1517"></path>
                        <path d="M31.3995182,28.3548696 C31.4037738,28.3505581 31.4139679,28.3408592 31.4300715,28.3265347 C31.45802,28.3016742 31.4918286,28.2737014 31.5314682,28.2433752 C31.6460288,28.1557311 31.7836185,28.0677115 31.9440224,27.9853375 C32.4409335,27.7301532 33.0389718,27.5854657 33.7379314,27.6090254 C34.6499934,27.6397681 35.6622433,27.9570892 36.7743285,28.6215366 C36.8307792,28.6552647 36.9035613,28.6362987 36.9368919,28.5791748 C36.9702225,28.5220509 36.9514799,28.4484008 36.8950293,28.4146728 C35.749805,27.7304255 34.6991349,27.4010604 33.7458347,27.3689277 C33.0054589,27.3439719 32.3680557,27.4981833 31.8365876,27.7711141 C31.66324,27.8601352 31.5137727,27.9557532 31.3882986,28.0517466 C31.3117618,28.1103008 31.2594809,28.1568055 31.2315509,28.1851024 C31.1852234,28.2320384 31.1852684,28.3080913 31.2316513,28.3549712 C31.2780342,28.4018511 31.3531908,28.4018057 31.3995182,28.3548696 L31.3995182,28.3548696 Z" id="Path-5736" fill="#1A1517"></path>
                        <path d="M31.3247101,28.46989 C31.3280572,28.4671076 31.3364565,28.4605328 31.3498568,28.4506991 C31.3733276,28.4334752 31.4017037,28.4140525 31.4349342,28.3929625 C31.5312512,28.331834 31.6464155,28.2703734 31.7800374,28.2128028 C32.7628043,27.7893806 34.0367351,27.8149262 35.5848871,28.6018213 C35.6434686,28.6315971 35.7148118,28.6076791 35.7442366,28.5483991 C35.7736615,28.489119 35.7500254,28.416925 35.691444,28.3871493 C34.0800028,27.5680855 32.7331066,27.5410767 31.6870384,27.9917722 C31.5416287,28.0544216 31.4154352,28.1217681 31.3087975,28.1894468 C31.2435109,28.2308815 31.198477,28.2639294 31.1740174,28.2842621 C31.1233618,28.326371 31.116031,28.4020612 31.1576436,28.4533209 C31.1992562,28.5045807 31.2740544,28.5119989 31.3247101,28.46989 L31.3247101,28.46989 Z" id="Path-5737" fill="#1A1517"></path>
                    </g>
                </g>
            </g>
        </g>
    </g>
</svg>