<?xml version="1.0" encoding="UTF-8" standalone="no"?>
<svg width="51px" height="52px" viewBox="0 0 51 52" version="1.1" xmlns="http://www.w3.org/2000/svg" xmlns:xlink="http://www.w3.org/1999/xlink">
    <!-- Generator: Sketch 3.8.1 (29687) - http://www.bohemiancoding.com/sketch -->
    <title>       copy</title>
    <desc>Created with Sketch.</desc>
    <defs>
        <path d="M8.56300875,0.436577282 C8.56300875,0.436577282 10.34774,4.67988076 13.3012188,4.67988062 C14.0127089,4.33268016 14.5196715,4.1513495 14.5196715,4.1513495 C14.5196715,4.1513495 13.907592,3.74745789 14.2136317,3.01304781 C14.7901218,3.55337825 14.4654613,3.88131977 15.0479579,3.88131987 C14.883976,2.82480007 14.616379,2.07709881 14.9794819,1.25683805 C15.3621066,2.07709876 15.534498,3.68167969 15.534498,3.68167969 C15.534498,3.68167969 15.4319346,0.872340812 16.4245361,0.872340814 C17.4171377,0.872340816 16.0270448,3.54524081 16.0270448,3.54524081 C16.0270448,3.54524081 16.7221667,2.12388943 17.3231337,1.90905928 C17.9241006,1.69422913 16.9996746,3.13619541 16.7121054,3.34071812 C16.4245361,3.54524083 17.6188114,3.21865548 17.6188119,3.38194816 C17.6188124,3.54524083 17.5889287,3.86178985 17.5889287,3.86178985 C17.5889287,3.86178985 18.3294006,3.96703509 18.6911524,4.40578224 C19.6905122,4.1513495 22.59879,0.336892811 24.1097678,0 C22.2936517,1.90905924 22.6369327,3.0588891 22.6369327,3.0588891 C22.6369327,3.0588891 21.280327,2.97547967 21.1080855,4.53571111 C20.2902775,4.15134966 19.6223366,4.14226271 19.3460294,4.83178076 C20.0061624,5.79526148 20.1698439,6.22749894 20.1698439,6.22749894 C20.1698439,6.22749894 22.4553811,6.43188569 20.4945043,7.07122285 C20.7550436,7.91142082 20.6596877,7.70432094 20.6596877,7.70432094 C20.6596877,7.70432094 22.4944248,7.88836459 20.9202269,9.03046343 C21.1080855,9.68024363 21.1568895,9.30971577 21.6240583,9.50786387 C22.0912271,9.70601198 22.4687453,10.3130697 21.3821393,10.9587811 C20.2955332,11.6044924 21.5728515,11.9389443 21.792245,12.1460438 C22.0116385,12.3531433 21.9930174,13.3293726 20.9633248,13.7513028 C19.9336321,14.173233 21.5869668,14.9500931 21.5869671,15.2690836 C21.5869674,15.5880742 21.5344091,16.095041 20.1127806,16.4319335 C20.6596874,17.8972281 20.7880799,18.9571374 19.1885045,18.9571377 C19.5905012,20.2457121 19.3026313,20.9519126 18.3128824,20.641873 C18.9267635,22.3788247 18.8127877,23.0168053 18.8127874,23.0168046 C18.8127871,23.0168039 17.4854639,23.5262126 17.4854639,23.5262126 L17.4710479,24.1408657 L18.8282546,24.1755857 C18.8282546,24.1755857 18.9462858,26.1308924 18.4393228,26.7353743 C18.9462858,27.2588877 19.9151611,26.4228943 21.0403603,26.7920656 C22.2559602,24.7660975 22.8241906,21.035322 23.6630218,19.7360328 C24.501853,18.4367435 24.3195498,17.6107867 25.8748272,18.0495343 C24.6713913,18.4277923 24.2812585,19.4051077 24.5290332,19.7409153 C24.7768079,20.0767229 25.7294652,21.7512868 25.9389484,23.1996273 C26.1484316,24.6479678 26.4445597,25.5535365 25.7381755,24.4589066 C25.0317913,23.3642767 24.2300511,23.2871057 24.2300513,24.3057858 C24.2300515,25.3244659 24.4308242,25.9109092 24.4308242,25.9109092 C24.4308242,25.9109092 27.1416341,25.0991928 28.6485564,22.420054 C30.1554787,19.7409153 30.6339102,20.3136597 31.1779644,20.4777666 C30.3458904,20.9254655 28.6241186,22.0675641 31.4367016,21.6263758 C34.2492847,21.1851875 40.4334517,21.6929747 41.86846,25.2616678 C40.6122449,24.4589071 41.1180478,25.3921672 41.493254,26.0921161 C39.8307396,25.9109084 38.800995,26.5758525 38.5208862,27.1474652 C37.4565503,26.381258 35.899626,26.2944338 35.6121324,26.9238515 C34.5655459,26.0921164 33.2752573,26.7892845 32.0243541,29.7156882 C29.7737649,28.1529662 26.8013978,29.8075442 26.8013978,29.8075442 C26.8013978,29.8075442 27.8588816,27.3649934 23.3435683,29.1816364 C23.3435681,30.086387 23.5414066,30.1685323 23.5414066,30.1685323 C23.5414066,30.1685323 26.7275494,27.9878593 26.1107129,31.688778 C27.625919,30.8990496 29.6192,30.5059999 29.2493063,31.0973894 C28.8794126,31.6887788 27.9995696,33.0384174 27.9995696,33.0384174 C27.9995696,33.0384174 32.5985642,32.4668052 29.7760977,34.3912161 C31.613389,35.3076698 34.4915679,37.4898641 31.9761577,37.4898635 C32.4719849,39.240979 33.0507915,40.3414527 32.114378,42.1923246 C31.1779646,44.0431964 18.6107147,43.6848655 18.610715,43.6848667 C18.6107153,43.684868 5.71028036,45.7906115 6.23667047,41.4098392 C6.76306058,37.0290668 10.3872684,36.3289977 10.3872684,36.3289977 L10.4213912,34.4030013 C10.4213912,34.4030013 9.2666016,32.5663782 9.26660155,31.0265872 C8.05488059,31.9694706 3.87538309,34.4698717 3.08767301,32.3060841 C1.90877165,30.1685324 1.59227374,26.8796854 1.59227374,26.8796854 C1.59227374,26.8796854 1.31376063,26.3714797 0.781724353,26.1411941 C0.249688079,25.9109084 -0.329829122,25.2807112 0.225947619,25.2807118 C0.781724359,25.2807124 1.13845605,25.5236781 1.13845605,25.5236781 C1.13845605,25.5236781 -0.00158598744,24.0795649 0.568435035,24.269236 C1.13845606,24.4589071 1.67286637,25.0441779 1.67286637,25.0441779 C1.67286637,25.0441779 1.36798889,23.5295036 2.46792198,25.0526416 C3.56785507,26.5757797 4.74563206,25.8914948 4.96841749,27.8495194 C5.19120291,29.807544 4.94967515,30.3470855 6.94999645,29.7643605 C8.95031775,29.1816356 8.88147054,29.2086865 8.88147054,29.2086865 C8.88147054,29.2086865 9.19993261,28.6648618 8.88147054,28.3277783 C8.56300848,27.9906948 7.1063086,25.97 9.31991941,27.7317039 C8.7270323,26.8796852 7.85263339,25.4893719 9.0364083,26.1845285 C10.2201832,26.8796852 8.81495763,25.5509873 9.6181746,25.8677582 C10.4213916,26.184529 10.7688374,26.5356053 10.7688374,26.5356053 C10.7688374,26.5356053 11.1620546,25.5064421 11.9146271,24.9826746 C12.6671996,24.4589071 14.4091248,23.0682845 14.5999233,22.2281156 C14.7907219,21.3879466 14.9803955,20.9726578 14.9803955,20.9726578 C14.9803955,20.9726578 13.3965315,20.6793598 12.6555794,21.0015475 C11.9146273,21.3237351 9.53829668,23.4067226 9.05065258,21.4651358 C7.69019895,19.5945323 4.81919243,16.5824492 6.69110045,14.7020271 C8.56300848,12.821605 7.9131093,12.9082739 9.6467881,11.6399515 C11.3804669,10.3716292 12.1257924,9.26614898 11.5309062,8.72130846 C10.9360201,8.17646793 10.9312719,7.57508983 11.4229496,7.21645189 C11.9146273,6.85781395 11.101805,6.31334718 12.2015118,5.57256395 C12.2015121,4.83178072 12.3484528,5.02794919 12.3484528,5.02794919 C12.3484528,5.02794919 11.3021229,4.49217168 9.57656631,4.6619762 C9.57656632,3.68167985 9.26169289,2.80152884 8.64194177,2.80152885" id="path-1"></path>
        <path d="M4.739756,22.8094429 C4.739756,22.8094429 0.190276728,18.5744307 2.3192717,13.7430386 C4.44826668,8.91164654 5.15366385,7.92338178 4.78430372,5.23278064 C5.15366393,2.7897604 4.92057763,2.57797805 4.92057763,2.57797805 L0.356190713,-4.22272501e-14 C0.356190713,-4.22272501e-14 1.72682217,2.64276396 1.23609577,4.85863722 C3.34001072,4.85863708 4.50105749,5.45676 4.18834649,7.01004108 C3.8756355,8.56332217 3.08377364,10.3843014 2.02269617,12.0636701 C0.961618699,13.7430387 -1.7065088,19.8665079 1.60703442,22.6123919" id="path-3"></path>
        <path d="M3.43277221,0.536312671 C3.43277221,0.536312671 4.25875458,3.33766677 6.84476637,5.48651995 C9.43077816,7.63537313 2.70899424,4.17924704 1.35487012,4.86164044 C0.000746001134,5.54403383 -0.219356328,7.75838485 0.79547518,7.7583847 C1.81030669,7.75838455 12.5694249,7.92784062 12.5694249,7.92784062 C12.5694249,7.92784062 13.2514618,7.04515949 11.4887397,6.27937115 C11.0093639,6.07111346 12.0612554,5.54403383 11.7259208,4.99544172 C10.6235875,3.95888459 7.3900658,0.307126271 7.05377305,0.307126224" id="path-5"></path>
        <path d="M3.02455676,4.08685414 C3.0245568,4.17831557 3.09532836,5.63197876 4.44372699,6.91958264 C5.79212562,8.20718652 7.66663363,8.78239962 7.14036853,8.9509103 C6.61410343,9.11942098 4.96110682,8.1007176 3.44715896,8.10071762 C1.93321109,8.10071763 0.516846847,8.0888706 0.516846883,9.15932754 C0.51684692,10.2297845 1.01131171,10.4160663 1.01131171,10.4160663 L14.6409136,10.5610596 C14.6409136,10.5610596 15.0777241,8.55065207 14.0438535,8.55065182 C13.0099829,8.55065158 13.7917303,7.77139337 14.9374464,7.345488 C16.0831626,6.91958264 17.0718299,2.14321519 16.8680029,0.472926819 C16.290275,2.62140893 16.3794223,3.08084992 14.5843566,3.47364692 C12.789291,3.86644393 7.03120298,4.17831562 6.23219368,4.1783156" id="path-7"></path>
    </defs>
    <g id="Page-1" stroke="none" stroke-width="1" fill="none" fill-rule="evenodd" opacity="0.6">
        <g id="iPhone-6" transform="translate(-301.000000, -11.000000)">
            <g id="Group-20" transform="translate(24.000000, 0.000000)">
                <g id="高级－灰" transform="translate(276.000000, 12.000000)">
                    <g id="drag" transform="translate(25.797125, 25.500000) scale(-1, 1) translate(-25.797125, -25.500000) translate(0.297125, 0.000000)">
                        <g id="Oval-10" transform="translate(6.734609, 0.000000)">
                            <mask id="mask-2" fill="white">
                                <use xlink:href="#path-1"></use>
                            </mask>
                            <use id="Mask" fill="#828282" xlink:href="#path-1"></use>
                            <ellipse fill="#E4E4E4" mask="url(#mask-2)" cx="10.3580688" cy="19.052322" rx="5.05271647" ry="3.7648301"></ellipse>
                            <path d="M12.4215582,21.2570229 C12.4215582,21.2570229 17.8443999,17.02845 18.8196251,13.9885126 C19.7948504,10.9485752 19.6944483,11.2569668 19.3985191,10.234305 C19.1025898,9.21164322 20.0218853,9.57327152 20.0218853,10.1014175 C20.0218853,10.6295635 20.8727385,14.2020038 19.0339968,17.8189671 C17.195255,21.4359303 14.5029458,24.9752848 14.9333475,27.0968553 C15.3637492,29.2184259 15.2410356,29.5920357 15.2410356,29.5920357 L12.9420429,31.8726355 C12.9420429,31.8726355 12.2013904,27.1569001 10.8516932,26.5680285 C9.50199599,25.9791569 11.3479741,25.0262069 11.3479741,25.0262069 L13.2325451,22.8116425" id="Path-16" fill="#E9E9E9" mask="url(#mask-2)"></path>
                            <path d="M10.2385242,34.1269536 C10.2385242,34.1269536 10.7928944,35.2739545 12.2199282,34.5042691 C13.646962,33.7345837 15.3155032,32.6784277 15.6800253,32.3594161 C16.7550496,33.2056207 20.2424328,35.4871738 21.9168534,38.4793204 C18.5381635,41.1200504 18.722384,42.4668977 18.8854996,44.0164804 C19.0486152,45.5660632 12.6833448,44.5499366 12.6833448,44.5499366 C12.6833448,44.5499366 10.3834287,43.1157287 10.3834287,39.3438566 C10.3834287,35.5719845 10.2385242,34.1269536 10.2385242,34.1269536 Z" id="Path-17" fill="#E7E7E7" mask="url(#mask-2)"></path>
                            <path d="M22.8587858,30.0052066 C22.8587858,30.0052066 21.474045,29.2950066 21.474045,29.0342801 C21.474045,28.7735535 22.5365652,27.9418878 23.6525489,27.3587521 C24.7685325,26.7756163 27.2647189,24.7382903 28.2704546,23.5237324 C29.2761903,22.3091745 30.2335545,22.1376229 31.0995984,22.1376229 C31.9656423,22.1376229 34.7394418,22.0333522 36.8422324,22.7785423 C38.9450231,23.5237324 40.5867885,24.1054617 41.0171539,25.087192 C41.4475194,26.0689222 41.4758562,27.5724919 41.4758562,27.5724919 L30.4944523,31.5461725 L26.5558555,30.2151474 L26.0845344,30.113676 L25.7612069,29.293607 L23.860094,29.4196715 L22.8587858,30.0052066 Z" id="Path-18" fill="#A5A5A5" mask="url(#mask-2)"></path>
                            <path d="M29.0801965,23.6407111 C28.7572978,24.3086027 28.5904886,24.931416 28.4252915,25.9098938 C28.4100215,26.0003394 28.3975753,26.0758931 28.3718419,26.2334826 C28.1587199,27.5386245 28.0147833,28.1189839 27.6444056,28.8727003 L27.8757182,28.9668793 C28.2583626,28.1882003 28.4061052,27.5924947 28.6224863,26.2673941 C28.6481597,26.1101723 28.6605626,26.0348813 28.6757494,25.9449289 C28.837862,24.9847206 29.0000688,24.3790914 29.3121298,23.7336166 L29.0801965,23.6407111 L29.0801965,23.6407111 Z" id="Path-19" fill="#686868" mask="url(#mask-2)"></path>
                            <path d="M29.9486372,23.7419909 C30.0312556,24.5774278 30.31647,25.3696682 30.8857674,26.5303545 C30.9666546,26.6952677 31.0152448,26.7924075 31.1882997,27.1366181 C31.7452884,28.2444831 31.9855791,28.7794135 32.1835197,29.4348232 L32.4278535,29.3736834 C32.225132,28.7024434 31.9813028,28.1596356 31.4187159,27.0406359 C31.2460269,26.6971529 31.1975915,26.6003227 31.117152,26.4363222 C30.5583634,25.2970613 30.2805238,24.5253059 30.2010148,23.7213117 L29.9486372,23.7419909 L29.9486372,23.7419909 Z" id="Path-20" fill="#686868" mask="url(#mask-2)"></path>
                            <path d="M30.7385254,23.0021842 C32.0783983,23.7616007 33.8082973,24.6525083 33.8271657,24.6639524 C34.0201195,24.7809827 34.1585168,24.8941894 34.3851037,25.1194223 C34.5078726,25.2414575 35.2142441,25.976409 35.4527884,26.2206901 L35.6421823,26.0674533 C35.405328,25.8249028 34.6970582,25.0879762 34.5719854,24.9636509 C34.3326263,24.7257221 34.1795663,24.6005217 33.9676759,24.4720058 C33.9394117,24.454863 32.2047978,23.5615273 30.8724654,22.8063845 L30.7385254,23.0021842 L30.7385254,23.0021842 Z" id="Path-21" fill="#686868" mask="url(#mask-2)"></path>
                            <path d="M32.0204743,22.5349295 C32.6450616,22.8374323 33.9422267,23.4566734 34.0365355,23.5024221 C34.4777779,23.7164663 34.7052773,23.8380092 34.9535888,23.9942796 C35.1376122,24.1100914 37.0483536,25.4604367 38.4342553,26.4014664 L38.5857677,26.2165841 C37.2048308,25.2789256 35.2885565,23.9246701 35.0976956,23.8045552 C34.8399665,23.6423581 34.60481,23.5167243 34.1557108,23.2988688 C34.0604379,23.2526525 32.7631741,22.6333641 32.1395021,22.3313047 L32.0204743,22.5349295 L32.0204743,22.5349295 Z" id="Path-22" fill="#686868" mask="url(#mask-2)"></path>
                            <path d="M34.473603,22.4890288 C35.6947261,22.7353504 37.8577098,23.0893231 38.1107925,23.174767 C38.3460385,23.254189 38.5455369,23.3632441 38.9423938,23.6241687 C39.0633829,23.7037163 39.6041918,24.066005 39.6398666,24.0897884 C39.9960268,24.3272305 40.3296404,24.5459229 40.7118587,24.7909673 L40.8577739,24.6023916 C40.476931,24.358229 40.1445636,24.1403535 39.789594,23.9037052 C39.754781,23.8804963 39.2128346,23.5174456 39.0907675,23.4371892 C38.6768006,23.1650152 38.4607309,23.0469015 38.1989124,22.9585083 C37.9210136,22.8646861 35.7276665,22.5057445 34.5284278,22.2638373 L34.473603,22.4890288 L34.473603,22.4890288 Z" id="Path-23" fill="#686868" mask="url(#mask-2)"></path>
                            <path d="M23.2424958,30.1186408 C23.2424958,30.1186408 29.1719131,33.0994445 30.4572376,35.0533527 C31.7425621,37.007261 32.6914099,40.0768624 32.2777665,41.0712107 C31.8641231,42.065559 31.5074069,42.1852531 31.5074072,41.6986925 C31.5074074,41.2121319 31.8391837,38.2552671 30.2801855,36.2846132 C28.7211873,34.3139594 23.2424958,30.1186408 23.2424958,30.1186408 Z" id="Path-24" fill-opacity="0.8" fill="#B3B3B3" mask="url(#mask-2)"></path>
                            <path d="M20.2567961,14.3580001 C20.2567961,14.3580001 19.6034045,17.1215047 19.104879,18.5015749 C18.6063536,19.8816451 17.5854874,21.7814193 17.5854874,23.0853061 C17.5854873,24.3891929 18.0592662,26.3664719 18.4902039,26.8770441 C17.1564122,25.0415573 16.4496689,23.4174362 17.9197003,20.40195 C19.3897317,17.3864639 20.2567961,14.3580001 20.2567961,14.3580001 Z" id="Path-25" fill-opacity="0.8" fill="#B3B3B3" mask="url(#mask-2)"></path>
                            <path d="M18.894332,44.5343031 C18.894332,44.5343031 17.9510846,42.500398 19.6368455,40.579715 C21.3226065,38.6590319 23.1050637,37.2164682 24.3007704,37.2164681 C25.4964772,37.216468 27.1757985,36.967077 26.5382771,38.059326 C25.9007558,39.151575 24.7793621,39.9117288 24.1746829,40.9167375 C23.5700037,41.9217463 23.5397106,43.7121505 23.1131777,44.0012066 C22.6866447,44.2902627 18.894332,44.5343031 18.894332,44.5343031 Z" id="Path-26" fill="#A5A5A5" mask="url(#mask-2)"></path>
                            <path d="M10.3583351,36.2030737 C10.3583351,36.2030737 10.3187201,39.8475176 10.4769714,40.6663807 C10.6352226,41.4852439 11.2856372,42.9058489 10.1576542,42.9058491 C9.02967122,42.9058493 5.05879599,43.2286113 5.95763786,40.2164157 C6.85647973,37.2042201 10.3583351,36.2030737 10.3583351,36.2030737 Z" id="Path-27" fill="#A5A5A5" mask="url(#mask-2)"></path>
                            <path d="M8.93167643,28.858446 C8.93167643,28.858446 9.12349607,30.2283021 9.12349608,30.3836572 C9.1234961,30.5390124 8.26739664,31.0353958 7.3863815,31.4783933 C6.50536636,31.9213909 4.21864678,33.8302824 3.82208051,31.4364945 C3.42551423,29.0427067 3.12618154,28.1764839 2.76311094,27.6495945 C2.40004033,27.122705 0.910174865,25.859997 1.92264897,25.5251831 C2.93512308,25.1903692 3.59064583,25.2269012 3.8823369,25.3760421 C4.17402796,25.5251831 5.99047655,27.6738864 5.99047655,27.6738864 C5.99047655,27.6738864 5.51196993,28.9267082 5.75122324,28.9267082 C5.99047654,28.9267082 8.93167643,28.858446 8.93167643,28.858446 Z" id="Path-28" fill="#A8A8A8" mask="url(#mask-2)"></path>
                            <path d="M12.8858717,32.0484056 C12.8858717,32.0484056 15.4973295,31.0393502 16.0005433,30.5544538 C16.5037571,30.0695573 17.3382769,29.6757084 16.9872677,28.4487792 C16.6362585,27.2218499 15.7276174,25.4923231 16.0124278,25.013735 C16.2972381,24.5351469 16.2972382,23.1831803 16.2972382,23.1831803 C16.2972382,23.1831803 16.1817294,22.7731368 15.7584752,23.8304936 C15.335221,24.8878503 14.6193375,26.0969841 14.9377165,27.1319322 C15.2560955,28.1668803 15.3163518,29.4644254 14.8457681,29.955536 C14.3751845,30.4466467 12.8858717,32.0484056 12.8858717,32.0484056 Z" id="Path-29" fill="#A8A8A8" mask="url(#mask-2)"></path>
                            <path d="M11.7708158,8.86555341 C11.7708158,8.86555341 13.3675058,8.97185402 13.9370226,8.47537654 C14.5065393,7.97889906 14.7320317,8.07352448 15.0424875,8.3602254 C15.3529434,8.64692632 17.0606595,9.80870056 17.916759,8.64240689 C18.7728586,7.47611322 19.1280377,5.09560122 17.911755,4.69017128 C16.6954724,4.28474135 15.5881311,4.04982554 15.3153093,4.69101868 C15.0424874,5.33221182 14.9989111,5.33936759 14.4679668,5.01519314 C13.9370226,4.69101868 12.8327043,4.35780534 12.5013984,4.68649925 C12.1700925,5.01519316 11.1607459,7.0616446 11.3585078,7.71093493 C11.5562696,8.36022527 11.7708158,8.86555341 11.7708158,8.86555341 Z" id="Path-30" fill="#D8D8D8" style="mix-blend-mode: soft-light;" mask="url(#mask-2)"></path>
                            <path d="M19.1771392,11.7941397 C19.1771392,11.7941397 18.6996751,10.350184 18.4415526,9.91980303 C18.1834301,9.48942211 18.4908627,8.86611837 19.197885,8.86611834 C19.9049072,8.86611831 20.381433,9.32775862 20.381433,9.99126641 C20.3814331,10.6547742 20.3419224,11.7541239 20.3419224,11.7541239 C20.3419224,11.7541239 19.9048029,9.45279599 19.4342193,9.62604052 C18.9636357,9.79928506 19.1771392,11.7941397 19.1771392,11.7941397 Z" id="Path-31" fill-opacity="0.7" fill="#FFFFFF" style="mix-blend-mode: soft-light;" mask="url(#mask-2)"></path>
                            <path d="M14.9086605,20.7750647 C14.9086605,20.7750647 16.8568086,20.7943945 17.9322858,18.7126793 C19.007763,16.6309641 17.612195,20.5267365 17.1169184,20.7750646" id="Path-32" fill="#898989" style="mix-blend-mode: soft-light;" mask="url(#mask-2)"></path>
                            <path d="M24.3428449,18.8594032 C24.3428449,18.8594032 22.6282021,22.8142882 22.6282021,23.6510561 C22.6282021,24.487824 23.1136203,24.7355727 23.1136203,24.5447322 C23.1136203,24.3538917 22.878189,23.9656823 23.1136203,22.9296922 C23.3490515,21.8937021 24.4034123,23.9370078 24.4034123,23.9370078 L25.728177,25.0724325 L26.6222296,24.4724723 L26.460163,18.3720237 L24.3428449,18.8594032 Z" id="Path-33" fill-opacity="0.8" fill="#8A8A8A" mask="url(#mask-2)"></path>
                            <path d="M14.7143014,20.8766707 C14.7143014,20.8766707 16.1189151,20.7467553 16.1189152,21.3280809 C16.1189152,21.9094065 14.9489102,23.1293301 14.6778338,24.783098 C14.4067573,26.4368659 14.6008464,27.5859768 14.6008464,28.5645503 C14.6008464,29.5431238 13.9168747,31.0636826 13.2865915,31.481791 C12.6563084,31.8998993 13.1962327,31.4541614 12.6563084,29.873219 C12.116384,28.2922766 11.3459029,26.7929438 11.3459028,26.1977118 C11.3459028,25.6024797 11.7223305,23.3360969 13.1615884,22.4510255 C14.6008464,21.5659541 14.7143014,20.8766707 14.7143014,20.8766707 Z" id="Path-35" fill="#FBFBFB" mask="url(#mask-2)"></path>
                            <path d="M10.3081448,39.011289 C10.3081448,39.011289 12.4241307,41.4737472 13.7193414,41.02252 C15.0145521,40.5712928 18.580889,39.0756192 17.6027448,36.2312043 C16.6246005,33.3867895 16.665734,32.9046464 18.1696147,34.2111117 C19.6734955,35.5175771 22.3316176,37.9936174 21.8843133,38.5024532 C21.437009,39.0112889 20.2742881,40.0137747 19.4551006,41.3555425 C18.6359132,42.6973103 18.9840592,44.1009659 18.9840597,44.2987662 C18.9840601,44.4965666 12.0341291,44.3108429 12.0341291,44.3108429 C12.0341291,44.3108429 10.4836447,42.2742822 10.4836447,40.9138302" id="Path-36" fill="#F9F9F9" style="mix-blend-mode: multiply;" mask="url(#mask-2)"></path>
                            <path d="M1.38171217,26.6559977 C1.38171217,26.6559977 1.71134543,26.0357117 1.71134543,25.8017799 C1.71134544,25.5678482 2.32977445,25.4906181 2.32977444,25.4906181 C2.32977443,25.4906181 2.89021867,24.6614644 2.89021867,24.6614644 L1.65561688,23.219972 L-0.0904692462,23.9429597 L-0.848106824,25.6261273 L0.698980987,26.700624 L1.38171217,26.6559977 Z" id="Path-37" fill="#2E1B15" mask="url(#mask-2)"></path>
                            <path d="M9.0471539,28.7017326 C9.0471539,28.7017326 9.08034656,28.2844049 9.08034657,27.870745 C9.08034657,27.4570852 9.50501079,27.1074102 9.50501079,27.1074102 C9.50501079,27.1074102 10.7545721,26.9308373 10.8237534,26.3807545 C10.8929348,25.8306718 9.75754534,25.0994279 9.75754534,25.0994279 L8.8576101,24.9816469 L8.36186331,25.7062648 L8.08718829,26.9973726 L8.34138753,28.5513479 L9.0471539,28.7017326 Z" id="Path-38" fill="#2A2A2A" mask="url(#mask-2)"></path>
                        </g>
                        <g id="Path-34" transform="translate(42.359180, 36.157675) scale(-1, 1) rotate(-31.000000) translate(-42.359180, -36.157675) translate(39.859180, 24.657675)">
                            <mask id="mask-4" fill="white">
                                <use xlink:href="#path-3"></use>
                            </mask>
                            <use id="Mask" fill="#848484" xlink:href="#path-3"></use>
                            <path d="M4.67805431,5.64059555 C4.67805431,5.64059555 4.51497519,3.38032008 2.86959518,2.73805825 C3.30816716,4.18932686 4.23145287,5.22161368 4.23145278,5.9170909 C4.23145269,6.61256812 4.48998176,6.90520166 4.4899818,7.39241372 C4.48998184,7.87962579 3.66723524,10.4110853 2.93564108,11.5125724 C2.20404693,12.6140595 0.521233343,16.0013581 1.14753856,18.8135001 C1.77384378,21.6256421 3.7105496,23.339056 3.7105496,23.339056 L5.30752612,23.2867598 L3.06954238,17.4022196 C3.06954238,17.4022196 4.94020242,9.99516766 5.1238642,8.22251263" fill="#CECECE" mask="url(#mask-4)"></path>
                        </g>
                        <ellipse id="Oval-505" fill-opacity="0.170000002" fill="#F5F5F5" cx="11.9597603" cy="24.7953869" rx="11.5296129" ry="10.4947917"></ellipse>
                        <ellipse id="Oval-505" fill-opacity="0.109999999" fill="#F3F3F3" cx="11.8330613" cy="24.6800595" rx="6.58835025" ry="5.99702381"></ellipse>
                        <g id="火球" transform="translate(8.503060, 20.991780)">
                            <path d="M1.98775168,0.556112812 C1.98775168,0.556112812 1.45845265,2.17034501 1.01103174,2.67827929 C0.563610826,3.18621358 -1.25897392,5.95054561 1.46893766,6.76820392 C4.19684924,7.58586223 6.73259597,6.26157573 6.41207999,4.22853216 C6.09156401,2.19548859 3.19788051,1.14565963 3.19788051,1.14565963 L3.08290689,1.9352355 C3.08290689,1.9352355 2.35598555,0.989257039 2.8923581,0.320368318 C3.42873064,-0.348520403 2.13527526,0.0448442064 2.29590337,1.36156173" id="Path-6" fill="#F1F1F1"></path>
                            <path d="M4.51175748,6.64195392 C8.07638302,5.97170985 3.31258807,-1.47493105 4.61682097,5.65806255 L4.51175748,6.64195392 Z" id="Path-8" fill="#F2F2F2" transform="translate(5.123704, 4.615700) scale(1, -1) rotate(-9.000000) translate(-5.123704, -4.615700) "></path>
                            <path d="M5.73473632,5.1198585 C5.03098045,6.52189513 4.30667267,6.88840955 2.39444701,6.53752667 C2.04340853,6.47311304 1.17078753,6.14448501 1.49484451,6.00661824 C8.4430695,3.05056598 0.622967314,7.99603783 4.46310355,5.44485385 L5.73473632,5.1198585 Z" id="Path-9" fill="#EDEDED"></path>
                            <path d="M2.44423172,2.73805825 C2.57776075,3.87730653 1.11841998,5.03567408 2.12458795,6.10608221 C3.00979819,7.04780992 4.87088575,5.05516118 3.57813901,3.4412139 L2.44423172,2.73805825 Z" id="Path-7" fill="#FBFBFB"></path>
                        </g>
                        <g id="eyes" transform="translate(17.833296, 4.560947)">
                            <g id="Group-3" transform="translate(0.253398, 0.230655)" fill="#EBEBEB">
                                <path d="M0.0165268275,2.38963289 C-0.0158988949,1.58745355 0.0711332944,0.895241394 0.963085976,0.629504188 C1.85503866,0.363766981 3.31677967,0.162942558 3.11983145,1.94487805 C2.92288324,3.72681354 1.42239807,3.55844559 1.07496609,3.39730436 C0.727534117,3.23616312 0.0489525498,3.19181223 0.0165268275,2.38963289 Z" id="Path-12"></path>
                                <path d="M3.6226883,2.03588178 C3.6226883,2.03588178 3.45367488,2.57966724e-08 5.04737002,0 C6.64106516,-2.57966726e-08 6.80881503,2.20399612 6.4626465,2.61401236 C6.11647798,3.0240286 4.72281942,3.93052719 4.01602343,2.98320452 C3.30922744,2.03588186 3.6226883,2.03588178 3.6226883,2.03588178 Z" id="Path-13"></path>
                            </g>
                            <g id="Group-3" fill="#5A5A5A">
                                <path d="M0.396538282,2.61604716 C0.356996049,1.6378126 0.549909902,1.18009735 1.25589583,0.969764745 C1.81666635,0.8026958 2.3055912,0.749251934 2.66258347,0.859211038 C3.11379302,0.998190514 3.33157623,1.40027478 3.24716685,2.16398858 C3.16383057,2.91799331 2.84129954,3.34906604 2.36038732,3.52324328 C2.01995071,3.64654293 1.59734863,3.62328019 1.3858856,3.52520225 C1.33946783,3.50367339 1.28852839,3.48401747 1.21902145,3.45984114 C1.19337777,3.4509216 1.10138628,3.41976014 1.08448451,3.41393881 C1.03156641,3.39571267 0.989738667,3.38049546 0.949789465,3.36464125 C0.589393667,3.22161488 0.412999636,3.0232843 0.396538282,2.61604716 L0.396538282,2.61604716 Z M0.143311546,2.62452814 C0.163689192,3.12865035 0.40512327,3.40010942 0.848517063,3.57607431 C0.8928695,3.59367598 0.938312351,3.6102084 0.994808049,3.62966673 C1.01274149,3.6358434 1.10420113,3.6668247 1.12857099,3.67530117 C1.19040243,3.69680776 1.23403349,3.7136436 1.27084277,3.73071599 C1.5461281,3.85839513 2.04465731,3.88583738 2.45406923,3.73755619 C3.02758229,3.5298407 3.40691903,3.02284535 3.49929223,2.18707704 C3.59452739,1.32541437 3.31976416,0.818130222 2.74380581,0.640726199 C2.32154766,0.510664203 1.78564216,0.569243476 1.1770723,0.750553155 C0.333265238,1.00194646 0.100086916,1.55519483 0.143311546,2.62452814 L0.143311546,2.62452814 Z" id="Path-12"></path>
                                <path d="M4.00242523,2.25784646 C4.00188425,2.25132989 4.00099876,2.2377303 4.00008932,2.21773768 C3.98730305,1.93665046 4.01420822,1.59938976 4.11277581,1.27976404 C4.29513332,0.688432202 4.66881062,0.345982153 5.30076811,0.345982143 C5.9498708,0.345982132 6.39569803,0.751112271 6.61446868,1.41695011 C6.79056572,1.95290899 6.77115143,2.59013281 6.61558457,2.77439259 C6.42096084,3.00491294 5.98725939,3.29614637 5.58453267,3.42992686 C5.07279704,3.59991866 4.65527856,3.525751 4.37423452,3.14906607 C4.13624695,2.83008999 4.00193181,2.60228654 3.95270352,2.45585765 C3.92711924,2.37975754 3.92961462,2.3625018 3.9194005,2.36975677 C3.90691803,2.37862291 3.89322921,2.38186392 3.87608643,2.38186392 C3.94982204,2.3818639 4.00798132,2.32477324 4.00242523,2.25784646 L4.00242523,2.25784646 Z M3.74974755,2.27522662 L3.87608635,2.15120916 C3.84162859,2.15120917 3.80196729,2.16059949 3.76351234,2.18791356 C3.58033738,2.31802047 3.68897293,2.64115543 4.16460851,3.2786525 C4.51890852,3.7535228 5.06012195,3.84966354 5.67140404,3.64660372 C6.1195519,3.49773493 6.59272384,3.17999681 6.81650461,2.91494166 C7.03272516,2.65884114 7.05430246,1.95062223 6.85724177,1.35085957 C6.60960098,0.597154214 6.07937252,0.115327368 5.3007681,0.115327381 C4.53824235,0.115327393 4.07884617,0.536333007 3.86880733,1.21742727 C3.76180594,1.56440135 3.7331147,1.92405078 3.74690817,2.22727997 C3.74793947,2.24995148 3.74899471,2.26615823 3.74974755,2.27522662 L3.74974755,2.27522662 Z" id="Path-13"></path>
                            </g>
                            <g transform="translate(1.533104, 0.915169)" fill="#494949">
                                <ellipse id="Oval-6" cx="0.884225383" cy="1.25494337" rx="0.884225383" ry="1.02677184"></ellipse>
                                <ellipse id="Oval-6-Copy" cx="3.41058362" cy="1.02677184" rx="0.884225383" ry="1.02677184"></ellipse>
                            </g>
                            <g id="Group-4" transform="translate(1.280468, 2.512370)" fill="#F8F8F8">
                                <ellipse id="Oval-8" cx="0.505271647" cy="0.342257282" rx="0.505271647" ry="0.342257282"></ellipse>
                                <ellipse id="Oval-8-Copy" cx="3.53690153" cy="0.342257282" rx="0.505271647" ry="0.342257282"></ellipse>
                            </g>
                        </g>
                        <g id="Group-5" transform="translate(13.050505, 15.743835)" fill="#400E17">
                            <path d="M0.87368303,2.70465982 C0.87368303,2.70465982 -0.643927938,0.871884451 0.321160887,0.112073793 C1.28624971,-0.647736865 0.87368303,2.70465982 0.87368303,2.70465982 Z" id="Path-14"></path>
                            <path d="M5.4080819,2.69084958 C5.4080819,2.69084958 4.9261692,0.583208622 6.04988353,0.125014772 C7.17359787,-0.333179078 7.52117029,0.578264031 7.1735979,1.08450869 C6.82602552,1.59075334 5.4080819,2.69084958 5.4080819,2.69084958 Z" id="Path-15"></path>
                        </g>
                        <g id="Group-5" transform="translate(12.797107, 15.513180)" fill="#E2E2E2">
                            <path d="M1.22825938,2.86589906 C1.20238394,2.83465003 1.15603144,2.77548443 1.0960529,2.69342764 C0.995722653,2.5561656 0.895343368,2.40595331 0.801772266,2.24791507 C0.637609678,1.97065033 0.512614474,1.69992843 0.442396377,1.44859933 C0.316287712,0.997223142 0.376805058,0.650900257 0.657442754,0.429955296 C0.830003816,0.294098647 0.898649836,0.319725428 0.975625758,0.531141006 C1.0553238,0.750032925 1.09080072,1.11583916 1.0878599,1.58232289 C1.08605594,1.86847336 1.07007865,2.1756011 1.04456278,2.48387784 C1.0350457,2.59886097 1.02485045,2.70590433 1.01466104,2.80213721 C1.00856348,2.85972492 1.00383812,2.90079237 1.00116962,2.92247585 L1.22825938,2.86589906 L1.22825938,2.86589906 Z M1.02590285,3.00473011 L1.21754709,3.23617337 L1.25299261,2.94815332 C1.25580194,2.92532555 1.26066278,2.88308065 1.26689035,2.82426508 C1.2772428,2.72649249 1.28758942,2.61785977 1.29724474,2.50120638 C1.32316862,2.18800018 1.33941232,1.87575145 1.34125381,1.58364646 C1.34434356,1.09353944 1.30694601,0.707929393 1.21615809,0.458578952 C1.08683861,0.103400972 0.81416482,0.00160699108 0.491675193,0.255501814 C0.125376647,0.543887226 0.0494934575,0.978144294 0.196815257,1.50544789 C0.272791622,1.77738735 0.40547526,2.0647613 0.578706936,2.35734341 C0.676253997,2.5220969 0.780644172,2.67831128 0.885083389,2.82119482 C0.921697281,2.87128637 0.955747393,2.91618958 0.986383977,2.95529496 C1.00496518,2.97901252 1.01842161,2.99569522 1.02590285,3.00473011 L1.02590285,3.00473011 Z" id="Path-14"></path>
                            <path d="M5.78552095,2.89800504 C5.78258637,2.88517069 5.77722969,2.85977378 5.77025211,2.82327126 C5.75850842,2.76183537 5.74673834,2.69218325 5.73574051,2.61577895 C5.68699159,2.27710982 5.66944396,1.92857999 5.70123537,1.60525503 C5.7586028,1.02181672 5.96759634,0.618914748 6.3550777,0.460919452 C6.81635063,0.27283569 7.14320849,0.323890528 7.31384636,0.540879297 C7.46565391,0.73392281 7.4682242,1.03750163 7.31955291,1.25404371 C7.21510362,1.40617574 6.99340693,1.63336878 6.68483898,1.91163129 C6.62425975,1.96626084 6.56079197,2.0224421 6.49475532,2.07995456 C6.29458645,2.2542851 6.07989095,2.43310199 5.86516792,2.60649769 C5.78999705,2.66720057 5.72020825,2.7228767 5.65760529,2.77229684 C5.62011828,2.8018899 5.59341352,2.82277777 5.57929266,2.83373329 L5.78552095,2.89800504 L5.78552095,2.89800504 Z M5.53743902,2.94500365 L5.5809926,3.13548482 L5.74366731,3.0092754 C5.7583235,2.99790456 5.7855757,2.97658849 5.82362844,2.94654883 C5.88692507,2.89658109 5.95742438,2.84033813 6.03333301,2.77903949 C6.2502657,2.60385942 6.46722592,2.42315627 6.66993572,2.24661279 C6.73700194,2.18820365 6.8015192,2.13109341 6.86318001,2.0754885 C7.18505208,1.78522851 7.41654821,1.54799309 7.53443907,1.37628318 C7.73630436,1.08226321 7.73287702,0.677458166 7.51989629,0.406624806 C7.27263423,0.0921981832 6.81487714,0.0206970272 6.25148554,0.250419615 C5.7605875,0.450582998 5.51352759,0.926870115 5.44884615,1.5846933 C5.41517261,1.92715987 5.4335255,2.29168363 5.48448986,2.64574398 C5.49596413,2.72545817 5.5082713,2.79828858 5.52060486,2.86281039 C5.52807363,2.90188249 5.533953,2.92975757 5.53743902,2.94500365 L5.53743902,2.94500365 Z" id="Path-15"></path>
                        </g>
                        <g id="Path-5807-+-Path-5808-Mask" transform="translate(9.610942, 41.647416)">
                            <path d="M9.19202978,2.40802991 C9.19202978,2.40802991 12.1991704,5.868742 12.807339,6.17184797 C13.4155077,6.47495394 17.7400933,6.95961852 19.6783183,6.95961878 C21.6165432,6.95961905 21.4641205,3.63915284 21.4641205,3.63915284 L15.7375073,2.00794757 L10.95087,1.49653798" id="Path-5809" fill="#E4E4E4"></path>
                            <mask id="mask-6" fill="white">
                                <use xlink:href="#path-5"></use>
                            </mask>
                            <use id="Mask" fill="#838383" xlink:href="#path-5"></use>
                            <path d="M7.87895153,0.645917666 C7.87895153,0.645917666 7.54491225,3.20754701 8.01739686,3.97774635 C8.48988147,4.7479457 8.52959184,5.95473314 9.91271981,6.39513568 C11.2958478,6.83553823 9.07902901,7.27594045 7.96624468,6.83553802 C6.85346035,6.39513559 2.44270645,4.66717902 1.33194132,5.16523981 C0.221176183,5.66330059 -0.0787820134,7.47606205 -0.0787820134,7.47606205 L0.68939812,-0.257564516 L6.3616815,-0.257564516" id="Path-5807" fill="#A8A8A8" mask="url(#mask-6)"></path>
                            <path d="M9.48956105,1.23616893 C9.48956105,1.23616893 9.36212933,4.5933674 10.28758,5.50423519 C11.2130306,6.41510297 11.6855152,7.29815106 10.5875381,7.29815117 C9.48956105,7.29815129 7.7340092,7.49827272 6.93621464,7.15568786 C6.13842009,6.813103 5.966118,6.940759 4.85535286,6.94075896 C3.74458773,6.94075892 3.144447,6.72986859 2.67420589,6.72986838 C2.20396477,6.72986818 1.22108009,7.41301923 1.22108009,7.41301923 L1.93182619,8.99402548 L14.0889947,8.18119936 L14.0889947,5.35773354 L11.5998129,2.46651351" id="Path-5808" fill="#313131" style="mix-blend-mode: soft-light;" mask="url(#mask-6)"></path>
                        </g>
                        <g id="Path-5806" transform="translate(22.425532, 39.511651)">
                            <mask id="mask-8" fill="white">
                                <use xlink:href="#path-7"></use>
                            </mask>
                            <use id="Mask" fill="#828282" xlink:href="#path-7"></use>
                            <path d="M7.67183208,4.06407646 C7.67183208,4.06407646 7.15199051,5.06600129 7.85921316,6.12229152 C8.56643581,7.17858176 8.70618819,9.19057809 8.18901012,9.19057833 C7.67183205,9.19057857 7.66055163,9.28426886 5.58447581,8.69126103 C3.5084,8.09825319 1.55452926,8.35848738 1.3553977,8.67778714 C1.15626614,8.99708689 0.877074592,9.78311602 1.29601858,10.2913638 C1.71496257,10.7996116 0.899165513,10.8887585 0.899165513,10.8887585 L-0.00577855352,9.28536558 L1.79940938,3.93341106 L5.20046994,1.59020755" id="Path-5805" fill="#A4A4A4" mask="url(#mask-8)"></path>
                            <path d="M16.847135,2.21001655 C16.847135,2.21001655 15.8362064,6.21873232 14.4086566,6.48885169 C12.9811069,6.75897106 11.1959408,7.40173857 11.1959407,7.88678697 C11.1959405,8.37183537 12.0816812,8.77185432 13.2451688,9.31231751 C14.4086565,9.8527807 12.4341375,10.0508832 11.3363848,10.0508832 C10.2386321,10.0508832 8.78505758,10.3358098 7.87441412,9.96562959 C6.96377065,9.59544935 6.8782927,9.22526923 6.00825689,9.59544932 C5.13822108,9.96562941 4.9827454,9.51041999 4.04226317,9.51042004 C3.10178093,9.51042009 1.7357036,9.88059994 1.39311859,9.8806003 C1.05053358,9.88060066 0.665321763,10.5231435 0.665321763,10.5231435 L16.1110371,12.380551 L17.5922069,5.70317212" fill="#332727" style="mix-blend-mode: soft-light;" mask="url(#mask-8)"></path>
                        </g>
                    </g>
                </g>
            </g>
        </g>
    </g>
</svg>